<svg width="1440" height="119" viewBox="0 0 1440 119" fill="none" xmlns="http://www.w3.org/2000/svg">
<rect width="1440" height="119" fill="#7ED957"/>
<path d="M1018.84 70V67.081C1018.84 67.081 1018.97 66.997 1019.24 66.829C1019.51 66.661 1019.85 66.43 1020.27 66.136C1020.69 65.842 1021.14 65.513 1021.63 65.149C1022.12 64.785 1022.59 64.407 1023.02 64.015C1023.65 63.469 1024.17 62.986 1024.59 62.566C1025.01 62.132 1025.33 61.705 1025.54 61.285C1025.75 60.865 1025.85 60.382 1025.85 59.836C1025.85 58.94 1025.26 58.492 1024.07 58.492C1023.48 58.492 1022.89 58.569 1022.28 58.723C1021.7 58.863 1021.15 59.031 1020.65 59.227C1020.16 59.423 1019.77 59.591 1019.49 59.731V56.161C1019.9 55.937 1020.55 55.685 1021.44 55.405C1022.34 55.125 1023.43 54.985 1024.72 54.985C1026.54 54.985 1027.87 55.37 1028.71 56.14C1029.55 56.896 1029.97 58.044 1029.97 59.584C1029.97 60.382 1029.82 61.096 1029.53 61.726C1029.24 62.356 1028.86 62.923 1028.4 63.427C1027.93 63.917 1027.44 64.344 1026.9 64.708C1026.39 65.072 1025.89 65.38 1025.41 65.632C1024.94 65.87 1024.55 66.066 1024.24 66.22L1024.34 66.64L1029.97 66.22V70H1018.84ZM1037.92 70.21C1036.73 70.21 1035.65 69.965 1034.7 69.475C1033.76 68.985 1033.02 68.187 1032.48 67.081C1031.93 65.961 1031.66 64.456 1031.66 62.566C1031.66 60.69 1031.93 59.199 1032.48 58.093C1033.02 56.973 1033.76 56.168 1034.7 55.678C1035.65 55.174 1036.73 54.922 1037.92 54.922C1039.12 54.922 1040.19 55.174 1041.13 55.678C1042.07 56.182 1042.81 56.994 1043.35 58.114C1043.9 59.22 1044.17 60.704 1044.17 62.566C1044.17 64.428 1043.9 65.919 1043.35 67.039C1042.81 68.159 1042.07 68.971 1041.13 69.475C1040.19 69.965 1039.12 70.21 1037.92 70.21ZM1037.92 66.556C1038.67 66.556 1039.24 66.262 1039.62 65.674C1040.01 65.086 1040.2 64.05 1040.2 62.566C1040.2 61.082 1040.01 60.046 1039.62 59.458C1039.24 58.87 1038.67 58.576 1037.92 58.576C1037.17 58.576 1036.61 58.877 1036.21 59.479C1035.82 60.081 1035.63 61.11 1035.63 62.566C1035.63 64.022 1035.82 65.051 1036.21 65.653C1036.61 66.255 1037.17 66.556 1037.92 66.556ZM1045.85 70V67.081C1045.85 67.081 1045.98 66.997 1046.25 66.829C1046.51 66.661 1046.86 66.43 1047.28 66.136C1047.7 65.842 1048.15 65.513 1048.64 65.149C1049.13 64.785 1049.59 64.407 1050.03 64.015C1050.66 63.469 1051.18 62.986 1051.6 62.566C1052.02 62.132 1052.34 61.705 1052.55 61.285C1052.76 60.865 1052.86 60.382 1052.86 59.836C1052.86 58.94 1052.27 58.492 1051.08 58.492C1050.49 58.492 1049.89 58.569 1049.29 58.723C1048.7 58.863 1048.16 59.031 1047.65 59.227C1047.16 59.423 1046.78 59.591 1046.5 59.731V56.161C1046.91 55.937 1047.56 55.685 1048.45 55.405C1049.35 55.125 1050.44 54.985 1051.73 54.985C1053.55 54.985 1054.88 55.37 1055.72 56.14C1056.56 56.896 1056.98 58.044 1056.98 59.584C1056.98 60.382 1056.83 61.096 1056.54 61.726C1056.24 62.356 1055.87 62.923 1055.4 63.427C1054.94 63.917 1054.44 64.344 1053.91 64.708C1053.39 65.072 1052.9 65.38 1052.42 65.632C1051.95 65.87 1051.55 66.066 1051.25 66.22L1051.35 66.64L1056.98 66.22V70H1045.85ZM1065.64 70V67.9H1058.04V65.128L1064.04 55.132H1069.5L1069.92 56.413L1069.5 58.513V64.498H1072.23V67.69L1069.5 67.9V70H1065.64ZM1062.53 64.498H1065.64V59.29H1065.26L1062.53 64.498Z" fill="black"/>
<path d="M1088 65H1092C1092.28 65 1092.52 64.9042 1092.71 64.7125C1092.9 64.5208 1093 64.2833 1093 64V62H1091V63H1089V59H1091V60H1093V58C1093 57.7167 1092.9 57.4792 1092.71 57.2875C1092.52 57.0958 1092.28 57 1092 57H1088C1087.72 57 1087.48 57.0958 1087.29 57.2875C1087.1 57.4792 1087 57.7167 1087 58V64C1087 64.2833 1087.1 64.5208 1087.29 64.7125C1087.48 64.9042 1087.72 65 1088 65ZM1090 71C1088.62 71 1087.32 70.7375 1086.1 70.2125C1084.88 69.6875 1083.83 68.975 1082.93 68.075C1082.03 67.175 1081.31 66.1167 1080.79 64.9C1080.26 63.6833 1080 62.3833 1080 61C1080 59.6167 1080.26 58.3167 1080.79 57.1C1081.31 55.8833 1082.03 54.825 1082.93 53.925C1083.83 53.025 1084.88 52.3125 1086.1 51.7875C1087.32 51.2625 1088.62 51 1090 51C1091.38 51 1092.68 51.2625 1093.9 51.7875C1095.12 52.3125 1096.18 53.025 1097.08 53.925C1097.98 54.825 1098.69 55.8833 1099.21 57.1C1099.74 58.3167 1100 59.6167 1100 61C1100 62.3833 1099.74 63.6833 1099.21 64.9C1098.69 66.1167 1097.98 67.175 1097.08 68.075C1096.18 68.975 1095.12 69.6875 1093.9 70.2125C1092.68 70.7375 1091.38 71 1090 71ZM1090 69C1092.23 69 1094.13 68.225 1095.68 66.675C1097.23 65.125 1098 63.2333 1098 61C1098 58.7667 1097.23 56.875 1095.68 55.325C1094.13 53.775 1092.23 53 1090 53C1087.77 53 1085.88 53.775 1084.33 55.325C1082.78 56.875 1082 58.7667 1082 61C1082 63.2333 1082.78 65.125 1084.33 66.675C1085.88 68.225 1087.77 69 1090 69Z" fill="black"/>
<path d="M1110.62 69V57.492L1106.42 57.702V54.132H1118.71V57.702L1114.4 57.492V65.64L1114.63 67.74L1114.4 69H1110.62ZM1123.34 69.21C1121.64 69.21 1120.31 68.804 1119.38 67.992C1118.44 67.18 1117.97 65.864 1117.97 64.044C1117.97 62.21 1118.44 60.894 1119.38 60.096C1120.31 59.284 1121.64 58.878 1123.34 58.878C1125.09 58.878 1126.42 59.284 1127.31 60.096C1128.22 60.894 1128.68 62.21 1128.68 64.044C1128.68 65.864 1128.22 67.18 1127.31 67.992C1126.42 68.804 1125.09 69.21 1123.34 69.21ZM1123.34 66.48C1123.92 66.48 1124.32 66.27 1124.54 65.85C1124.77 65.416 1124.88 64.814 1124.88 64.044C1124.88 63.26 1124.77 62.658 1124.54 62.238C1124.32 61.818 1123.92 61.608 1123.34 61.608C1122.76 61.608 1122.34 61.818 1122.11 62.238C1121.88 62.658 1121.77 63.26 1121.77 64.044C1121.77 64.814 1121.88 65.416 1122.11 65.85C1122.34 66.27 1122.76 66.48 1123.34 66.48ZM1133.71 69.21C1133.05 69.21 1132.41 69.042 1131.8 68.706C1131.2 68.37 1130.7 67.838 1130.31 67.11C1129.92 66.382 1129.72 65.43 1129.72 64.254C1129.72 62.952 1129.91 61.909 1130.29 61.125C1130.68 60.341 1131.18 59.774 1131.8 59.424C1132.41 59.06 1133.05 58.878 1133.71 58.878C1134.7 58.878 1135.4 58.962 1135.81 59.13C1136.23 59.298 1136.44 59.382 1136.44 59.382L1136.23 55.413L1136.44 54.153H1140.24V65.64L1140.66 67.74L1140.24 69.021H1136.65V67.992L1136.44 67.887C1136.44 67.887 1136.33 67.999 1136.12 68.223C1135.91 68.433 1135.61 68.65 1135.2 68.874C1134.79 69.098 1134.3 69.21 1133.71 69.21ZM1135.28 66.249L1136.44 65.955V62.889C1136.44 62.567 1136.33 62.315 1136.12 62.133C1135.91 61.937 1135.63 61.839 1135.28 61.839C1134.77 61.839 1134.37 62.014 1134.11 62.364C1133.84 62.7 1133.71 63.26 1133.71 64.044C1133.71 64.814 1133.86 65.374 1134.17 65.724C1134.48 66.074 1134.85 66.249 1135.28 66.249ZM1147.4 69.21C1145.69 69.21 1144.37 68.804 1143.43 67.992C1142.49 67.18 1142.02 65.864 1142.02 64.044C1142.02 62.21 1142.49 60.894 1143.43 60.096C1144.37 59.284 1145.69 58.878 1147.4 58.878C1149.15 58.878 1150.47 59.284 1151.37 60.096C1152.28 60.894 1152.73 62.21 1152.73 64.044C1152.73 65.864 1152.28 67.18 1151.37 67.992C1150.47 68.804 1149.15 69.21 1147.4 69.21ZM1147.4 66.48C1147.97 66.48 1148.37 66.27 1148.6 65.85C1148.82 65.416 1148.93 64.814 1148.93 64.044C1148.93 63.26 1148.82 62.658 1148.6 62.238C1148.37 61.818 1147.97 61.608 1147.4 61.608C1146.81 61.608 1146.4 61.818 1146.16 62.238C1145.94 62.658 1145.83 63.26 1145.83 64.044C1145.83 64.814 1145.94 65.416 1146.16 65.85C1146.4 66.27 1146.81 66.48 1147.4 66.48ZM1158.61 69.21C1157.58 69.21 1156.68 69.105 1155.9 68.895C1155.11 68.685 1154.5 68.468 1154.07 68.244V65.325C1154.64 65.577 1155.23 65.773 1155.83 65.913C1156.45 66.053 1157 66.151 1157.49 66.207C1157.98 66.249 1158.33 66.27 1158.54 66.27C1158.78 66.27 1158.95 66.235 1159.05 66.165C1159.14 66.081 1159.19 65.983 1159.19 65.871C1159.19 65.717 1159.07 65.591 1158.82 65.493C1158.56 65.381 1158.09 65.241 1157.39 65.073C1156.81 64.933 1156.25 64.758 1155.71 64.548C1155.18 64.324 1154.73 64.016 1154.38 63.624C1154.05 63.232 1153.88 62.707 1153.88 62.049C1153.88 61.237 1154.07 60.6 1154.45 60.138C1154.83 59.676 1155.36 59.354 1156.06 59.172C1156.76 58.976 1157.58 58.878 1158.52 58.878C1159.05 58.878 1159.55 58.906 1160.01 58.962C1160.47 59.018 1160.8 59.06 1161 59.088L1162.95 60.348L1162.01 62.595L1158.33 61.797C1157.88 61.797 1157.66 61.944 1157.66 62.238C1157.66 62.546 1157.98 62.777 1158.63 62.931C1159.13 63.043 1159.65 63.169 1160.18 63.309C1160.71 63.435 1161.2 63.603 1161.63 63.813C1162.08 64.023 1162.43 64.303 1162.7 64.653C1162.98 65.003 1163.12 65.465 1163.12 66.039C1163.12 67.103 1162.74 67.901 1161.97 68.433C1161.21 68.951 1160.09 69.21 1158.61 69.21ZM1174.7 69.21C1172.99 69.21 1171.66 68.804 1170.73 67.992C1169.79 67.18 1169.32 65.864 1169.32 64.044C1169.32 62.21 1169.79 60.894 1170.73 60.096C1171.66 59.284 1172.99 58.878 1174.7 58.878C1176.45 58.878 1177.77 59.284 1178.66 60.096C1179.57 60.894 1180.03 62.21 1180.03 64.044C1180.03 65.864 1179.57 67.18 1178.66 67.992C1177.77 68.804 1176.45 69.21 1174.7 69.21ZM1174.7 66.48C1175.27 66.48 1175.67 66.27 1175.89 65.85C1176.12 65.416 1176.23 64.814 1176.23 64.044C1176.23 63.26 1176.12 62.658 1175.89 62.238C1175.67 61.818 1175.27 61.608 1174.7 61.608C1174.11 61.608 1173.69 61.818 1173.46 62.238C1173.23 62.658 1173.12 63.26 1173.12 64.044C1173.12 64.814 1173.23 65.416 1173.46 65.85C1173.69 66.27 1174.11 66.48 1174.7 66.48ZM1185.9 69.21C1184.88 69.21 1183.98 69.105 1183.19 68.895C1182.41 68.685 1181.8 68.468 1181.36 68.244V65.325C1181.94 65.577 1182.53 65.773 1183.13 65.913C1183.74 66.053 1184.3 66.151 1184.79 66.207C1185.28 66.249 1185.63 66.27 1185.84 66.27C1186.08 66.27 1186.24 66.235 1186.34 66.165C1186.44 66.081 1186.49 65.983 1186.49 65.871C1186.49 65.717 1186.36 65.591 1186.11 65.493C1185.86 65.381 1185.38 65.241 1184.68 65.073C1184.11 64.933 1183.55 64.758 1183 64.548C1182.47 64.324 1182.03 64.016 1181.68 63.624C1181.34 63.232 1181.18 62.707 1181.18 62.049C1181.18 61.237 1181.36 60.6 1181.74 60.138C1182.12 59.676 1182.66 59.354 1183.36 59.172C1184.06 58.976 1184.88 58.878 1185.82 58.878C1186.35 58.878 1186.85 58.906 1187.31 58.962C1187.77 59.018 1188.1 59.06 1188.29 59.088L1190.25 60.348L1189.3 62.595L1185.63 61.797C1185.18 61.797 1184.96 61.944 1184.96 62.238C1184.96 62.546 1185.28 62.777 1185.92 62.931C1186.43 63.043 1186.94 63.169 1187.48 63.309C1188.01 63.435 1188.49 63.603 1188.92 63.813C1189.37 64.023 1189.73 64.303 1190 64.653C1190.28 65.003 1190.42 65.465 1190.42 66.039C1190.42 67.103 1190.03 67.901 1189.26 68.433C1188.5 68.951 1187.38 69.21 1185.9 69.21ZM1200.61 69.21C1199.95 69.21 1199.31 69.042 1198.69 68.706C1198.09 68.37 1197.6 67.838 1197.2 67.11C1196.81 66.382 1196.62 65.43 1196.62 64.254C1196.62 62.952 1196.8 61.909 1197.18 61.125C1197.57 60.341 1198.08 59.774 1198.69 59.424C1199.31 59.06 1199.95 58.878 1200.61 58.878C1201.6 58.878 1202.3 58.962 1202.71 59.13C1203.13 59.298 1203.34 59.382 1203.34 59.382L1203.13 55.413L1203.34 54.153H1207.14V65.64L1207.56 67.74L1207.14 69.021H1203.55V67.992L1203.34 67.887C1203.34 67.887 1203.23 67.999 1203.02 68.223C1202.81 68.433 1202.5 68.65 1202.1 68.874C1201.69 69.098 1201.19 69.21 1200.61 69.21ZM1202.18 66.249L1203.34 65.955V62.889C1203.34 62.567 1203.23 62.315 1203.02 62.133C1202.81 61.937 1202.53 61.839 1202.18 61.839C1201.66 61.839 1201.27 62.014 1201 62.364C1200.74 62.7 1200.61 63.26 1200.61 64.044C1200.61 64.814 1200.76 65.374 1201.07 65.724C1201.38 66.074 1201.75 66.249 1202.18 66.249ZM1211.55 58.479L1208.88 55.791L1211.55 53.124L1214.21 55.791L1211.55 58.479ZM1209.66 69V62.049L1209.21 60.369L1209.63 59.088H1213.44V69H1209.66ZM1215.81 69V62.427L1215.37 60.327L1215.81 59.067H1218.66L1219.08 59.55C1219.08 59.55 1219.18 59.494 1219.38 59.382C1219.57 59.256 1219.85 59.137 1220.2 59.025C1220.56 58.913 1220.98 58.857 1221.46 58.857C1221.74 58.857 1222.02 58.878 1222.3 58.92C1222.58 58.962 1222.79 59.018 1222.95 59.088L1224.31 60.243L1222.95 62.931L1220.18 61.776L1219.55 61.986V69H1215.81ZM1229.76 69.21C1228.69 69.21 1227.73 69.049 1226.89 68.727C1226.05 68.405 1225.39 67.866 1224.91 67.11C1224.44 66.354 1224.2 65.332 1224.2 64.044C1224.2 63.12 1224.35 62.329 1224.66 61.671C1224.98 61.013 1225.41 60.481 1225.94 60.075C1226.47 59.655 1227.07 59.354 1227.73 59.172C1228.38 58.976 1229.06 58.878 1229.76 58.878C1230.97 58.878 1231.89 58.997 1232.54 59.235C1233.19 59.473 1233.63 59.662 1233.84 59.802L1234.89 63.141L1234.47 64.443H1227.96C1228.06 64.961 1228.31 65.395 1228.73 65.745C1229.15 66.095 1229.85 66.27 1230.81 66.27C1231.57 66.27 1232.22 66.186 1232.77 66.018C1233.31 65.85 1233.74 65.703 1234.05 65.577V68.391C1233.63 68.615 1233.02 68.811 1232.22 68.979C1231.44 69.133 1230.62 69.21 1229.76 69.21ZM1227.98 63.099L1230.88 62.679L1230.69 61.776C1230.59 61.72 1230.44 61.678 1230.25 61.65C1230.06 61.622 1229.9 61.608 1229.76 61.608C1229.37 61.608 1229.04 61.692 1228.78 61.86C1228.52 62.028 1228.33 62.231 1228.19 62.469C1228.06 62.693 1227.99 62.903 1227.98 63.099ZM1238.53 58.479L1235.87 55.791L1238.53 53.124L1241.2 55.791L1238.53 58.479ZM1236.64 69V62.049L1236.2 60.369L1236.62 59.088H1240.42V69H1236.64ZM1246.41 69.21C1245.46 69.21 1244.69 68.93 1244.12 68.37C1243.55 67.81 1243.26 67.103 1243.26 66.249V61.671H1241.73V59.676L1243.05 58.647L1244.54 56.043H1247.02V59.088H1249.96V61.818H1247.02V66.312L1249.96 66.291V68.58C1249.96 68.58 1249.79 68.636 1249.45 68.748C1249.13 68.846 1248.7 68.944 1248.17 69.042C1247.64 69.154 1247.05 69.21 1246.41 69.21ZM1256.48 69.21C1254.77 69.21 1253.45 68.804 1252.51 67.992C1251.57 67.18 1251.11 65.864 1251.11 64.044C1251.11 62.21 1251.57 60.894 1252.51 60.096C1253.45 59.284 1254.77 58.878 1256.48 58.878C1258.23 58.878 1259.55 59.284 1260.45 60.096C1261.36 60.894 1261.82 62.21 1261.82 64.044C1261.82 65.864 1261.36 67.18 1260.45 67.992C1259.55 68.804 1258.23 69.21 1256.48 69.21ZM1256.48 66.48C1257.06 66.48 1257.45 66.27 1257.68 65.85C1257.9 65.416 1258.01 64.814 1258.01 64.044C1258.01 63.26 1257.9 62.658 1257.68 62.238C1257.45 61.818 1257.06 61.608 1256.48 61.608C1255.89 61.608 1255.48 61.818 1255.24 62.238C1255.02 62.658 1254.91 63.26 1254.91 64.044C1254.91 64.814 1255.02 65.416 1255.24 65.85C1255.48 66.27 1255.89 66.48 1256.48 66.48ZM1267.69 69.21C1266.66 69.21 1265.76 69.105 1264.98 68.895C1264.19 68.685 1263.58 68.468 1263.15 68.244V65.325C1263.72 65.577 1264.31 65.773 1264.91 65.913C1265.53 66.053 1266.08 66.151 1266.57 66.207C1267.06 66.249 1267.41 66.27 1267.62 66.27C1267.86 66.27 1268.03 66.235 1268.13 66.165C1268.23 66.081 1268.27 65.983 1268.27 65.871C1268.27 65.717 1268.15 65.591 1267.9 65.493C1267.64 65.381 1267.17 65.241 1266.47 65.073C1265.89 64.933 1265.33 64.758 1264.79 64.548C1264.26 64.324 1263.82 64.016 1263.47 63.624C1263.13 63.232 1262.96 62.707 1262.96 62.049C1262.96 61.237 1263.15 60.6 1263.53 60.138C1263.91 59.676 1264.45 59.354 1265.15 59.172C1265.85 58.976 1266.66 58.878 1267.6 58.878C1268.13 58.878 1268.63 58.906 1269.09 58.962C1269.56 59.018 1269.88 59.06 1270.08 59.088L1272.03 60.348L1271.09 62.595L1267.41 61.797C1266.97 61.797 1266.74 61.944 1266.74 62.238C1266.74 62.546 1267.06 62.777 1267.71 62.931C1268.21 63.043 1268.73 63.169 1269.26 63.309C1269.79 63.435 1270.28 63.603 1270.71 63.813C1271.16 64.023 1271.52 64.303 1271.78 64.653C1272.06 65.003 1272.2 65.465 1272.2 66.039C1272.2 67.103 1271.82 67.901 1271.05 68.433C1270.29 68.951 1269.17 69.21 1267.69 69.21ZM1279.16 69V62.427L1278.72 60.327L1279.16 59.067H1282.01L1282.43 59.55C1282.43 59.55 1282.53 59.494 1282.73 59.382C1282.92 59.256 1283.2 59.137 1283.55 59.025C1283.91 58.913 1284.33 58.857 1284.81 58.857C1285.09 58.857 1285.37 58.878 1285.65 58.92C1285.93 58.962 1286.14 59.018 1286.3 59.088L1287.66 60.243L1286.3 62.931L1283.52 61.776L1282.89 61.986V69H1279.16ZM1293.11 69.21C1292.03 69.21 1291.08 69.049 1290.24 68.727C1289.4 68.405 1288.74 67.866 1288.26 67.11C1287.79 66.354 1287.55 65.332 1287.55 64.044C1287.55 63.12 1287.7 62.329 1288.01 61.671C1288.33 61.013 1288.76 60.481 1289.29 60.075C1289.82 59.655 1290.42 59.354 1291.08 59.172C1291.73 58.976 1292.41 58.878 1293.11 58.878C1294.32 58.878 1295.24 58.997 1295.88 59.235C1296.54 59.473 1296.98 59.662 1297.19 59.802L1298.24 63.141L1297.82 64.443H1291.31C1291.4 64.961 1291.66 65.395 1292.08 65.745C1292.5 66.095 1293.2 66.27 1294.16 66.27C1294.92 66.27 1295.57 66.186 1296.12 66.018C1296.66 65.85 1297.09 65.703 1297.4 65.577V68.391C1296.98 68.615 1296.37 68.811 1295.57 68.979C1294.79 69.133 1293.97 69.21 1293.11 69.21ZM1291.33 63.099L1294.23 62.679L1294.04 61.776C1293.94 61.72 1293.79 61.678 1293.6 61.65C1293.41 61.622 1293.25 61.608 1293.11 61.608C1292.72 61.608 1292.39 61.692 1292.13 61.86C1291.87 62.028 1291.68 62.231 1291.54 62.469C1291.41 62.693 1291.34 62.903 1291.33 63.099ZM1304.09 69.21C1303.07 69.21 1302.16 69.105 1301.38 68.895C1300.59 68.685 1299.99 68.468 1299.55 68.244V65.325C1300.13 65.577 1300.71 65.773 1301.32 65.913C1301.93 66.053 1302.48 66.151 1302.97 66.207C1303.46 66.249 1303.81 66.27 1304.02 66.27C1304.26 66.27 1304.43 66.235 1304.53 66.165C1304.63 66.081 1304.68 65.983 1304.68 65.871C1304.68 65.717 1304.55 65.591 1304.3 65.493C1304.05 65.381 1303.57 65.241 1302.87 65.073C1302.3 64.933 1301.74 64.758 1301.19 64.548C1300.66 64.324 1300.22 64.016 1299.87 63.624C1299.53 63.232 1299.36 62.707 1299.36 62.049C1299.36 61.237 1299.55 60.6 1299.93 60.138C1300.31 59.676 1300.85 59.354 1301.55 59.172C1302.25 58.976 1303.07 58.878 1304 58.878C1304.54 58.878 1305.03 58.906 1305.49 58.962C1305.96 59.018 1306.29 59.06 1306.48 59.088L1308.43 60.348L1307.49 62.595L1303.81 61.797C1303.37 61.797 1303.14 61.944 1303.14 62.238C1303.14 62.546 1303.46 62.777 1304.11 62.931C1304.61 63.043 1305.13 63.169 1305.66 63.309C1306.19 63.435 1306.68 63.603 1307.11 63.813C1307.56 64.023 1307.92 64.303 1308.18 64.653C1308.46 65.003 1308.6 65.465 1308.6 66.039C1308.6 67.103 1308.22 67.901 1307.45 68.433C1306.69 68.951 1305.57 69.21 1304.09 69.21ZM1315.32 69.21C1314.24 69.21 1313.29 69.049 1312.45 68.727C1311.61 68.405 1310.95 67.866 1310.47 67.11C1310 66.354 1309.76 65.332 1309.76 64.044C1309.76 63.12 1309.91 62.329 1310.22 61.671C1310.54 61.013 1310.97 60.481 1311.5 60.075C1312.03 59.655 1312.63 59.354 1313.29 59.172C1313.94 58.976 1314.62 58.878 1315.32 58.878C1316.53 58.878 1317.45 58.997 1318.09 59.235C1318.75 59.473 1319.19 59.662 1319.4 59.802L1320.45 63.141L1320.03 64.443H1313.52C1313.61 64.961 1313.87 65.395 1314.29 65.745C1314.71 66.095 1315.41 66.27 1316.37 66.27C1317.13 66.27 1317.78 66.186 1318.33 66.018C1318.87 65.85 1319.3 65.703 1319.61 65.577V68.391C1319.19 68.615 1318.58 68.811 1317.78 68.979C1317 69.133 1316.18 69.21 1315.32 69.21ZM1313.54 63.099L1316.44 62.679L1316.25 61.776C1316.15 61.72 1316 61.678 1315.81 61.65C1315.62 61.622 1315.46 61.608 1315.32 61.608C1314.93 61.608 1314.6 61.692 1314.34 61.86C1314.08 62.028 1313.89 62.231 1313.75 62.469C1313.62 62.693 1313.55 62.903 1313.54 63.099ZM1322.22 69V62.427L1321.78 60.327L1322.22 59.067H1325.08L1325.5 59.55C1325.5 59.55 1325.6 59.494 1325.79 59.382C1325.99 59.256 1326.26 59.137 1326.61 59.025C1326.98 58.913 1327.4 58.857 1327.87 58.857C1328.15 58.857 1328.43 58.878 1328.71 58.92C1328.99 58.962 1329.21 59.018 1329.36 59.088L1330.73 60.243L1329.36 62.931L1326.59 61.776L1325.96 61.986V69H1322.22ZM1334 69L1331.35 61.818L1330.93 59.088H1334.92L1336.08 65.64H1336.5L1337.68 59.088H1341.64L1341.22 61.818L1338.41 69H1334ZM1345.85 69.21C1345.25 69.21 1344.69 69.126 1344.17 68.958C1343.67 68.776 1343.26 68.468 1342.95 68.034C1342.64 67.6 1342.49 66.998 1342.49 66.228C1342.49 65.528 1342.67 64.947 1343.02 64.485C1343.37 64.023 1343.84 63.68 1344.44 63.456C1345.05 63.232 1345.72 63.12 1346.48 63.12C1347.21 63.12 1347.75 63.204 1348.12 63.372C1348.48 63.526 1348.8 63.687 1349.06 63.855L1349.21 63.729C1349.21 63.309 1349.18 62.959 1349.11 62.679C1349.04 62.399 1348.87 62.189 1348.62 62.049C1348.37 61.895 1347.98 61.818 1347.45 61.818C1346.93 61.818 1346.38 61.867 1345.79 61.965C1345.21 62.049 1344.68 62.161 1344.19 62.301C1343.72 62.427 1343.36 62.553 1343.12 62.679V59.529C1343.55 59.375 1344.17 59.235 1344.97 59.109C1345.78 58.969 1346.77 58.899 1347.95 58.899C1349.21 58.899 1350.2 59.06 1350.93 59.382C1351.67 59.69 1352.21 60.145 1352.53 60.747C1352.85 61.335 1353.01 62.042 1353.01 62.868V65.661L1353.43 67.782L1353.01 69.021H1349.42V67.992L1349.21 67.887C1349.1 67.999 1348.9 68.16 1348.62 68.37C1348.34 68.58 1347.97 68.776 1347.51 68.958C1347.05 69.126 1346.49 69.21 1345.85 69.21ZM1347.64 66.459C1348.01 66.459 1348.34 66.424 1348.6 66.354C1348.88 66.284 1349.08 66.221 1349.21 66.165V65.766C1349.21 65.584 1349.08 65.409 1348.81 65.241C1348.56 65.073 1348.16 64.989 1347.61 64.989C1346.86 64.989 1346.48 65.255 1346.48 65.787C1346.48 66.011 1346.56 66.179 1346.73 66.291C1346.9 66.403 1347.2 66.459 1347.64 66.459ZM1358.78 69.21C1358.12 69.21 1357.49 69.042 1356.87 68.706C1356.27 68.37 1355.77 67.838 1355.38 67.11C1354.99 66.382 1354.79 65.43 1354.79 64.254C1354.79 62.952 1354.98 61.909 1355.36 61.125C1355.75 60.341 1356.26 59.774 1356.87 59.424C1357.49 59.06 1358.12 58.878 1358.78 58.878C1359.78 58.878 1360.48 58.962 1360.88 59.13C1361.3 59.298 1361.51 59.382 1361.51 59.382L1361.3 55.413L1361.51 54.153H1365.31V65.64L1365.73 67.74L1365.31 69.021H1361.72V67.992L1361.51 67.887C1361.51 67.887 1361.41 67.999 1361.2 68.223C1360.99 68.433 1360.68 68.65 1360.27 68.874C1359.87 69.098 1359.37 69.21 1358.78 69.21ZM1360.36 66.249L1361.51 65.955V62.889C1361.51 62.567 1361.41 62.315 1361.2 62.133C1360.99 61.937 1360.71 61.839 1360.36 61.839C1359.84 61.839 1359.45 62.014 1359.18 62.364C1358.92 62.7 1358.78 63.26 1358.78 64.044C1358.78 64.814 1358.94 65.374 1359.24 65.724C1359.55 66.074 1359.92 66.249 1360.36 66.249ZM1372.47 69.21C1370.77 69.21 1369.44 68.804 1368.5 67.992C1367.57 67.18 1367.1 65.864 1367.1 64.044C1367.1 62.21 1367.57 60.894 1368.5 60.096C1369.44 59.284 1370.77 58.878 1372.47 58.878C1374.22 58.878 1375.55 59.284 1376.44 60.096C1377.35 60.894 1377.81 62.21 1377.81 64.044C1377.81 65.864 1377.35 67.18 1376.44 67.992C1375.55 68.804 1374.22 69.21 1372.47 69.21ZM1372.47 66.48C1373.05 66.48 1373.45 66.27 1373.67 65.85C1373.89 65.416 1374.01 64.814 1374.01 64.044C1374.01 63.26 1373.89 62.658 1373.67 62.238C1373.45 61.818 1373.05 61.608 1372.47 61.608C1371.89 61.608 1371.47 61.818 1371.23 62.238C1371.01 62.658 1370.9 63.26 1370.9 64.044C1370.9 64.814 1371.01 65.416 1371.23 65.85C1371.47 66.27 1371.89 66.48 1372.47 66.48ZM1383.68 69.21C1382.66 69.21 1381.75 69.105 1380.97 68.895C1380.19 68.685 1379.58 68.468 1379.14 68.244V65.325C1379.72 65.577 1380.3 65.773 1380.91 65.913C1381.52 66.053 1382.08 66.151 1382.57 66.207C1383.06 66.249 1383.41 66.27 1383.62 66.27C1383.85 66.27 1384.02 66.235 1384.12 66.165C1384.22 66.081 1384.27 65.983 1384.27 65.871C1384.27 65.717 1384.14 65.591 1383.89 65.493C1383.64 65.381 1383.16 65.241 1382.46 65.073C1381.89 64.933 1381.33 64.758 1380.78 64.548C1380.25 64.324 1379.81 64.016 1379.46 63.624C1379.12 63.232 1378.95 62.707 1378.95 62.049C1378.95 61.237 1379.14 60.6 1379.52 60.138C1379.9 59.676 1380.44 59.354 1381.14 59.172C1381.84 58.976 1382.66 58.878 1383.59 58.878C1384.13 58.878 1384.62 58.906 1385.09 58.962C1385.55 59.018 1385.88 59.06 1386.07 59.088L1388.03 60.348L1387.08 62.595L1383.41 61.797C1382.96 61.797 1382.73 61.944 1382.73 62.238C1382.73 62.546 1383.06 62.777 1383.7 62.931C1384.2 63.043 1384.72 63.169 1385.25 63.309C1385.79 63.435 1386.27 63.603 1386.7 63.813C1387.15 64.023 1387.51 64.303 1387.77 64.653C1388.05 65.003 1388.19 65.465 1388.19 66.039C1388.19 67.103 1387.81 67.901 1387.04 68.433C1386.28 68.951 1385.16 69.21 1383.68 69.21ZM1392.18 69.63L1389.87 67.32L1392.18 65.01L1394.49 67.32L1392.18 69.63Z" fill="black"/>
<g filter="url(#filter0_d_367_12)">
<path d="M439.44 69.24C438.56 69.24 437.728 69.16 436.944 69C436.16 68.824 435.48 68.616 434.904 68.376C434.328 68.136 433.904 67.912 433.632 67.704V63.408C434.4 63.84 435.368 64.248 436.536 64.632C437.704 65 439 65.184 440.424 65.184C441 65.184 441.424 65.112 441.696 64.968C441.984 64.808 442.128 64.536 442.128 64.152C442.128 63.736 441.808 63.392 441.168 63.12C440.544 62.832 439.552 62.48 438.192 62.064C437.136 61.728 436.232 61.36 435.48 60.96C434.744 60.544 434.176 60.032 433.776 59.424C433.392 58.8 433.2 58.008 433.2 57.048C433.2 56.056 433.456 55.16 433.968 54.36C434.48 53.56 435.28 52.928 436.368 52.464C437.456 52 438.848 51.768 440.544 51.768C441.056 51.768 441.6 51.792 442.176 51.84C442.768 51.872 443.24 51.92 443.592 51.984L446.304 53.976L445.368 56.904L439.68 55.344C439.024 55.344 438.536 55.48 438.216 55.752C437.912 56.024 437.76 56.352 437.76 56.736C437.76 57.2 438.024 57.568 438.552 57.84C439.08 58.112 439.84 58.384 440.832 58.656C442.4 59.088 443.616 59.568 444.48 60.096C445.344 60.624 445.952 61.224 446.304 61.896C446.656 62.552 446.832 63.296 446.832 64.128C446.832 65.664 446.216 66.904 444.984 67.848C443.752 68.776 441.904 69.24 439.44 69.24ZM454.541 69.24C452.589 69.24 451.077 68.776 450.005 67.848C448.933 66.92 448.397 65.416 448.397 63.336C448.397 61.24 448.933 59.736 450.005 58.824C451.077 57.896 452.589 57.432 454.541 57.432C456.541 57.432 458.053 57.896 459.077 58.824C460.117 59.736 460.637 61.24 460.637 63.336C460.637 65.416 460.117 66.92 459.077 67.848C458.053 68.776 456.541 69.24 454.541 69.24ZM454.541 66.12C455.197 66.12 455.653 65.88 455.909 65.4C456.165 64.904 456.293 64.216 456.293 63.336C456.293 62.44 456.165 61.752 455.909 61.272C455.653 60.792 455.197 60.552 454.541 60.552C453.869 60.552 453.397 60.792 453.125 61.272C452.869 61.752 452.741 62.44 452.741 63.336C452.741 64.216 452.869 64.904 453.125 65.4C453.397 65.88 453.869 66.12 454.541 66.12ZM470.155 69.24C469.387 69.24 468.771 69.168 468.307 69.024C467.859 68.896 467.531 68.768 467.323 68.64C467.115 68.496 467.011 68.424 467.011 68.424V69.024H462.691V55.872L462.187 53.472L462.691 52.032H467.011V55.896L466.771 58.608L467.011 58.728C467.331 58.424 467.723 58.136 468.187 57.864C468.667 57.576 469.323 57.432 470.155 57.432C471.579 57.432 472.691 57.888 473.491 58.8C474.307 59.712 474.715 61.152 474.715 63.12C474.715 64.592 474.507 65.784 474.091 66.696C473.691 67.592 473.147 68.24 472.459 68.64C471.771 69.04 471.003 69.24 470.155 69.24ZM468.115 65.952C468.739 65.952 469.235 65.736 469.603 65.304C469.971 64.856 470.155 64.192 470.155 63.312C470.155 62.448 470.003 61.824 469.699 61.44C469.395 61.04 468.947 60.84 468.355 60.84L467.011 61.344V65.64C467.011 65.64 467.091 65.696 467.251 65.808C467.427 65.904 467.715 65.952 468.115 65.952ZM476.777 69V61.488L476.273 59.088L476.777 57.648H480.041L480.521 58.2C480.521 58.2 480.633 58.136 480.857 58.008C481.081 57.864 481.393 57.728 481.793 57.6C482.209 57.472 482.689 57.408 483.233 57.408C483.553 57.408 483.873 57.432 484.193 57.48C484.513 57.528 484.761 57.592 484.937 57.672L486.497 58.992L484.937 62.064L481.769 60.744L481.049 60.984V69H476.777ZM492.726 69.24C491.494 69.24 490.398 69.056 489.438 68.688C488.478 68.32 487.726 67.704 487.182 66.84C486.638 65.976 486.366 64.808 486.366 63.336C486.366 62.28 486.542 61.376 486.894 60.624C487.262 59.872 487.75 59.264 488.358 58.8C488.966 58.32 489.646 57.976 490.398 57.768C491.15 57.544 491.926 57.432 492.726 57.432C494.102 57.432 495.158 57.568 495.894 57.84C496.646 58.112 497.142 58.328 497.382 58.488L498.582 62.304L498.102 63.792H490.662C490.774 64.384 491.07 64.88 491.55 65.28C492.03 65.68 492.822 65.88 493.926 65.88C494.79 65.88 495.534 65.784 496.158 65.592C496.782 65.4 497.27 65.232 497.622 65.088V68.304C497.142 68.56 496.446 68.784 495.534 68.976C494.638 69.152 493.702 69.24 492.726 69.24ZM490.686 62.256L493.998 61.776L493.782 60.744C493.67 60.68 493.502 60.632 493.278 60.6C493.07 60.568 492.886 60.552 492.726 60.552C492.278 60.552 491.902 60.648 491.598 60.84C491.31 61.032 491.086 61.264 490.926 61.536C490.782 61.792 490.702 62.032 490.686 62.256Z" fill="#070707"/>
</g>
<g filter="url(#filter1_d_367_12)">
<path d="M586.576 69.24C585.488 69.24 584.432 69.12 583.408 68.88C582.384 68.624 581.456 68.176 580.624 67.536C579.808 66.896 579.16 66.008 578.68 64.872C578.2 63.736 577.96 62.28 577.96 60.504C577.96 58.856 578.2 57.472 578.68 56.352C579.16 55.232 579.8 54.336 580.6 53.664C581.4 52.992 582.272 52.512 583.216 52.224C584.176 51.92 585.136 51.768 586.096 51.768C586.912 51.768 587.704 51.832 588.472 51.96C589.256 52.088 589.824 52.232 590.176 52.392L592.84 54.576L590.68 58.056L586.576 55.944C585.44 55.944 584.48 56.32 583.696 57.072C582.912 57.808 582.52 58.952 582.52 60.504C582.52 61.608 582.712 62.504 583.096 63.192C583.496 63.88 584.04 64.384 584.728 64.704C585.416 65.024 586.2 65.184 587.08 65.184C588.008 65.184 588.8 65.112 589.456 64.968C590.112 64.808 590.688 64.624 591.184 64.416C591.68 64.192 592.152 63.976 592.6 63.768V67.8C592.04 68.152 591.296 68.48 590.368 68.784C589.44 69.088 588.176 69.24 586.576 69.24ZM600.408 69.24C598.456 69.24 596.944 68.776 595.872 67.848C594.8 66.92 594.264 65.416 594.264 63.336C594.264 61.24 594.8 59.736 595.872 58.824C596.944 57.896 598.456 57.432 600.408 57.432C602.408 57.432 603.92 57.896 604.944 58.824C605.984 59.736 606.504 61.24 606.504 63.336C606.504 65.416 605.984 66.92 604.944 67.848C603.92 68.776 602.408 69.24 600.408 69.24ZM600.408 66.12C601.064 66.12 601.52 65.88 601.776 65.4C602.032 64.904 602.16 64.216 602.16 63.336C602.16 62.44 602.032 61.752 601.776 61.272C601.52 60.792 601.064 60.552 600.408 60.552C599.736 60.552 599.264 60.792 598.992 61.272C598.736 61.752 598.608 62.44 598.608 63.336C598.608 64.216 598.736 64.904 598.992 65.4C599.264 65.88 599.736 66.12 600.408 66.12ZM608.534 69V61.776L608.054 59.136L608.798 57.672H612.374V58.704L612.59 58.848C612.766 58.688 613.006 58.504 613.31 58.296C613.63 58.072 614.014 57.872 614.462 57.696C614.91 57.52 615.414 57.432 615.974 57.432C617.414 57.432 618.494 57.84 619.214 58.656C619.934 59.472 620.294 60.616 620.294 62.088V65.136L620.798 67.536L620.294 69H615.974V62.712C615.974 62.104 615.838 61.64 615.566 61.32C615.31 60.984 614.902 60.816 614.342 60.816L612.854 61.272V69H608.534ZM627.792 69.24C626.624 69.24 625.592 69.12 624.696 68.88C623.8 68.64 623.104 68.392 622.608 68.136V64.8C623.264 65.088 623.936 65.312 624.624 65.472C625.328 65.632 625.96 65.744 626.52 65.808C627.08 65.856 627.48 65.88 627.72 65.88C627.992 65.88 628.184 65.84 628.296 65.76C628.408 65.664 628.464 65.552 628.464 65.424C628.464 65.248 628.32 65.104 628.032 64.992C627.744 64.864 627.2 64.704 626.4 64.512C625.744 64.352 625.104 64.152 624.48 63.912C623.872 63.656 623.368 63.304 622.968 62.856C622.584 62.408 622.392 61.808 622.392 61.056C622.392 60.128 622.608 59.4 623.04 58.872C623.472 58.344 624.088 57.976 624.888 57.768C625.688 57.544 626.624 57.432 627.696 57.432C628.304 57.432 628.872 57.464 629.4 57.528C629.928 57.592 630.304 57.64 630.528 57.672L632.76 59.112L631.68 61.68L627.48 60.768C626.968 60.768 626.712 60.936 626.712 61.272C626.712 61.624 627.08 61.888 627.816 62.064C628.392 62.192 628.984 62.336 629.592 62.496C630.2 62.64 630.752 62.832 631.248 63.072C631.76 63.312 632.168 63.632 632.472 64.032C632.792 64.432 632.952 64.96 632.952 65.616C632.952 66.832 632.512 67.744 631.632 68.352C630.768 68.944 629.488 69.24 627.792 69.24ZM637.272 56.976L634.224 53.904L637.272 50.856L640.32 53.904L637.272 56.976ZM635.112 69V61.056L634.608 59.136L635.088 57.672H639.432V69H635.112ZM647.16 69.24C646.056 69.24 645.056 69.056 644.16 68.688C643.28 68.32 642.576 67.704 642.048 66.84C641.536 65.976 641.28 64.808 641.28 63.336C641.28 61.848 641.56 60.68 642.12 59.832C642.68 58.968 643.408 58.352 644.304 57.984C645.2 57.616 646.152 57.432 647.16 57.432C648.04 57.432 648.792 57.464 649.416 57.528C650.056 57.592 650.48 57.648 650.688 57.696L652.56 59.808L650.64 62.424L647.88 60.792C646.504 60.792 645.816 61.64 645.816 63.336C645.816 64.216 646.024 64.864 646.44 65.28C646.856 65.68 647.496 65.88 648.36 65.88C649.224 65.88 650 65.76 650.688 65.52C651.376 65.28 651.912 65.056 652.296 64.848V68.304C651.8 68.56 651.144 68.784 650.328 68.976C649.528 69.152 648.472 69.24 647.16 69.24ZM660.483 69.24C659.251 69.24 658.155 69.056 657.195 68.688C656.235 68.32 655.483 67.704 654.939 66.84C654.395 65.976 654.123 64.808 654.123 63.336C654.123 62.28 654.299 61.376 654.651 60.624C655.019 59.872 655.507 59.264 656.115 58.8C656.723 58.32 657.403 57.976 658.155 57.768C658.907 57.544 659.683 57.432 660.483 57.432C661.859 57.432 662.915 57.568 663.651 57.84C664.403 58.112 664.899 58.328 665.139 58.488L666.339 62.304L665.859 63.792H658.419C658.531 64.384 658.827 64.88 659.307 65.28C659.787 65.68 660.579 65.88 661.683 65.88C662.547 65.88 663.291 65.784 663.915 65.592C664.539 65.4 665.027 65.232 665.379 65.088V68.304C664.899 68.56 664.203 68.784 663.291 68.976C662.395 69.152 661.459 69.24 660.483 69.24ZM658.443 62.256L661.755 61.776L661.539 60.744C661.427 60.68 661.259 60.632 661.035 60.6C660.827 60.568 660.643 60.552 660.483 60.552C660.035 60.552 659.659 60.648 659.355 60.84C659.067 61.032 658.843 61.264 658.683 61.536C658.539 61.792 658.459 62.032 658.443 62.256ZM668.346 69V61.776L667.866 59.136L668.61 57.672H672.186V58.704L672.402 58.848C672.578 58.688 672.818 58.504 673.122 58.296C673.442 58.072 673.826 57.872 674.274 57.696C674.722 57.52 675.226 57.432 675.786 57.432C677.226 57.432 678.306 57.84 679.026 58.656C679.746 59.472 680.106 60.616 680.106 62.088V65.136L680.61 67.536L680.106 69H675.786V62.712C675.786 62.104 675.65 61.64 675.378 61.32C675.122 60.984 674.714 60.816 674.154 60.816L672.666 61.272V69H668.346ZM687.076 69.24C685.988 69.24 685.116 68.92 684.46 68.28C683.804 67.64 683.476 66.832 683.476 65.856V60.624H681.724V58.344L683.236 57.168L684.94 54.192H687.772V57.672H691.132V60.792H687.772V65.928L691.132 65.904V68.52C691.132 68.52 690.94 68.584 690.556 68.712C690.188 68.824 689.7 68.936 689.092 69.048C688.484 69.176 687.812 69.24 687.076 69.24ZM695.444 56.976L692.396 53.904L695.444 50.856L698.492 53.904L695.444 56.976ZM693.284 69V61.056L692.78 59.136L693.26 57.672H697.604V69H693.284ZM699.332 69V66.84L705.044 60.768H699.356V57.648H710.612V59.904L706.82 64.512L705.38 65.88H706.1L711.044 65.4V69H699.332ZM711.771 69L712.923 64.944V61.896L714.699 61.176L717.819 52.032H724.035L727.899 62.784L729.747 66.192V69H725.499L724.299 65.16H717.315L716.283 69H711.771ZM718.899 61.464H722.979L721.155 55.968H720.651L718.899 61.464ZM733.827 69V55.848L729.027 56.088V52.008H743.067V56.088L738.147 55.848V65.16L738.411 67.56L738.147 69H733.827ZM748.585 69.24C747.353 69.24 746.257 69.056 745.297 68.688C744.337 68.32 743.585 67.704 743.041 66.84C742.497 65.976 742.225 64.808 742.225 63.336C742.225 62.28 742.401 61.376 742.753 60.624C743.121 59.872 743.609 59.264 744.217 58.8C744.825 58.32 745.505 57.976 746.257 57.768C747.009 57.544 747.785 57.432 748.585 57.432C749.961 57.432 751.017 57.568 751.753 57.84C752.505 58.112 753.001 58.328 753.241 58.488L754.441 62.304L753.961 63.792H746.521C746.633 64.384 746.929 64.88 747.409 65.28C747.889 65.68 748.681 65.88 749.785 65.88C750.649 65.88 751.393 65.784 752.017 65.592C752.641 65.4 753.129 65.232 753.481 65.088V68.304C753.001 68.56 752.305 68.784 751.393 68.976C750.497 69.152 749.561 69.24 748.585 69.24ZM746.545 62.256L749.857 61.776L749.641 60.744C749.529 60.68 749.361 60.632 749.137 60.6C748.929 60.568 748.745 60.552 748.585 60.552C748.137 60.552 747.761 60.648 747.457 60.84C747.169 61.032 746.945 61.264 746.785 61.536C746.641 61.792 746.561 62.032 746.545 62.256ZM756.472 69V61.488L755.968 59.088L756.472 57.648H759.736L760.216 58.2C760.216 58.2 760.328 58.136 760.552 58.008C760.776 57.864 761.088 57.728 761.488 57.6C761.904 57.472 762.384 57.408 762.928 57.408C763.248 57.408 763.568 57.432 763.888 57.48C764.208 57.528 764.456 57.592 764.632 57.672L766.192 58.992L764.632 62.064L761.464 60.744L760.744 60.984V69H756.472ZM767.652 69V61.488L767.148 59.088L767.652 57.648H770.916L771.396 58.2C771.396 58.2 771.508 58.136 771.732 58.008C771.956 57.864 772.268 57.728 772.668 57.6C773.084 57.472 773.564 57.408 774.108 57.408C774.428 57.408 774.748 57.432 775.068 57.48C775.388 57.528 775.636 57.592 775.812 57.672L777.372 58.992L775.812 62.064L772.644 60.744L771.924 60.984V69H767.652ZM781.201 69.24C780.513 69.24 779.873 69.144 779.281 68.952C778.705 68.744 778.241 68.392 777.889 67.896C777.537 67.4 777.361 66.712 777.361 65.832C777.361 65.032 777.561 64.368 777.961 63.84C778.361 63.312 778.905 62.92 779.593 62.664C780.281 62.408 781.057 62.28 781.921 62.28C782.753 62.28 783.377 62.376 783.793 62.568C784.209 62.744 784.569 62.928 784.873 63.12L785.041 62.976C785.041 62.496 785.001 62.096 784.921 61.776C784.841 61.456 784.657 61.216 784.369 61.056C784.081 60.88 783.633 60.792 783.025 60.792C782.433 60.792 781.801 60.848 781.129 60.96C780.473 61.056 779.865 61.184 779.305 61.344C778.761 61.488 778.353 61.632 778.081 61.776V58.176C778.577 58 779.281 57.84 780.193 57.696C781.121 57.536 782.257 57.456 783.601 57.456C785.041 57.456 786.177 57.64 787.009 58.008C787.857 58.36 788.465 58.88 788.833 59.568C789.201 60.24 789.385 61.048 789.385 61.992V65.184L789.865 67.608L789.385 69.024H785.281V67.848L785.041 67.728C784.913 67.856 784.689 68.04 784.369 68.28C784.049 68.52 783.625 68.744 783.097 68.952C782.569 69.144 781.937 69.24 781.201 69.24ZM783.241 66.096C783.673 66.096 784.041 66.056 784.345 65.976C784.665 65.896 784.897 65.824 785.041 65.76V65.304C785.041 65.096 784.889 64.896 784.585 64.704C784.297 64.512 783.841 64.416 783.217 64.416C782.353 64.416 781.921 64.72 781.921 65.328C781.921 65.584 782.017 65.776 782.209 65.904C782.401 66.032 782.745 66.096 783.241 66.096Z" fill="#070707"/>
</g>
<g filter="url(#filter2_d_367_12)">
<path d="M847.576 69.24C846.488 69.24 845.432 69.12 844.408 68.88C843.384 68.624 842.456 68.176 841.624 67.536C840.808 66.896 840.16 66.008 839.68 64.872C839.2 63.736 838.96 62.28 838.96 60.504C838.96 58.856 839.2 57.472 839.68 56.352C840.16 55.232 840.8 54.336 841.6 53.664C842.4 52.992 843.272 52.512 844.216 52.224C845.176 51.92 846.136 51.768 847.096 51.768C847.912 51.768 848.704 51.832 849.472 51.96C850.256 52.088 850.824 52.232 851.176 52.392L853.84 54.576L851.68 58.056L847.576 55.944C846.44 55.944 845.48 56.32 844.696 57.072C843.912 57.808 843.52 58.952 843.52 60.504C843.52 61.608 843.712 62.504 844.096 63.192C844.496 63.88 845.04 64.384 845.728 64.704C846.416 65.024 847.2 65.184 848.08 65.184C849.008 65.184 849.8 65.112 850.456 64.968C851.112 64.808 851.688 64.624 852.184 64.416C852.68 64.192 853.152 63.976 853.6 63.768V67.8C853.04 68.152 852.296 68.48 851.368 68.784C850.44 69.088 849.176 69.24 847.576 69.24ZM861.408 69.24C859.456 69.24 857.944 68.776 856.872 67.848C855.8 66.92 855.264 65.416 855.264 63.336C855.264 61.24 855.8 59.736 856.872 58.824C857.944 57.896 859.456 57.432 861.408 57.432C863.408 57.432 864.92 57.896 865.944 58.824C866.984 59.736 867.504 61.24 867.504 63.336C867.504 65.416 866.984 66.92 865.944 67.848C864.92 68.776 863.408 69.24 861.408 69.24ZM861.408 66.12C862.064 66.12 862.52 65.88 862.776 65.4C863.032 64.904 863.16 64.216 863.16 63.336C863.16 62.44 863.032 61.752 862.776 61.272C862.52 60.792 862.064 60.552 861.408 60.552C860.736 60.552 860.264 60.792 859.992 61.272C859.736 61.752 859.608 62.44 859.608 63.336C859.608 64.216 859.736 64.904 859.992 65.4C860.264 65.88 860.736 66.12 861.408 66.12ZM869.534 69V61.776L869.054 59.136L869.798 57.672H873.374V58.704L873.59 58.848C873.766 58.688 874.006 58.504 874.31 58.296C874.63 58.072 875.014 57.872 875.462 57.696C875.91 57.52 876.414 57.432 876.974 57.432C878.414 57.432 879.494 57.84 880.214 58.656C880.934 59.472 881.294 60.616 881.294 62.088V65.136L881.798 67.536L881.294 69H876.974V62.712C876.974 62.104 876.838 61.64 876.566 61.32C876.31 60.984 875.902 60.816 875.342 60.816L873.854 61.272V69H869.534ZM888.264 69.24C887.176 69.24 886.304 68.92 885.648 68.28C884.992 67.64 884.664 66.832 884.664 65.856V60.624H882.912V58.344L884.424 57.168L886.128 54.192H888.96V57.672H892.32V60.792H888.96V65.928L892.32 65.904V68.52C892.32 68.52 892.128 68.584 891.744 68.712C891.376 68.824 890.888 68.936 890.28 69.048C889.672 69.176 889 69.24 888.264 69.24ZM897.591 69.24C896.903 69.24 896.263 69.144 895.671 68.952C895.095 68.744 894.631 68.392 894.279 67.896C893.927 67.4 893.751 66.712 893.751 65.832C893.751 65.032 893.951 64.368 894.351 63.84C894.751 63.312 895.295 62.92 895.983 62.664C896.671 62.408 897.447 62.28 898.311 62.28C899.143 62.28 899.767 62.376 900.183 62.568C900.599 62.744 900.959 62.928 901.263 63.12L901.431 62.976C901.431 62.496 901.391 62.096 901.311 61.776C901.231 61.456 901.047 61.216 900.759 61.056C900.471 60.88 900.023 60.792 899.415 60.792C898.823 60.792 898.191 60.848 897.519 60.96C896.863 61.056 896.255 61.184 895.695 61.344C895.151 61.488 894.743 61.632 894.471 61.776V58.176C894.967 58 895.671 57.84 896.583 57.696C897.511 57.536 898.647 57.456 899.991 57.456C901.431 57.456 902.567 57.64 903.399 58.008C904.247 58.36 904.855 58.88 905.223 59.568C905.591 60.24 905.775 61.048 905.775 61.992V65.184L906.255 67.608L905.775 69.024H901.671V67.848L901.431 67.728C901.303 67.856 901.079 68.04 900.759 68.28C900.439 68.52 900.015 68.744 899.487 68.952C898.959 69.144 898.327 69.24 897.591 69.24ZM899.631 66.096C900.063 66.096 900.431 66.056 900.735 65.976C901.055 65.896 901.287 65.824 901.431 65.76V65.304C901.431 65.096 901.279 64.896 900.975 64.704C900.687 64.512 900.231 64.416 899.607 64.416C898.743 64.416 898.311 64.72 898.311 65.328C898.311 65.584 898.407 65.776 898.599 65.904C898.791 66.032 899.135 66.096 899.631 66.096ZM912.803 69.24C911.715 69.24 910.843 68.92 910.187 68.28C909.531 67.64 909.203 66.832 909.203 65.856V60.624H907.451V58.344L908.963 57.168L910.667 54.192H913.499V57.672H916.859V60.792H913.499V65.928L916.859 65.904V68.52C916.859 68.52 916.667 68.584 916.283 68.712C915.915 68.824 915.427 68.936 914.819 69.048C914.211 69.176 913.539 69.24 912.803 69.24ZM924.314 69.24C922.362 69.24 920.85 68.776 919.778 67.848C918.706 66.92 918.17 65.416 918.17 63.336C918.17 61.24 918.706 59.736 919.778 58.824C920.85 57.896 922.362 57.432 924.314 57.432C926.314 57.432 927.826 57.896 928.85 58.824C929.89 59.736 930.41 61.24 930.41 63.336C930.41 65.416 929.89 66.92 928.85 67.848C927.826 68.776 926.314 69.24 924.314 69.24ZM924.314 66.12C924.97 66.12 925.426 65.88 925.682 65.4C925.938 64.904 926.066 64.216 926.066 63.336C926.066 62.44 925.938 61.752 925.682 61.272C925.426 60.792 924.97 60.552 924.314 60.552C923.642 60.552 923.17 60.792 922.898 61.272C922.642 61.752 922.514 62.44 922.514 63.336C922.514 64.216 922.642 64.904 922.898 65.4C923.17 65.88 923.642 66.12 924.314 66.12Z" fill="#070707"/>
</g>
<path d="M162.381 89.746L162.163 89.4918V60.7459V32L162.9 32.1218L163.638 32.2436L163.722 60.812L163.806 89.3803L163.394 89.6844L162.982 89.9885L162.791 89.9942L162.6 90L162.381 89.746ZM106.368 84.377L105.867 83.7098L105.634 82.2026L105.401 80.6955L104.806 79.3384L104.211 77.9814L103.344 76.9737L102.478 75.966L101.263 75.2939L100.047 74.6218L96.839 74.3995L93.6306 74.1771L93.3203 73.6062L93.01 73.0354L93.0051 72.5588L93.0001 72.0823L93.7005 71.2677L94.4009 70.4532L97.7677 70.653L101.135 70.8529L102.883 71.9441L104.631 73.0354L105.963 74.5713L107.295 76.1072L108.178 78.6735L109.062 81.2399V82.2947V83.3496L108.551 84.1969L108.041 85.0441H107.455H106.869L106.368 84.377ZM113.703 84.7084L113.263 84.3843L112.795 81.1879L112.327 77.9914L111.323 75.5937L110.319 73.1961L108.625 71.1824L106.931 69.1688L104.8 67.9674L102.67 66.7661L100.539 66.3772L98.4085 65.9884L96.2193 65.9853L94.0302 65.9826L93.5151 65.3835L93 64.7844V64.1083V63.4321L93.5994 62.8012L94.1989 62.1703L96.9592 62.1769L99.7196 62.1835L102.014 62.7463L104.309 63.3091L106.319 64.4574L108.33 65.6058L110.672 68.128L113.015 70.6502L114.295 73.7489L115.574 76.8477L115.977 79.9655L116.379 83.0833L115.827 84.0637L115.274 85.0442L114.708 85.0384L114.142 85.0326L113.703 84.7084ZM120.915 84.7092L120.476 84.3858L120.151 81.1886L119.825 77.9915L118.996 75.1323L118.166 72.273L117.198 70.276L116.229 68.2789L113.613 65.1996L110.997 62.1202L107.981 60.4351L104.964 58.75L102.566 58.1727L100.168 57.5955H97.0993H94.0302L93.5151 56.9964L93 56.3974V55.7212V55.0451L93.5994 54.4141L94.1989 53.7832H97.5467H100.894L103.323 54.3665L105.751 54.9499L106.996 55.5271L108.242 56.1043L109.965 57.1223L111.688 58.1402L112.894 56.6956L114.101 55.2509L115.369 54.4981L116.638 53.7454L116.537 52.3641L116.437 50.9829L114.569 50.2611L112.701 49.5392L111.43 48.0616L110.16 46.5841L109.775 45.0881L109.389 43.5921V40.7581V37.924L109.783 37.4665L110.176 37.009H111.38H112.585L113.978 37.5809L115.372 38.1527H115.986H116.601V37.0681V35.9835L117.2 35.3526L117.799 34.7216H118.296H118.793L119.336 35.4188L119.878 36.116V37.1344V38.1527L120.452 38.147L121.026 38.1412L122.337 37.5918L123.648 37.0425L124.976 37.0257L126.303 37.009L126.696 37.4665L127.09 37.924L127.082 40.9929L127.075 44.0618L126.444 45.5867L125.814 47.1116L125.386 47.6975L124.959 48.2833L123.975 49.0727L122.992 49.8621L121.517 50.4248L120.042 50.9875V52.4694V53.9513L120.861 54.426L121.681 54.9006L123.253 56.4749L124.825 58.0491L126.582 57.0493L128.339 56.0494L130.746 55.0834L133.153 54.1174L137.507 53.8926L141.861 53.6679L142.67 54.1712L143.478 54.6745V55.504V56.3336L142.905 56.9193L142.331 57.5051L138.234 57.6854L134.137 57.8658L131.239 59.0485L128.342 60.2312L126.814 61.2648L125.286 62.2983L122.91 65.0505L120.534 67.8026L120.548 68.7034L120.563 69.6042L121.329 71.3076L122.095 73.0109L122.871 71.8867L123.648 70.7624L125.923 68.1248L128.198 65.4872L130.269 64.3955L132.339 63.3038L134.385 62.7426L136.431 62.1815L139.226 62.1759L142.022 62.1703L142.75 62.7637L143.479 63.3572V64.2753V65.1933L142.845 65.5879L142.211 65.9826H139.747H137.283L135.546 66.4039L133.809 66.8252L131.82 67.9154L129.83 69.0056L128.297 70.5754L126.763 72.1452L125.64 74.4964L124.516 76.8477L124 79.1901L123.484 81.5325V82.6892V83.846L122.969 84.4451L122.454 85.0441L121.903 85.0384L121.353 85.0326L120.915 84.7092ZM120.124 62.7672L121.517 61.0893V60.558V60.0268L120.83 59.1691L120.143 58.3114L119.286 57.9324L118.429 57.5533L117.617 57.7905L116.804 58.0276L115.883 58.7906L114.962 59.5537V60.3764V61.1991L116.355 62.7713L117.748 64.3434L118.239 64.3943L118.731 64.4452L120.124 62.7672ZM116.484 45.9612L116.675 45.3825L116.28 44.2733L115.885 43.164L115.32 42.5691L114.755 41.9742L113.665 41.7207L112.575 41.4673L112.799 42.9552L113.024 44.4432L113.998 45.4915L114.972 46.5399H115.633H116.293L116.484 45.9612ZM122.493 45.4915L123.48 44.4432L123.564 43.1091L123.648 41.775L122.956 41.6598L122.263 41.5447L121.259 42.5277L120.254 43.5107L120.042 44.6348L119.83 45.7589L120.037 46.1494L120.245 46.5399H120.876H121.507L122.493 45.4915ZM127.88 84.0929L127.344 83.1415L127.561 81.7102L127.777 80.2789L128.275 78.4846L128.772 76.6903L130.307 74.7895L131.843 72.8886L133.809 71.8365L135.776 70.7843L138.806 70.6255L141.836 70.4667L142.657 71.0928L143.479 71.7188V72.6496V73.5805L142.845 73.9752L142.211 74.3698H139.954H137.698L136.036 74.9437L134.374 75.5176L133.106 76.9929L131.838 78.4682L131.265 80.3266L130.692 82.185L130.693 83.0156L130.695 83.8461L130.179 84.4452L129.664 85.0443H129.04H128.415L127.88 84.0929ZM217.01 67.885L215.642 67.5573L214.682 66.9801L213.722 66.4029L212.708 65.0595L211.694 63.7162L211.35 62.2761L211.006 60.8361V59.5018V58.1675L211.364 56.6426L211.723 55.1176L212.557 53.8326L213.391 52.5475L215.166 51.6023L216.941 50.6571L219.626 50.7959L222.311 50.9348L223.616 51.6919L224.921 52.449L225.9 54.0851L226.88 55.7212L226.529 56.3725L226.177 57.0238L224.736 57.1297L223.294 57.2356L222.006 55.8907L220.717 54.5458L219.22 54.5543L217.722 54.5628L217.023 55.2214L216.324 55.8801L215.93 56.7722L215.537 57.6643L215.539 59.2502L215.542 60.8361L215.87 61.8345L216.199 62.8328L217.087 63.6453L217.975 64.4578H219.222H220.469L222.003 62.9139L223.537 61.3699L225.055 61.4842L226.573 61.5986L226.676 62.6401L226.78 63.6816L225.868 65.0717L224.956 66.4619L223.618 67.1291L222.28 67.7963L220.329 68.0044L218.379 68.2126L217.01 67.885ZM177.771 67.3969L177.227 66.934L177.316 59.1197L177.405 51.3052H182.649H187.894L189.423 52.1817L190.953 53.0582L191.516 54.0563L192.078 55.0543L192.112 56.5636L192.146 58.0729L190.871 59.3547L189.596 60.6364L190.961 62.8987L192.325 65.161L192.53 66.3538L192.735 67.5466L190.647 67.4317L188.56 67.3169L187.899 66.0657L187.238 64.8145L186.571 63.5877L185.904 62.3609L183.916 62.2489L181.927 62.1368L181.723 64.6858L181.518 67.2348L181.428 67.3175L181.338 67.4001L179.827 67.6299L178.315 67.8596L177.771 67.3969ZM186.419 58.0191L187.238 57.7562L187.336 56.602L187.435 55.4478L186.583 54.9967L185.732 54.5457H184.805H183.878L182.886 54.7765L181.894 55.0073L181.741 56.2061L181.589 57.4049L181.744 57.8814L181.9 58.358L183.75 58.32L185.599 58.2819L186.419 58.0191ZM229.989 67.4245L229.359 67.1509V59.7357V52.3206L229.557 51.7176L229.756 51.1146H233.923H238.09L239.773 51.6958L241.455 52.2771L242.501 53.3003L243.547 54.3235L244.148 55.8642L244.75 57.4049L244.757 59.4186L244.765 61.4323L244.323 62.6591L243.882 63.8858L242.691 65.2695L241.5 66.6532L240.592 66.9295L239.684 67.2059L235.152 67.452L230.621 67.6981L229.989 67.4245ZM238.312 63.6354L239.028 63.1943L239.602 62.4333L240.175 61.6724V59.3192V56.966L239.33 56.0417L238.485 55.1175H236.134H233.784L233.69 59.0947L233.596 63.0718L233.761 63.5741L233.927 64.0764H235.762H237.596L238.312 63.6354ZM247.616 67.5812L246.043 67.4642L246.256 66.6281L246.468 65.792L247.226 63.8858L247.983 61.9797L249.311 58.4698L250.639 54.96L251.484 53.0215L252.328 51.083L254.856 51.1941L257.384 51.3052L258.268 53.402L259.151 55.4987L261.347 61.3215L263.542 67.1443L263.328 67.3931L263.114 67.642L261.277 67.5858L259.441 67.5296L258.986 67.0907L258.531 66.6517V66.1538V65.6558L258.016 65.0568L257.501 64.4577H254.929H252.357L251.837 64.6898L251.317 64.9219L250.805 66.1769L250.293 67.4319L249.741 67.565L249.19 67.6981L247.616 67.5812ZM256.365 60.7133L256.531 60.4001L256.107 59.4489L255.683 58.4978L255.456 57.4495L255.23 56.4012L254.716 56.5218L254.202 56.6424L253.593 58.5128L252.984 60.3831L253.155 60.7048L253.325 61.0266H254.762H256.198L256.365 60.7133ZM282.371 67.5816L280.808 67.4651L280.896 59.3852L280.985 51.3052L287.334 51.2015L293.684 51.0978L294.152 51.5501L294.621 52.0024L294.522 53.3693L294.424 54.7363L289.949 54.8421L285.475 54.9479L285.152 55.414L284.83 55.88L285.11 56.7408L285.391 57.6017L288.126 57.3571L290.862 57.1126L291.596 57.5696L292.33 58.0266L292.23 59.4313L292.129 60.836L288.688 61.0266L285.246 61.2172L285.143 62.4562L285.04 63.6952L285.471 63.6975L285.901 63.6998L289.978 63.9093L294.054 64.1187L294.321 64.3105L294.588 64.5024V65.8261V67.1499L294.178 67.3131L293.768 67.4763L288.851 67.5871L283.935 67.6978L282.371 67.5816ZM309.563 67.5782L308.313 67.4584L307.433 65.7106L306.552 63.9627L305.896 63.071L305.241 62.1793L303.802 61.981L302.364 61.7827L301.918 62.2137L301.471 62.6447V64.473V66.3013L301.272 66.9043L301.073 67.5073H299.135H297.197L297.285 59.4062L297.374 51.305L301.928 51.1986L306.482 51.0921L308.197 51.6719L309.912 52.2516L310.794 53.5968L311.676 54.9419L311.862 56.2786L312.049 57.6154L310.678 59.1321L309.307 60.6488L310.098 61.886L310.888 63.1232L311.752 64.8722L312.616 66.6212V67.021V67.4208L311.714 67.5594L310.813 67.6979L309.563 67.5782ZM306.881 57.5938L307.475 56.8298L307.114 55.9084L306.753 54.987L305.014 54.76L303.274 54.533L302.618 54.7007L301.963 54.8684L301.717 54.8975L301.471 54.9269V56.3883V57.8496L301.69 58.1038L301.908 58.358H304.097H306.286L306.881 57.5938ZM316.713 67.5468L315.402 67.3167L315.309 60.0733L315.216 52.8299L315.397 51.9721L315.578 51.1144H320.267H324.955L326.406 51.7018L327.858 52.2892L328.547 52.9566L329.237 53.624L329.613 54.4409L329.988 55.2578V56.6611V58.0643L328.819 59.3103L327.649 60.5563L329.147 63.3548L330.644 66.1533V66.8303V67.5073H328.519H326.394L325.603 65.6928L324.813 63.8783L324.205 63.0048L323.596 62.1312L321.933 62.0871L320.269 62.043L319.884 62.3197L319.499 62.5963V65.0518V67.5073H319.198H318.897L318.461 67.6421L318.024 67.7768L316.713 67.5468ZM324.873 57.8624L325.456 57.3671L325.346 56.2422L325.236 55.1175H322.449H319.663L319.557 56.1981L319.45 57.2787L319.629 57.8183L319.807 58.3579H322.049H324.291L324.873 57.8624ZM195.344 59.4063L195.433 51.3052L202.062 51.202L208.692 51.0988L208.9 52.0598L209.107 53.0207L208.901 53.9738L208.696 54.9269H204.288H199.881L199.511 55.7303L199.142 56.5336L199.517 56.9693L199.891 57.4049H202.972H206.053L206.421 57.8329L206.789 58.261L206.683 59.5485L206.577 60.836L203.136 61.0266L199.694 61.2172L199.586 62.3195L199.478 63.4218L199.914 63.7411L200.35 64.0603L203.972 63.824L207.595 63.5876L208.316 64.036L209.036 64.4845V65.393V66.3014L208.837 66.9045L208.638 67.5075H201.947H195.256L195.344 59.4063ZM269.676 61.6451V55.7827L269.254 55.3751L268.831 54.9674L266.713 54.8518L264.595 54.7363L264.497 53.3693L264.398 52.0024L264.867 51.5504L265.335 51.0985L272.013 51.2018L278.69 51.3052V53.0207V54.7363L276.396 54.9269L274.101 55.1175L274.021 60.4547L273.942 65.792L273.769 66.6497L273.597 67.5075H271.637H269.676L269.676 61.6451ZM331.627 67.2123V66.9171L334.198 60.2548L336.769 53.5926L337.328 52.3378L337.886 51.0831L340.362 51.1942L342.839 51.3052L343.562 52.8301L344.285 54.355L344.737 55.6893L345.19 57.0236L346.237 59.6923L347.284 62.3609L348.142 64.7321L349 67.1033V67.3228V67.5423L346.791 67.4296L344.581 67.3169L344.152 66.2716L343.722 65.2262L343.165 64.8798L342.608 64.5334L341.297 64.5036L339.986 64.4737L338.408 64.6955L336.829 64.9173L336.298 66.2124L335.767 67.5075H333.697H331.627V67.2123ZM341.789 60.2432V59.4598L341.125 57.7652L340.461 56.0706H340.311H340.161L339.314 58.0153L338.466 59.9601L338.642 60.4933L338.818 61.0266H340.303H341.789V60.2432Z" fill="black"/>
<defs>
<filter id="filter0_d_367_12" x="429.2" y="51.7681" width="73.3813" height="25.4719" filterUnits="userSpaceOnUse" color-interpolation-filters="sRGB">
<feFlood flood-opacity="0" result="BackgroundImageFix"/>
<feColorMatrix in="SourceAlpha" type="matrix" values="0 0 0 0 0 0 0 0 0 0 0 0 0 0 0 0 0 0 127 0" result="hardAlpha"/>
<feOffset dy="4"/>
<feGaussianBlur stdDeviation="2"/>
<feComposite in2="hardAlpha" operator="out"/>
<feColorMatrix type="matrix" values="0 0 0 0 0 0 0 0 0 0 0 0 0 0 0 0 0 0 0.25 0"/>
<feBlend mode="normal" in2="BackgroundImageFix" result="effect1_dropShadow_367_12"/>
<feBlend mode="normal" in="SourceGraphic" in2="effect1_dropShadow_367_12" result="shape"/>
</filter>
<filter id="filter1_d_367_12" x="573.96" y="50.856" width="219.905" height="26.384" filterUnits="userSpaceOnUse" color-interpolation-filters="sRGB">
<feFlood flood-opacity="0" result="BackgroundImageFix"/>
<feColorMatrix in="SourceAlpha" type="matrix" values="0 0 0 0 0 0 0 0 0 0 0 0 0 0 0 0 0 0 127 0" result="hardAlpha"/>
<feOffset dy="4"/>
<feGaussianBlur stdDeviation="2"/>
<feComposite in2="hardAlpha" operator="out"/>
<feColorMatrix type="matrix" values="0 0 0 0 0 0 0 0 0 0 0 0 0 0 0 0 0 0 0.25 0"/>
<feBlend mode="normal" in2="BackgroundImageFix" result="effect1_dropShadow_367_12"/>
<feBlend mode="normal" in="SourceGraphic" in2="effect1_dropShadow_367_12" result="shape"/>
</filter>
<filter id="filter2_d_367_12" x="834.96" y="51.7681" width="99.4502" height="25.4719" filterUnits="userSpaceOnUse" color-interpolation-filters="sRGB">
<feFlood flood-opacity="0" result="BackgroundImageFix"/>
<feColorMatrix in="SourceAlpha" type="matrix" values="0 0 0 0 0 0 0 0 0 0 0 0 0 0 0 0 0 0 127 0" result="hardAlpha"/>
<feOffset dy="4"/>
<feGaussianBlur stdDeviation="2"/>
<feComposite in2="hardAlpha" operator="out"/>
<feColorMatrix type="matrix" values="0 0 0 0 0 0 0 0 0 0 0 0 0 0 0 0 0 0 0.25 0"/>
<feBlend mode="normal" in2="BackgroundImageFix" result="effect1_dropShadow_367_12"/>
<feBlend mode="normal" in="SourceGraphic" in2="effect1_dropShadow_367_12" result="shape"/>
</filter>
</defs>
</svg>
