<svg width="24" height="24" viewBox="0 0 24 24" fill="none" xmlns="http://www.w3.org/2000/svg">
<path d="M7.2 6C7.2 5.17031 7.73625 4.5 8.4 4.5C9.06375 4.5 9.6 5.17031 9.6 6V6.36563C9.6 7.66406 9.51 8.95781 9.33375 10.2328L6.16875 11.4188C4.64625 11.9906 3.60375 13.7438 3.60375 15.7313V19.1016C3.60375 20.9766 4.8225 22.5 6.3225 22.5C7.2975 22.5 8.1975 21.8484 8.68125 20.7891L9.2025 19.65C10.2075 17.4469 10.9462 15.0703 11.3925 12.5953L14.9325 11.2687L14.4638 13.0266C14.34 13.4859 14.4038 13.9875 14.6288 14.3766C14.8538 14.7656 15.2175 15 15.6038 15H20.4C21.0638 15 21.6 14.3297 21.6 13.5C21.6 12.6703 21.0638 12 20.4 12H17.265L17.94 9.47344C18.0825 8.94375 17.9738 8.35781 17.6625 7.95469C17.3513 7.55156 16.8862 7.40156 16.455 7.56094L11.865 9.28594C11.955 8.31563 12 7.34531 12 6.36563V6C12 3.51562 10.3875 1.5 8.4 1.5C6.4125 1.5 4.8 3.51562 4.8 6V7.5C4.8 8.32969 5.33625 9 6 9C6.66375 9 7.2 8.32969 7.2 7.5V6ZM6.855 14.2969L8.6925 13.6078C8.3025 15.1922 7.77375 16.7203 7.11375 18.1641L6.5925 19.3031C6.53625 19.425 6.43125 19.5047 6.315 19.5047C6.13875 19.5047 5.99625 19.3266 5.99625 19.1063V15.7313C5.99625 15.0703 6.345 14.4844 6.85125 14.2922L6.855 14.2969ZM0.9 17.25C0.40125 17.25 0 17.7516 0 18.375C0 18.9984 0.40125 19.5 0.9 19.5H2.41125C2.40375 19.3687 2.4 19.2375 2.4 19.1016V17.25H0.9ZM23.1 19.5C23.5988 19.5 24 18.9984 24 18.375C24 17.7516 23.5988 17.25 23.1 17.25H11.4713C11.22 18.0141 10.9388 18.7641 10.635 19.5H23.1Z" fill="#7A5448"/>
</svg>
