<svg width="40" height="40" viewBox="0 0 40 40" fill="none" xmlns="http://www.w3.org/2000/svg">
<g clip-path="url(#clip0_104_70)">
<path d="M31.0218 0H8.97818C4.01967 0 0 4.01967 0 8.97818V31.0218C0 35.9803 4.01967 40 8.97818 40H31.0218C35.9803 40 40 35.9803 40 31.0218V8.97818C40 4.01967 35.9803 0 31.0218 0Z" fill="url(#paint0_linear_104_70)"/>
<path d="M13.8552 6.92773H26.3249C26.602 7.06629 27.0177 7.06629 27.2948 7.20484C28.5108 7.40191 29.6477 7.9342 30.5778 8.74191C31.5078 9.54961 32.1942 10.6007 32.5598 11.7771C32.7644 12.455 32.9036 13.1509 32.9754 13.8553V26.0479C32.7773 27.5932 32.2068 29.0672 31.3128 30.343C30.5459 31.2316 29.5844 31.9314 28.503 32.3879C27.4217 32.8445 26.2496 33.0456 25.078 32.9755H14.6865C12.8321 33.0655 11.0087 32.4742 9.56011 31.3129C8.6792 30.5518 7.98403 29.5993 7.52776 28.5283C7.07149 27.4572 6.86621 26.296 6.92762 25.1335V15.4348C6.90473 14.7392 6.95115 14.043 7.06617 13.3566C7.20608 11.9361 7.79013 10.5959 8.7353 9.52634C9.68047 8.4568 10.9387 7.71236 12.3312 7.39881L13.8552 6.92773ZM9.56011 20.0902V25.4937C9.50104 26.1818 9.59309 26.8745 9.82983 27.5233C10.0666 28.1721 10.4423 28.7613 10.9306 29.2496C11.419 29.738 12.0082 30.1137 12.657 30.3504C13.3057 30.5872 13.9984 30.6792 14.6865 30.6201C18.2889 30.7587 21.8913 30.7587 25.4936 30.6201C28.6803 30.6201 30.4815 28.6804 30.62 25.4937C30.7586 21.8914 30.7586 18.289 30.62 14.6867C30.6559 14.004 30.5479 13.3214 30.303 12.6832C30.0581 12.0449 29.6817 11.4653 29.1983 10.9819C28.7149 10.4986 28.1353 10.1222 27.4971 9.87727C26.8589 9.63234 26.1763 9.52432 25.4936 9.56022C21.8913 9.42167 18.2889 9.42167 14.6865 9.56022C13.9984 9.50115 13.3057 9.5932 12.657 9.82994C12.0082 10.0667 11.419 10.4424 10.9306 10.9307C10.4423 11.4191 10.0666 12.0083 9.82983 12.6571C9.59309 13.3059 9.50104 13.9986 9.56011 14.6867V20.0902Z" fill="white"/>
<path d="M13.3564 20.1455C13.3601 18.3461 14.0766 16.6214 15.349 15.349C16.6214 14.0766 18.3461 13.3601 20.1455 13.3564C21.935 13.3919 23.6413 14.1185 24.9069 15.3841C26.1725 16.6497 26.8991 18.356 26.9346 20.1455C26.9309 21.9449 26.2144 23.6696 24.942 24.942C23.6696 26.2144 21.9449 26.9309 20.1455 26.9346C18.356 26.8991 16.6497 26.1725 15.3841 24.9069C14.1185 23.6413 13.3919 21.935 13.3564 20.1455ZM20.1455 15.8504C19.304 15.8367 18.4775 16.0746 17.7721 16.5336C17.0666 16.9927 16.5143 17.6519 16.1859 18.4268C15.8575 19.2017 15.768 20.0571 15.9288 20.8832C16.0897 21.7094 16.4935 22.4687 17.0887 23.0638C17.6838 23.6589 18.4431 24.0628 19.2692 24.2236C20.0954 24.3845 20.9507 24.2949 21.7256 23.9666C22.5006 23.6382 23.1598 23.0858 23.6188 22.3804C24.0778 21.6749 24.3158 20.8485 24.3021 20.0069C24.3021 18.9046 23.8641 17.8473 23.0846 17.0678C22.3051 16.2883 21.2479 15.8504 20.1455 15.8504Z" fill="white"/>
<path d="M25.4105 13.0796C25.4028 12.8592 25.4405 12.6395 25.5213 12.4343C25.6021 12.2291 25.7243 12.0427 25.8803 11.8868C26.0362 11.7308 26.2226 11.6086 26.4279 11.5278C26.6331 11.447 26.8527 11.4093 27.0732 11.417C27.5045 11.4462 27.9107 11.6307 28.2164 11.9364C28.5221 12.2421 28.7066 12.6483 28.7358 13.0796C28.7358 13.5206 28.5606 13.9435 28.2488 14.2553C27.937 14.5671 27.5141 14.7423 27.0732 14.7423C26.6322 14.7423 26.2093 14.5671 25.8975 14.2553C25.5857 13.9435 25.4105 13.5206 25.4105 13.0796Z" fill="white"/>
</g>
<defs>
<linearGradient id="paint0_linear_104_70" x1="-2.54936" y1="42.2168" x2="44.5584" y2="-4.19813" gradientUnits="userSpaceOnUse">
<stop stop-color="#FED576"/>
<stop offset="0.26" stop-color="#F47133"/>
<stop offset="0.61" stop-color="#BC3081"/>
<stop offset="1" stop-color="#4C63D2"/>
</linearGradient>
<clipPath id="clip0_104_70">
<rect width="40" height="40" fill="white"/>
</clipPath>
</defs>
</svg>
