<svg width="335" height="77" viewBox="0 0 335 77" fill="none" xmlns="http://www.w3.org/2000/svg">
<path d="M90.7917 76.6628L90.5058 76.3254V38.1627V0L91.4709 0.161732L92.436 0.323465L92.5459 38.2504L92.6558 76.1773L92.1169 76.581L91.578 76.9847L91.3278 76.9924L91.0775 77L90.7917 76.6628ZM17.4928 69.535L16.8372 68.6493L16.5326 66.6483L16.228 64.6474L15.4491 62.8458L14.6701 61.0442L13.5363 59.7065L12.4026 58.3687L10.8124 57.4764L9.22217 56.5841L5.02369 56.2889L0.825235 55.9938L0.419173 55.2359L0.0131355 54.478L0.00665432 53.8453L0.000173161 53.2127L0.916663 52.1313L1.83315 51.0499L6.23898 51.3152L10.6448 51.5806L12.9328 53.0293L15.2207 54.478L16.9635 56.517L18.7062 58.5561L19.8622 61.9631L21.0181 65.3701V66.7706V68.171L20.3504 69.2958L19.6826 70.4207H18.9156H18.1485L17.4928 69.535ZM27.0912 69.9749L26.5159 69.5447L25.9035 65.3011L25.2911 61.0575L23.9772 57.8744L22.6633 54.6913L20.4466 52.018L18.2298 49.3447L15.4417 47.7499L12.6536 46.155L9.86556 45.6387L7.07747 45.1225L4.21278 45.1185L1.34808 45.1148L0.67404 44.3195L0 43.5242V42.6265V41.7289L0.784418 40.8913L1.56884 40.0536L5.18102 40.0624L8.7932 40.0712L11.7958 40.8184L14.7983 41.5655L17.4297 43.0901L20.061 44.6146L23.1261 47.963L26.1912 51.3114L27.866 55.4253L29.5407 59.5392L30.0672 63.6783L30.5935 67.8175L29.8708 69.1191L29.1479 70.4207L28.4072 70.413L27.6665 70.4054L27.0912 69.9749ZM36.529 69.976L35.9549 69.5466L35.529 65.3021L35.1032 61.0577L34.0179 57.2618L32.9326 53.4659L31.6649 50.8147L30.3973 48.1634L26.9742 44.0753L23.5511 39.9871L19.6037 37.7501L15.6562 35.5129L12.5184 34.7466L9.38054 33.9802H5.36432H1.34808L0.67404 33.1849L0 32.3896V31.4919V30.5943L0.784418 29.7567L1.56884 28.9191H5.94975H10.3306L13.5081 29.6935L16.6856 30.4679L18.3156 31.2343L19.9456 32.0006L22.2002 33.352L24.4548 34.7034L26.0336 32.7855L27.6124 30.8676L29.2725 29.8682L30.9327 28.8689L30.8009 27.0351L30.6691 25.2014L28.2248 24.2431L25.7805 23.2848L24.118 21.3232L22.4556 19.3616L21.9513 17.3756L21.447 15.3895V11.6271V7.8646L21.9617 7.25727L22.4764 6.64992H24.0524H25.6285L27.4521 7.4091L29.2757 8.16828H30.0797H30.8836V6.72836V5.28846L31.668 4.45084L32.4524 3.61322H33.1028H33.7532L34.4631 4.53878L35.173 5.46433V6.8163V8.16828L35.9236 8.16063L36.6743 8.15297L38.39 7.42362L40.1058 6.6943L41.843 6.67208L43.5801 6.64987L44.0949 7.25721L44.6096 7.86456L44.5999 11.9388L44.5901 16.013L43.7652 18.0375L42.9403 20.062L42.3806 20.8397L41.8209 21.6175L40.5341 22.6655L39.2472 23.7135L37.317 24.4605L35.3868 25.2075V27.1748V29.1422L36.4592 29.7724L37.5315 30.4026L39.5886 32.4925L41.6457 34.5824L43.945 33.2551L46.2443 31.9277L49.3943 30.6452L52.5443 29.3627L58.242 29.0643L63.9397 28.766L64.9978 29.4341L66.0558 30.1023V31.2036V32.305L65.3052 33.0826L64.5545 33.8602L59.1928 34.0996L53.8311 34.3391L50.0399 35.9092L46.2488 37.4794L44.2493 38.8515L42.2498 40.2236L39.14 43.8773L36.0302 47.5311L36.0497 48.727L36.0691 49.9229L37.0713 52.1842L38.0734 54.4455L39.0893 52.953L40.1053 51.4604L43.0828 47.9588L46.0604 44.4572L48.7695 43.0078L51.4786 41.5584L54.1562 40.8135L56.8338 40.0686L60.4916 40.0611L64.1493 40.0536L65.1026 40.8415L66.056 41.6294V42.8482V44.067L65.2263 44.5909L64.3966 45.1148H61.1725H57.9484L55.6754 45.6741L53.4023 46.2334L50.799 47.6808L48.1957 49.1281L46.1891 51.2122L44.1826 53.2962L42.7122 56.4177L41.2419 59.5391L40.5663 62.6489L39.8908 65.7587V67.2943V68.83L39.2168 69.6253L38.5427 70.4207L37.8227 70.413L37.1027 70.4054L36.529 69.976ZM35.4946 40.8462L37.3175 38.6185V37.9133V37.208L36.4185 36.0693L35.5194 34.9306L34.3978 34.4274L33.2761 33.9243L32.2132 34.239L31.1503 34.5538L29.9445 35.5669L28.7388 36.5799V37.6721V38.7644L30.5618 40.8515L32.3848 42.9387L33.0282 43.0062L33.6716 43.0738L35.4946 40.8462ZM30.7313 18.5347L30.9812 17.7665L30.4642 16.2938L29.9472 14.8211L29.2076 14.0314L28.468 13.2416L27.0421 12.9051L25.6161 12.5686L25.9094 14.544L26.2026 16.5194L27.4775 17.9112L28.7523 19.303H29.6169H30.4815L30.7313 18.5347ZM38.5947 17.9112L39.8854 16.5194L39.9955 14.7483L40.1056 12.9772L39.1997 12.8243L38.2937 12.6714L36.9793 13.9764L35.6648 15.2814L35.387 16.7737L35.1093 18.2661L35.3808 18.7845L35.6524 19.303H36.4782H37.304L38.5947 17.9112ZM45.6436 69.1578L44.9422 67.8947L45.2258 65.9945L45.5094 64.0944L46.1601 61.7123L46.8107 59.3302L48.8199 56.8067L50.8291 54.2832L53.4027 52.8863L55.9763 51.4895L59.9414 51.2787L63.9064 51.0679L64.9814 51.899L66.0563 52.7301V53.9659V55.2017L65.2267 55.7256L64.397 56.2496H61.4441H58.4912L56.3168 57.0115L54.1424 57.7734L52.4825 59.732L50.8225 61.6906L50.073 64.1578L49.3235 66.625L49.3252 67.7276L49.3268 68.8302L48.6527 69.6255L47.9787 70.4208H47.1613H46.344L45.6436 69.1578ZM162.278 47.6404L160.488 47.2054L159.232 46.4391L157.976 45.6728L156.649 43.8894L155.322 42.1059L154.872 40.1942L154.422 38.2824V36.511V34.7396L154.891 32.7151L155.36 30.6906L156.451 28.9846L157.543 27.2786L159.866 26.0237L162.189 24.7689L165.702 24.9532L169.216 25.1376L170.923 26.1427L172.631 27.1478L173.913 29.3198L175.194 31.4919L174.735 32.3565L174.275 33.2212L172.389 33.3618L170.503 33.5024L168.816 31.7169L167.13 29.9314L165.17 29.9427L163.211 29.954L162.296 30.8285L161.381 31.7029L160.866 32.8872L160.351 34.0715L160.354 36.177L160.358 38.2824L160.788 39.6078L161.218 40.9332L162.38 42.0119L163.542 43.0906H165.174H166.806L168.813 41.0408L170.82 38.9911L172.807 39.1429L174.793 39.2947L174.928 40.6773L175.063 42.06L173.87 43.9055L172.677 45.7511L170.926 46.6369L169.175 47.5227L166.622 47.799L164.07 48.0753L162.278 47.6404ZM110.931 46.9924L110.218 46.3779L110.335 36.0037L110.451 25.6293H117.314H124.177L126.179 26.7929L128.181 27.9565L128.917 29.2816L129.653 30.6066L129.697 32.6103L129.742 34.614L128.074 36.3157L126.405 38.0174L128.191 41.0207L129.976 44.0241L130.245 45.6076L130.513 47.1911L127.781 47.0387L125.049 46.8862L124.184 45.2252L123.319 43.5641L122.447 41.9354L121.574 40.3067L118.972 40.158L116.37 40.0092L116.102 43.3933L115.834 46.7772L115.716 46.887L115.599 46.9967L113.621 47.3017L111.643 47.6068L110.931 46.9924ZM122.247 34.5425L123.319 34.1935L123.448 32.6612L123.577 31.1289L122.463 30.5301L121.349 29.9313H120.136H118.923L117.624 30.2377L116.326 30.5441L116.126 32.1357L115.926 33.7272L116.13 34.3598L116.334 34.9925L118.754 34.942L121.175 34.8916L122.247 34.5425ZM179.263 47.0291L178.438 46.6658V36.8216V26.9774L178.698 26.1768L178.959 25.3763H184.411H189.864L192.066 26.1479L194.268 26.9196L195.636 28.278L197.004 29.6364L197.792 31.6818L198.579 33.7272L198.589 36.4006L198.599 39.0739L198.021 40.7026L197.443 42.3312L195.885 44.1681L194.327 46.0051L193.138 46.372L191.95 46.7388L186.02 47.0656L180.09 47.3924L179.263 47.0291ZM190.155 41.9987L191.092 41.4131L191.842 40.4029L192.593 39.3926V36.2686V33.1445L191.486 31.9175L190.38 30.6905H187.304H184.229L184.106 35.9705L183.982 41.2505L184.199 41.9174L184.416 42.5842H186.817H189.218L190.155 41.9987ZM202.33 47.2371L200.271 47.0818L200.549 45.9718L200.827 44.8618L201.819 42.3312L202.81 39.8006L204.548 35.141L206.286 30.4813L207.391 27.9079L208.496 25.3344L211.804 25.4818L215.112 25.6293L216.268 28.413L217.425 31.1966L220.297 38.9268L223.17 46.657L222.89 46.9875L222.61 47.3179L220.207 47.2433L217.804 47.1687L217.208 46.5859L216.613 46.0031V45.3421V44.681L215.939 43.8857L215.265 43.0904H211.899H208.534L207.853 43.3985L207.173 43.7066L206.503 45.3728L205.832 47.039L205.111 47.2156L204.389 47.3924L202.33 47.2371ZM213.778 38.1194L213.996 37.7036L213.441 36.4408L212.885 35.1781L212.589 33.7864L212.293 32.3946L211.621 32.5548L210.948 32.715L210.151 35.198L209.353 37.681L209.577 38.1081L209.801 38.5353H211.681H213.56L213.778 38.1194ZM247.81 47.2377L245.764 47.083L245.88 36.3562L245.996 25.6293L254.304 25.4917L262.613 25.354L263.227 25.9544L263.84 26.5549L263.711 28.3696L263.582 30.1844L257.727 30.3249L251.872 30.4653L251.449 31.084L251.027 31.7027L251.394 32.8456L251.761 33.9884L255.341 33.6638L258.921 33.3391L259.881 33.9458L260.842 34.5526L260.711 36.4174L260.579 38.2823L256.076 38.5353L251.572 38.7884L251.437 40.4333L251.303 42.0781L251.866 42.0812L252.43 42.0842L257.764 42.3623L263.098 42.6404L263.447 42.895L263.796 43.1497V44.9071V46.6645L263.26 46.8812L262.724 47.0979L256.29 47.2449L249.856 47.3919L247.81 47.2377ZM283.393 47.2331L281.757 47.0741L280.605 44.7537L279.453 42.4333L278.595 41.2494L277.737 40.0656L275.855 39.8023L273.973 39.539L273.388 40.1112L272.804 40.6834V43.1107V45.5379L272.544 46.3385L272.283 47.139H269.747H267.211L267.327 36.384L267.442 25.629L273.402 25.4878L279.362 25.3465L281.605 26.1161L283.849 26.8858L285.004 28.6716L286.158 30.4574L286.402 32.232L286.646 34.0066L284.852 36.0202L283.058 38.0338L284.093 39.6762L285.127 41.3187L286.258 43.6407L287.388 45.9627V46.4934V47.0241L286.208 47.2081L285.029 47.3921L283.393 47.2331ZM279.883 33.9779L280.661 32.9636L280.189 31.7405L279.716 30.5173L277.44 30.2159L275.163 29.9145L274.305 30.1371L273.448 30.3597L273.126 30.3984L272.804 30.4374V32.3775V34.3176L273.09 34.655L273.376 34.9925H276.241H279.105L279.883 33.9779ZM292.75 47.1914L291.034 46.886L290.912 37.2697L290.79 27.6535L291.028 26.5147L291.265 25.376H297.4H303.535L305.434 26.1558L307.334 26.9357L308.236 27.8217L309.138 28.7077L309.63 29.7922L310.122 30.8767V32.7397V34.6026L308.591 36.2568L307.061 37.911L309.02 41.6262L310.979 45.3414V46.2402V47.139H308.199H305.418L304.383 44.7301L303.349 42.3213L302.553 41.1615L301.757 40.0017L299.58 39.9432L297.403 39.8847L296.899 40.252L296.396 40.6192V43.8791V47.139H296.002H295.608L295.037 47.3179L294.465 47.4968L292.75 47.1914ZM303.428 34.3346L304.19 33.677L304.046 32.1836L303.902 30.6905H300.256H296.61L296.471 32.125L296.332 33.5596L296.565 34.276L296.798 34.9924H299.732H302.666L303.428 34.3346ZM133.927 36.3843L134.043 25.6293L142.718 25.4923L151.394 25.3553L151.665 26.6311L151.937 27.9068L151.668 29.1721L151.399 30.4374H145.631H139.864L139.38 31.504L138.896 32.5705L139.387 33.1488L139.877 33.7271H143.909H147.94L148.422 34.2954L148.904 34.8637L148.765 36.573L148.627 38.2822L144.123 38.5353L139.619 38.7883L139.478 40.2518L139.336 41.7152L139.907 42.139L140.477 42.5629L145.218 42.2491L149.958 41.9353L150.901 42.5306L151.844 43.1259V44.332V45.5381L151.584 46.3387L151.323 47.1392H142.567H133.812L133.927 36.3843ZM231.197 39.3564V31.5736L230.645 31.0324L230.092 30.4913L227.32 30.3378L224.549 30.1843L224.42 28.3696L224.291 26.5549L224.904 25.9549L225.516 25.3549L234.255 25.4921L242.993 25.6293V27.9068V30.1844L239.99 30.4374L236.988 30.6905L236.884 37.7761L236.779 44.8618L236.554 46.0005L236.328 47.1393H233.763H231.197L231.197 39.3564ZM312.266 46.7473V46.3554L315.631 37.5107L318.995 28.666L319.726 27.0002L320.456 25.3345L323.697 25.4819L326.937 25.6293L327.884 27.6537L328.83 29.6782L329.422 31.4496L330.014 33.221L331.384 36.7638L332.754 40.3067L333.877 43.4546L335 46.6026V46.8941V47.1855L332.109 47.0358L329.217 46.8862L328.655 45.4985L328.093 44.1107L327.365 43.6508L326.636 43.1909L324.92 43.1513L323.204 43.1116L321.139 43.4061L319.073 43.7005L318.379 45.4199L317.684 47.1392H314.975H312.266V46.7473ZM325.563 37.4953V36.4553L324.695 34.2055L323.826 31.9557H323.63H323.433L322.324 34.5376L321.216 37.1194L321.446 37.8273L321.676 38.5353H323.62H325.563V37.4953Z" fill="#F2F2F2"/>
</svg>
