<svg width="256" height="58" viewBox="0 0 256 58" fill="none" xmlns="http://www.w3.org/2000/svg">
<path d="M69.3811 57.746L69.1626 57.4918V28.7459V0L69.9001 0.121824L70.6376 0.243649L70.7216 28.812L70.8056 57.3803L70.3938 57.6844L69.982 57.9885L69.7908 57.9942L69.5995 58L69.3811 57.746ZM13.3676 52.377L12.8666 51.7098L12.6339 50.2026L12.4011 48.6955L11.8058 47.3384L11.2106 45.9814L10.3442 44.9737L9.47778 43.966L8.26258 43.2939L7.04739 42.6218L3.839 42.3995L0.630627 42.1771L0.320323 41.6062L0.0100379 41.0354L0.00508509 40.5588L0.000132326 40.0823L0.700495 39.2677L1.40086 38.4532L4.7677 38.653L8.13454 38.8529L9.88294 39.9441L11.6313 41.0354L12.9631 42.5713L14.2949 44.1072L15.1782 46.6735L16.0616 49.2399V50.2947V51.3496L15.5513 52.1969L15.0411 53.0441H14.4549H13.8687L13.3676 52.377ZM20.7025 52.7084L20.2629 52.3843L19.7949 49.1879L19.327 45.9914L18.3229 43.5937L17.3188 41.1961L15.6248 39.1824L13.9309 37.1688L11.8002 35.9674L9.66965 34.7661L7.53906 34.3772L5.40846 33.9884L3.21932 33.9853L1.03018 33.9826L0.515088 33.3835L0 32.7844V32.1083V31.4321L0.599436 30.8012L1.19887 30.1703L3.95923 30.1769L6.71958 30.1835L9.01409 30.7463L11.3086 31.3091L13.3194 32.4574L15.3302 33.6058L17.6725 36.128L20.0148 38.6502L21.2946 41.7489L22.5744 44.8477L22.9767 47.9655L23.3789 51.0833L22.8266 52.0637L22.2743 53.0442L21.7082 53.0384L21.1421 53.0326L20.7025 52.7084ZM27.9147 52.7092L27.476 52.3857L27.1505 49.1886L26.8251 45.9915L25.9958 43.1323L25.1664 40.273L24.1977 38.276L23.229 36.2789L20.6131 33.1996L17.9973 30.1202L14.9807 28.4351L11.9642 26.75L9.56629 26.1727L7.16841 25.5955H4.0993H1.03018L0.515088 24.9964L0 24.3974V23.7212V23.0451L0.599436 22.4141L1.19887 21.7832H4.54668H7.89446L10.3226 22.3665L12.7508 22.9499L13.9964 23.5271L15.242 24.1043L16.9649 25.1223L18.6878 26.1402L19.8943 24.6956L21.1008 23.2509L22.3695 22.4981L23.6382 21.7454L23.5374 20.3641L23.4367 18.9829L21.5688 18.2611L19.7009 17.5392L18.4305 16.0616L17.1601 14.5841L16.7747 13.0881L16.3893 11.5921V8.75805V5.92399L16.7827 5.46651L17.176 5.00903H18.3804H19.5847L20.9783 5.58088L22.3719 6.15273H22.9862H23.6006V5.06811V3.98351L24.2 3.35258L24.7995 2.72164H25.2965H25.7935L26.336 3.41882L26.8785 4.11599V5.13436V6.15273L27.4521 6.14697L28.0257 6.1412L29.3368 5.59182L30.648 5.04246L31.9755 5.02573L33.303 5.00899L33.6964 5.46647L34.0897 5.92395L34.0823 8.99285L34.0748 12.0618L33.4444 13.5867L32.8141 15.1116L32.3863 15.6975L31.9586 16.2833L30.9753 17.0727L29.9919 17.8621L28.5169 18.4248L27.0419 18.9875V20.4694V21.9513L27.8613 22.426L28.6808 22.9006L30.2528 24.4749L31.8248 26.0491L33.5819 25.0493L35.339 24.0494L37.7461 23.0834L40.1533 22.1174L44.5073 21.8926L48.8614 21.6679L49.6699 22.1712L50.4785 22.6745V23.504V24.3336L49.9049 24.9193L49.3312 25.5051L45.2339 25.6854L41.1366 25.8658L38.2395 27.0485L35.3423 28.2312L33.8144 29.2648L32.2864 30.2983L29.91 33.0505L27.5335 35.8026L27.5484 36.7034L27.5633 37.6042L28.3291 39.3076L29.0949 41.0109L29.8712 39.8867L30.6476 38.7624L32.923 36.1248L35.1984 33.4872L37.2686 32.3955L39.3388 31.3038L41.385 30.7426L43.4312 30.1815L46.2264 30.1759L49.0216 30.1703L49.7501 30.7637L50.4786 31.3572V32.2752V33.1933L49.8446 33.5879L49.2106 33.9826H46.7468H44.283L42.5459 34.4039L40.8089 34.8252L38.8195 35.9154L36.8301 37.0056L35.2968 38.5754L33.7634 40.1452L32.6398 42.4964L31.5162 44.8477L30.9999 47.1901L30.4837 49.5325V50.6892V51.846L29.9686 52.4451L29.4535 53.0441L28.9033 53.0384L28.3531 53.0326L27.9147 52.7092ZM27.1242 30.7672L28.5173 29.0893V28.558V28.0268L27.8302 27.1691L27.1432 26.3114L26.286 25.9324L25.4289 25.5533L24.6166 25.7905L23.8044 26.0276L22.883 26.7906L21.9616 27.5537V28.3764V29.1991L23.3547 30.7713L24.7478 32.3434L25.2394 32.3943L25.7311 32.4452L27.1242 30.7672ZM23.4842 13.9612L23.6752 13.3825L23.2801 12.2733L22.885 11.164L22.3199 10.5691L21.7547 9.97421L20.665 9.72074L19.5753 9.46727L19.7994 10.9552L20.0235 12.4432L20.9977 13.4915L21.9719 14.5399H22.6326H23.2933L23.4842 13.9612ZM29.4933 13.4915L30.4796 12.4432L30.5637 11.1091L30.6479 9.77501L29.9556 9.65983L29.2632 9.54467L28.2588 10.5277L27.2543 11.5107L27.042 12.6348L26.8298 13.7589L27.0373 14.1494L27.2448 14.5399H27.8759H28.5069L29.4933 13.4915ZM34.8799 52.0929L34.3439 51.1415L34.5606 49.7102L34.7773 48.2789L35.2746 46.4846L35.7718 44.6903L37.3071 42.7895L38.8425 40.8886L40.8092 39.8365L42.7759 38.7843L45.8059 38.6255L48.836 38.4667L49.6574 39.0928L50.4789 39.7188V40.6496V41.5805L49.8448 41.9752L49.2108 42.3698H46.9543H44.6977L43.0361 42.9437L41.3745 43.5176L40.106 44.9929L38.8375 46.4682L38.2648 48.3266L37.692 50.185L37.6933 51.0156L37.6945 51.8461L37.1794 52.4452L36.6643 53.0443H36.0397H35.4151L34.8799 52.0929ZM124.01 35.885L122.642 35.5573L121.682 34.9801L120.722 34.4029L119.708 33.0595L118.694 31.7162L118.35 30.2761L118.006 28.8361V27.5018V26.1675L118.364 24.6426L118.723 23.1176L119.557 21.8326L120.391 20.5475L122.166 19.6023L123.941 18.6571L126.626 18.7959L129.311 18.9348L130.616 19.6919L131.921 20.449L132.9 22.0851L133.88 23.7212L133.529 24.3725L133.177 25.0238L131.736 25.1297L130.294 25.2356L129.006 23.8907L127.717 22.5458L126.22 22.5543L124.722 22.5628L124.023 23.2214L123.324 23.8801L122.93 24.7722L122.537 25.6643L122.539 27.2502L122.542 28.8361L122.87 29.8345L123.199 30.8328L124.087 31.6453L124.975 32.4578H126.222H127.469L129.003 30.9139L130.537 29.3699L132.055 29.4842L133.573 29.5986L133.676 30.6401L133.78 31.6816L132.868 33.0717L131.956 34.4619L130.618 35.1291L129.28 35.7963L127.329 36.0044L125.379 36.2126L124.01 35.885ZM84.7709 35.3969L84.2266 34.934L84.3156 27.1197L84.4045 19.3052H89.6491H94.8937L96.4235 20.1817L97.9533 21.0582L98.5156 22.0563L99.0779 23.0543L99.1119 24.5636L99.146 26.0729L97.8711 27.3547L96.5962 28.6364L97.9606 30.8987L99.3251 33.161L99.5302 34.3538L99.7353 35.5466L97.6474 35.4317L95.5596 35.3169L94.8989 34.0657L94.2382 32.8145L93.5712 31.5877L92.9043 30.3609L90.9158 30.2489L88.9272 30.1368L88.7225 32.6858L88.5179 35.2348L88.428 35.3175L88.338 35.4001L86.8266 35.6299L85.3151 35.8596L84.7709 35.3969ZM93.4187 26.0191L94.2382 25.7562L94.3364 24.602L94.4346 23.4478L93.5835 22.9967L92.7323 22.5457H91.8053H90.8784L89.8862 22.7765L88.894 23.0073L88.7413 24.2061L88.5886 25.4049L88.7442 25.8814L88.8999 26.358L90.7495 26.32L92.5992 26.2819L93.4187 26.0191ZM136.989 35.4245L136.359 35.1509V27.7358V20.3206L136.557 19.7176L136.756 19.1146H140.923H145.09L146.773 19.6958L148.455 20.2771L149.501 21.3003L150.547 22.3235L151.148 23.8642L151.75 25.4049L151.757 27.4186L151.765 29.4323L151.324 30.6591L150.882 31.8858L149.691 33.2695L148.5 34.6532L147.592 34.9295L146.684 35.2059L142.152 35.452L137.621 35.6981L136.989 35.4245ZM145.312 31.6354L146.028 31.1943L146.602 30.4333L147.175 29.6724V27.3192V24.966L146.33 24.0417L145.485 23.1175H143.134H140.784L140.69 27.0947L140.596 31.0718L140.761 31.5741L140.927 32.0764H142.762H144.596L145.312 31.6354ZM154.616 35.5812L153.043 35.4642L153.256 34.6281L153.468 33.792L154.226 31.8858L154.983 29.9797L156.311 26.4698L157.639 22.96L158.484 21.0215L159.328 19.083L161.856 19.1941L164.384 19.3052L165.268 21.402L166.151 23.4987L168.347 29.3215L170.542 35.1443L170.328 35.3931L170.114 35.642L168.277 35.5858L166.441 35.5296L165.986 35.0907L165.531 34.6517V34.1538V33.6558L165.016 33.0568L164.501 32.4577H161.929H159.357L158.837 32.6898L158.317 32.9219L157.805 34.1769L157.293 35.4319L156.741 35.565L156.189 35.6981L154.616 35.5812ZM163.365 28.7133L163.531 28.4001L163.107 27.4489L162.683 26.4978L162.456 25.4495L162.23 24.4012L161.716 24.5218L161.202 24.6424L160.593 26.5128L159.984 28.3831L160.155 28.7048L160.326 29.0266H161.762H163.198L163.365 28.7133ZM189.371 35.5816L187.808 35.4651L187.896 27.3852L187.985 19.3052L194.334 19.2015L200.684 19.0978L201.152 19.5501L201.621 20.0024L201.522 21.3693L201.424 22.7363L196.949 22.8421L192.475 22.9479L192.152 23.414L191.83 23.88L192.11 24.7408L192.391 25.6017L195.126 25.3571L197.862 25.1126L198.596 25.5696L199.33 26.0266L199.23 27.4313L199.129 28.836L195.688 29.0266L192.246 29.2172L192.143 30.4562L192.04 31.6952L192.471 31.6975L192.901 31.6998L196.978 31.9093L201.054 32.1187L201.321 32.3105L201.588 32.5024V33.8261V35.1499L201.178 35.3131L200.768 35.4763L195.851 35.5871L190.935 35.6978L189.371 35.5816ZM216.563 35.5782L215.313 35.4584L214.432 33.7106L213.552 31.9627L212.896 31.071L212.241 30.1793L210.802 29.981L209.364 29.7827L208.918 30.2137L208.471 30.6447V32.473V34.3013L208.272 34.9043L208.073 35.5073H206.135H204.197L204.285 27.4062L204.374 19.305L208.928 19.1986L213.482 19.0921L215.197 19.6719L216.912 20.2516L217.794 21.5968L218.676 22.9419L218.862 24.2786L219.049 25.6154L217.678 27.1321L216.307 28.6488L217.098 29.886L217.888 31.1232L218.752 32.8722L219.616 34.6212V35.021V35.4208L218.714 35.5594L217.813 35.6979L216.563 35.5782ZM213.881 25.5938L214.475 24.8298L214.114 23.9084L213.753 22.987L212.014 22.76L210.274 22.533L209.618 22.7007L208.963 22.8684L208.717 22.8975L208.471 22.9269V24.3883V25.8496L208.69 26.1038L208.908 26.358H211.097H213.286L213.881 25.5938ZM223.713 35.5468L222.402 35.3167L222.309 28.0733L222.216 20.8299L222.397 19.9721L222.578 19.1144H227.267H231.955L233.406 19.7018L234.858 20.2892L235.547 20.9566L236.237 21.624L236.613 22.4409L236.988 23.2578V24.6611V26.0643L235.819 27.3103L234.649 28.5563L236.147 31.3548L237.644 34.1533V34.8303V35.5073H235.519H233.394L232.603 33.6928L231.813 31.8783L231.205 31.0048L230.596 30.1312L228.933 30.0871L227.269 30.043L226.884 30.3197L226.499 30.5963V33.0518V35.5073H226.198H225.897L225.461 35.6421L225.024 35.7768L223.713 35.5468ZM231.873 25.8624L232.456 25.3671L232.346 24.2422L232.236 23.1175H229.449H226.663L226.557 24.1981L226.45 25.2787L226.629 25.8183L226.807 26.3579H229.049H231.291L231.873 25.8624ZM102.344 27.4063L102.433 19.3052L109.062 19.202L115.692 19.0988L115.9 20.0598L116.107 21.0207L115.901 21.9738L115.696 22.9269H111.288H106.881L106.511 23.7303L106.142 24.5336L106.517 24.9693L106.891 25.4049H109.972H113.053L113.421 25.8329L113.789 26.261L113.683 27.5485L113.577 28.836L110.136 29.0266L106.694 29.2172L106.586 30.3195L106.478 31.4218L106.914 31.7411L107.35 32.0603L110.972 31.824L114.595 31.5876L115.316 32.036L116.036 32.4845V33.393V34.3014L115.837 34.9045L115.638 35.5075H108.947H102.256L102.344 27.4063ZM176.676 29.6451V23.7827L176.254 23.3751L175.831 22.9674L173.713 22.8519L171.595 22.7363L171.497 21.3693L171.398 20.0024L171.867 19.5504L172.335 19.0985L179.013 19.2018L185.69 19.3052V21.0207V22.7363L183.396 22.9269L181.101 23.1175L181.021 28.4547L180.942 33.792L180.769 34.6497L180.597 35.5075H178.637H176.676L176.676 29.6451ZM238.627 35.2123V34.9171L241.198 28.2548L243.769 21.5926L244.328 20.3378L244.886 19.0831L247.362 19.1942L249.839 19.3052L250.562 20.8301L251.285 22.355L251.737 23.6893L252.19 25.0236L253.237 27.6923L254.284 30.3609L255.142 32.7321L256 35.1033V35.3228V35.5423L253.791 35.4296L251.581 35.3169L251.152 34.2716L250.722 33.2262L250.165 32.8798L249.608 32.5334L248.297 32.5036L246.986 32.4737L245.408 32.6955L243.829 32.9173L243.298 34.2124L242.767 35.5075H240.697H238.627V35.2123ZM248.789 28.2432V27.4598L248.125 25.7652L247.461 24.0706H247.311H247.161L246.314 26.0153L245.466 27.9601L245.642 28.4933L245.818 29.0266H247.303H248.789V28.2432Z" fill="black"/>
</svg>
