<svg width="1440" height="158" viewBox="0 0 1440 158" fill="none" xmlns="http://www.w3.org/2000/svg">
<rect width="1440" height="153" fill="#7ED957"/>
<rect width="1440" height="153" fill="#7ED957"/>
<g clip-path="url(#clip0_305_2)">
<path d="M787.934 30.2259C788.483 31.4317 789.223 32.4682 790.154 33.3354C791.085 34.2026 792.134 34.8092 793.3 35.155C794.467 35.5009 795.695 35.5871 796.985 35.4134C798.275 35.2397 799.591 34.7259 800.932 33.8719C801.801 33.3184 802.63 32.5617 803.418 31.6017C804.206 30.6417 804.957 29.4506 805.671 28.0282C806.385 26.6058 807.055 24.9388 807.683 23.0271C808.31 21.1155 808.885 18.9391 809.408 16.4981C807.496 15.7457 805.707 15.1571 804.04 14.7324C802.373 14.3076 800.836 14.0428 799.427 13.9379C798.018 13.8329 796.741 13.8946 795.595 14.1228C794.45 14.351 793.43 14.7498 792.537 15.3192C791.22 16.1573 790.148 17.143 789.318 18.2761C788.489 19.4093 787.878 20.6363 787.486 21.9572C787.076 23.342 786.91 24.7649 786.991 26.2258C787.071 27.6867 787.386 29.0201 787.934 30.2259ZM789.44 26.7784C789.309 26.0672 789.27 25.3661 789.324 24.6752C789.378 23.9842 789.506 23.2978 789.708 22.616C789.998 21.636 790.457 20.7174 791.084 19.8603C791.711 19.0031 792.533 18.2503 793.551 17.6019C793.998 17.3173 794.581 17.0671 795.3 16.8514C796.018 16.6357 796.906 16.5281 797.963 16.5287C799.021 16.5294 800.261 16.6596 801.684 16.9195C803.108 17.1794 804.757 17.6454 806.632 18.3174C806.36 19.3723 806.025 20.5536 805.627 21.8611C805.229 23.1686 804.754 24.4475 804.202 25.6976C803.65 26.9478 803.015 28.1039 802.297 29.1659C801.58 30.2279 800.786 31.0356 799.917 31.5891C798.8 32.3008 797.78 32.7169 796.858 32.8375C795.936 32.9581 795.095 32.9059 794.336 32.6808C793.244 32.3569 792.357 31.8331 791.675 31.1094C790.994 30.3857 790.54 29.7933 790.314 29.3323C792.061 28.8767 793.832 28.1157 795.629 27.0492C797.426 25.9827 799.05 24.5984 800.501 22.8964C798.88 24.0845 797.164 25.0302 795.354 25.7335C793.545 26.4369 791.573 26.7852 789.44 26.7784Z" fill="black" fill-opacity="0.5"/>
</g>
<g clip-path="url(#clip1_305_2)">
<path d="M1090.2 29.7996C1090.03 31.0383 1089.66 32.1447 1089.08 33.1187C1088.49 34.0928 1087.74 34.8357 1086.83 35.3475C1085.91 35.8592 1084.88 36.132 1083.72 36.1659C1082.57 36.1998 1081.3 35.9121 1079.93 35.3029C1079.04 34.9081 1078.14 34.3126 1077.22 33.5163C1076.29 32.7201 1075.35 31.6969 1074.37 30.4466C1073.4 29.1964 1072.4 27.7055 1071.37 25.9738C1070.35 24.2421 1069.31 22.249 1068.24 19.9945C1069.69 18.9782 1071.09 18.1377 1072.41 17.4729C1073.74 16.8082 1075 16.3164 1076.18 15.9976C1077.37 15.6787 1078.49 15.5397 1079.53 15.5805C1080.57 15.6213 1081.55 15.8448 1082.47 16.2509C1083.81 16.8488 1084.99 17.6255 1085.99 18.5811C1086.99 19.5366 1087.82 20.6159 1088.5 21.819C1089.2 23.0802 1089.7 24.416 1090 25.8262C1090.3 27.2364 1090.37 28.5608 1090.2 29.7996ZM1088.03 26.7346C1087.97 26.0338 1087.82 25.357 1087.6 24.7043C1087.38 24.0515 1087.1 23.4147 1086.75 22.7937C1086.25 21.9011 1085.62 21.0934 1084.87 20.3705C1084.11 19.6476 1083.21 19.0549 1082.17 18.5923C1081.71 18.3893 1081.15 18.2402 1080.48 18.1453C1079.8 18.0503 1079.01 18.0851 1078.1 18.2496C1077.19 18.4141 1076.15 18.731 1074.99 19.2003C1073.83 19.6697 1072.53 20.3712 1071.09 21.3049C1071.59 22.2719 1072.18 23.3501 1072.85 24.5394C1073.52 25.7287 1074.26 26.8786 1075.05 27.9892C1075.84 29.0997 1076.68 30.1074 1077.57 31.0121C1078.45 31.9169 1079.34 32.5667 1080.23 32.9615C1081.37 33.4692 1082.35 33.7092 1083.18 33.6817C1084 33.6542 1084.71 33.4739 1085.31 33.1408C1086.17 32.6616 1086.8 32.0229 1087.2 31.2248C1087.61 30.4268 1087.85 29.7897 1087.93 29.3136C1086.31 29.1485 1084.59 28.695 1082.77 27.9531C1080.96 27.2113 1079.21 26.1387 1077.53 24.7353C1079.22 25.6206 1080.94 26.2595 1082.68 26.6518C1084.41 27.0441 1086.2 27.0717 1088.03 26.7346Z" fill="black" fill-opacity="0.5"/>
</g>
<g clip-path="url(#clip2_305_2)">
<path d="M924.134 148.58C922.923 148.268 921.868 147.766 920.969 147.073C920.07 146.38 919.421 145.549 919.02 144.578C918.619 143.607 918.47 142.547 918.572 141.396C918.674 140.245 919.108 139.024 919.873 137.735C920.37 136.899 921.067 136.07 921.966 135.248C922.865 134.426 923.992 133.605 925.348 132.784C926.704 131.962 928.302 131.145 930.142 130.332C931.982 129.518 934.084 128.713 936.448 127.918C937.287 129.483 937.958 130.964 938.462 132.36C938.967 133.757 939.308 135.063 939.485 136.279C939.662 137.495 939.67 138.619 939.507 139.651C939.343 140.683 939.007 141.629 938.496 142.489C937.745 143.755 936.835 144.829 935.769 145.71C934.703 146.592 933.533 147.296 932.259 147.822C930.924 148.373 929.539 148.715 928.103 148.848C926.667 148.981 925.344 148.891 924.134 148.58ZM927.432 146.785C928.136 146.801 928.825 146.738 929.499 146.595C930.173 146.452 930.839 146.245 931.496 145.973C932.441 145.583 933.317 145.055 934.123 144.388C934.93 143.722 935.624 142.899 936.206 141.92C936.461 141.49 936.675 140.946 936.849 140.288C937.022 139.631 937.08 138.84 937.024 137.917C936.967 136.994 936.774 135.929 936.444 134.722C936.114 133.515 935.57 132.139 934.812 130.594C933.793 130.979 932.654 131.436 931.393 131.965C930.133 132.494 928.905 133.087 927.71 133.743C926.514 134.399 925.415 135.114 924.412 135.888C923.41 136.663 922.66 137.468 922.164 138.304C921.526 139.379 921.172 140.327 921.102 141.149C921.033 141.971 921.129 142.698 921.389 143.329C921.765 144.238 922.325 144.94 923.07 145.435C923.815 145.93 924.42 146.244 924.883 146.377C925.237 144.788 925.889 143.135 926.839 141.418C927.789 139.701 929.059 138.09 930.65 136.586C929.572 138.167 928.736 139.797 928.143 141.475C927.549 143.153 927.312 144.923 927.432 146.785Z" fill="black" fill-opacity="0.5"/>
</g>
<g clip-path="url(#clip3_305_2)">
<path d="M1089.2 138.8C1089.03 140.038 1088.66 141.145 1088.08 142.119C1087.49 143.093 1086.74 143.836 1085.83 144.347C1084.91 144.859 1083.88 145.132 1082.72 145.166C1081.57 145.2 1080.3 144.912 1078.93 144.303C1078.04 143.908 1077.14 143.313 1076.22 142.516C1075.29 141.72 1074.35 140.697 1073.37 139.447C1072.4 138.196 1071.4 136.705 1070.37 134.974C1069.35 133.242 1068.31 131.249 1067.24 128.994C1068.69 127.978 1070.09 127.138 1071.41 126.473C1072.74 125.808 1074 125.316 1075.18 124.998C1076.37 124.679 1077.49 124.54 1078.53 124.581C1079.57 124.621 1080.55 124.845 1081.47 125.251C1082.81 125.849 1083.99 126.626 1084.99 127.581C1085.99 128.537 1086.82 129.616 1087.5 130.819C1088.2 132.08 1088.7 133.416 1089 134.826C1089.3 136.236 1089.37 137.561 1089.2 138.8ZM1087.03 135.735C1086.97 135.034 1086.82 134.357 1086.6 133.704C1086.38 133.052 1086.1 132.415 1085.75 131.794C1085.25 130.901 1084.62 130.093 1083.87 129.37C1083.11 128.648 1082.21 128.055 1081.17 127.592C1080.71 127.389 1080.15 127.24 1079.48 127.145C1078.8 127.05 1078.01 127.085 1077.1 127.25C1076.19 127.414 1075.15 127.731 1073.99 128.2C1072.83 128.67 1071.53 129.371 1070.09 130.305C1070.59 131.272 1071.18 132.35 1071.85 133.539C1072.52 134.729 1073.26 135.879 1074.05 136.989C1074.84 138.1 1075.68 139.107 1076.57 140.012C1077.45 140.917 1078.34 141.567 1079.23 141.962C1080.37 142.469 1081.35 142.709 1082.18 142.682C1083 142.654 1083.71 142.474 1084.31 142.141C1085.17 141.662 1085.8 141.023 1086.2 140.225C1086.61 139.427 1086.85 138.79 1086.93 138.314C1085.31 138.148 1083.59 137.695 1081.77 136.953C1079.96 136.211 1078.21 135.139 1076.53 133.735C1078.22 134.621 1079.94 135.259 1081.68 135.652C1083.41 136.044 1085.2 136.072 1087.03 135.735Z" fill="black" fill-opacity="0.5"/>
<g clip-path="url(#clip4_305_2)">
<path d="M1089.2 158.8C1089.03 160.038 1088.66 161.145 1088.08 162.119C1087.49 163.093 1086.74 163.836 1085.83 164.347C1084.91 164.859 1083.88 165.132 1082.72 165.166C1081.57 165.2 1080.3 164.912 1078.93 164.303C1078.04 163.908 1077.14 163.313 1076.22 162.516C1075.29 161.72 1074.35 160.697 1073.37 159.447C1072.4 158.196 1071.4 156.705 1070.37 154.974C1069.35 153.242 1068.31 151.249 1067.24 148.994C1068.69 147.978 1070.09 147.138 1071.41 146.473C1072.74 145.808 1074 145.316 1075.18 144.998C1076.37 144.679 1077.49 144.54 1078.53 144.581C1079.57 144.621 1080.55 144.845 1081.47 145.251C1082.81 145.849 1083.99 146.626 1084.99 147.581C1085.99 148.537 1086.82 149.616 1087.5 150.819C1088.2 152.08 1088.7 153.416 1089 154.826C1089.3 156.236 1089.37 157.561 1089.2 158.8ZM1087.03 155.735C1086.97 155.034 1086.82 154.357 1086.6 153.704C1086.38 153.052 1086.1 152.415 1085.75 151.794C1085.25 150.901 1084.62 150.093 1083.87 149.37C1083.11 148.648 1082.21 148.055 1081.17 147.592C1080.71 147.389 1080.15 147.24 1079.48 147.145C1078.8 147.05 1078.01 147.085 1077.1 147.25C1076.19 147.414 1075.15 147.731 1073.99 148.2C1072.83 148.67 1071.53 149.371 1070.09 150.305C1070.59 151.272 1071.18 152.35 1071.85 153.539C1072.52 154.729 1073.26 155.879 1074.05 156.989C1074.84 158.1 1075.68 159.107 1076.57 160.012C1077.45 160.917 1078.34 161.567 1079.23 161.962C1080.37 162.469 1081.35 162.709 1082.18 162.682C1083 162.654 1083.71 162.474 1084.31 162.141C1085.17 161.662 1085.8 161.023 1086.2 160.225C1086.61 159.427 1086.85 158.79 1086.93 158.314C1085.31 158.148 1083.59 157.695 1081.77 156.953C1079.96 156.211 1078.21 155.139 1076.53 153.735C1078.22 154.621 1079.94 155.259 1081.68 155.652C1083.41 156.044 1085.2 156.072 1087.03 155.735Z" fill="black" fill-opacity="0.5"/>
</g>
</g>
<g clip-path="url(#clip5_305_2)">
<path d="M411.394 27.932C411.833 29.182 412.477 30.2804 413.327 31.2273C414.177 32.1742 415.168 32.8719 416.298 33.3206C417.429 33.7692 418.645 33.9646 419.945 33.9068C421.246 33.8491 422.602 33.4547 424.014 32.7238C424.929 32.2501 425.822 31.5704 426.693 30.6846C427.563 29.7989 428.418 28.6795 429.256 27.3265C430.094 25.9736 430.911 24.3731 431.706 22.5251C432.502 20.6771 433.269 18.5607 434.007 16.1761C432.17 15.256 430.44 14.51 428.818 13.9382C427.196 13.3664 425.688 12.9653 424.294 12.735C422.9 12.5047 421.623 12.4521 420.462 12.5772C419.301 12.7023 418.25 13.0084 417.308 13.4957C415.923 14.213 414.766 15.099 413.839 16.1535C412.912 17.2081 412.194 18.3757 411.686 19.6564C411.153 20.999 410.861 22.4014 410.811 23.8637C410.761 25.326 410.955 26.6821 411.394 27.932ZM413.201 24.6328C413.134 23.9127 413.158 23.2109 413.273 22.5275C413.389 21.8441 413.577 21.1719 413.84 20.5109C414.217 19.5607 414.755 18.6868 415.456 17.889C416.157 17.0912 417.043 16.4149 418.115 15.8599C418.586 15.6163 419.189 15.4192 419.924 15.2685C420.659 15.1178 421.553 15.0899 422.606 15.1849C423.659 15.2799 424.882 15.5204 426.277 15.9063C427.671 16.2923 429.273 16.9036 431.08 17.7404C430.715 18.7668 430.275 19.9134 429.762 21.1801C429.249 22.4469 428.662 23.6783 428.001 24.8742C427.339 26.0701 426.604 27.1649 425.794 28.1585C424.984 29.1522 424.122 29.8859 423.207 30.3596C422.03 30.9686 420.978 31.2921 420.049 31.3299C419.119 31.3677 418.287 31.2406 417.551 30.9487C416.492 30.5285 415.655 29.9276 415.041 29.146C414.427 28.3643 414.028 27.7338 413.844 27.2545C415.624 26.9567 417.456 26.3568 419.341 25.455C421.226 24.5531 422.967 23.3193 424.565 21.7537C422.844 22.7923 421.051 23.5811 419.185 24.12C417.32 24.659 415.325 24.8299 413.201 24.6328Z" fill="black" fill-opacity="0.5"/>
</g>
<g clip-path="url(#clip6_305_2)">
<path d="M409.394 137.932C409.833 139.182 410.477 140.28 411.327 141.227C412.177 142.174 413.168 142.872 414.298 143.321C415.429 143.769 416.645 143.965 417.945 143.907C419.246 143.849 420.602 143.455 422.014 142.724C422.929 142.25 423.822 141.57 424.693 140.685C425.563 139.799 426.418 138.68 427.256 137.327C428.094 135.974 428.911 134.373 429.706 132.525C430.502 130.677 431.269 128.561 432.007 126.176C430.17 125.256 428.44 124.51 426.818 123.938C425.196 123.366 423.688 122.965 422.294 122.735C420.9 122.505 419.623 122.452 418.462 122.577C417.301 122.702 416.25 123.008 415.308 123.496C413.923 124.213 412.766 125.099 411.839 126.154C410.912 127.208 410.194 128.376 409.686 129.656C409.153 130.999 408.861 132.401 408.811 133.864C408.761 135.326 408.955 136.682 409.394 137.932ZM411.201 134.633C411.134 133.913 411.158 133.211 411.273 132.528C411.389 131.844 411.577 131.172 411.84 130.511C412.217 129.561 412.755 128.687 413.456 127.889C414.157 127.091 415.043 126.415 416.115 125.86C416.586 125.616 417.189 125.419 417.924 125.268C418.659 125.118 419.553 125.09 420.606 125.185C421.659 125.28 422.882 125.52 424.277 125.906C425.671 126.292 427.273 126.904 429.08 127.74C428.715 128.767 428.275 129.913 427.762 131.18C427.249 132.447 426.662 133.678 426.001 134.874C425.339 136.07 424.604 137.165 423.794 138.159C422.984 139.152 422.122 139.886 421.207 140.36C420.03 140.969 418.978 141.292 418.049 141.33C417.119 141.368 416.287 141.241 415.551 140.949C414.492 140.529 413.655 139.928 413.041 139.146C412.427 138.364 412.028 137.734 411.844 137.255C413.624 136.957 415.456 136.357 417.341 135.455C419.226 134.553 420.967 133.319 422.565 131.754C420.844 132.792 419.051 133.581 417.185 134.12C415.32 134.659 413.325 134.83 411.201 134.633Z" fill="black" fill-opacity="0.5"/>
</g>
<g clip-path="url(#clip7_305_2)">
<path d="M233.394 142.932C233.833 144.182 234.477 145.28 235.327 146.227C236.177 147.174 237.168 147.872 238.298 148.321C239.429 148.769 240.645 148.965 241.945 148.907C243.246 148.849 244.602 148.455 246.014 147.724C246.929 147.25 247.822 146.57 248.693 145.685C249.563 144.799 250.418 143.68 251.256 142.327C252.094 140.974 252.911 139.373 253.706 137.525C254.502 135.677 255.269 133.561 256.007 131.176C254.17 130.256 252.44 129.51 250.818 128.938C249.196 128.366 247.688 127.965 246.294 127.735C244.9 127.505 243.623 127.452 242.462 127.577C241.301 127.702 240.25 128.008 239.308 128.496C237.923 129.213 236.766 130.099 235.839 131.154C234.912 132.208 234.194 133.376 233.686 134.656C233.153 135.999 232.861 137.401 232.811 138.864C232.761 140.326 232.955 141.682 233.394 142.932ZM235.201 139.633C235.134 138.913 235.158 138.211 235.273 137.528C235.389 136.844 235.577 136.172 235.84 135.511C236.217 134.561 236.755 133.687 237.456 132.889C238.157 132.091 239.043 131.415 240.115 130.86C240.586 130.616 241.189 130.419 241.924 130.268C242.659 130.118 243.553 130.09 244.606 130.185C245.659 130.28 246.882 130.52 248.277 130.906C249.671 131.292 251.273 131.904 253.08 132.74C252.715 133.767 252.275 134.913 251.762 136.18C251.249 137.447 250.662 138.678 250.001 139.874C249.339 141.07 248.604 142.165 247.794 143.159C246.984 144.152 246.122 144.886 245.207 145.36C244.03 145.969 242.978 146.292 242.049 146.33C241.119 146.368 240.287 146.241 239.551 145.949C238.492 145.529 237.655 144.928 237.041 144.146C236.427 143.364 236.028 142.734 235.844 142.255C237.624 141.957 239.456 141.357 241.341 140.455C243.226 139.553 244.967 138.319 246.565 136.754C244.844 137.792 243.051 138.581 241.185 139.12C239.32 139.659 237.325 139.83 235.201 139.633Z" fill="black" fill-opacity="0.5"/>
</g>
<g clip-path="url(#clip8_305_2)">
<path d="M229.394 29.932C229.833 31.182 230.477 32.2804 231.327 33.2273C232.177 34.1742 233.168 34.8719 234.298 35.3206C235.429 35.7692 236.645 35.9646 237.945 35.9068C239.246 35.8491 240.602 35.4547 242.014 34.7238C242.929 34.2501 243.822 33.5704 244.693 32.6846C245.563 31.7989 246.418 30.6795 247.256 29.3265C248.094 27.9736 248.911 26.3731 249.706 24.5251C250.502 22.6771 251.269 20.5607 252.007 18.1761C250.17 17.256 248.44 16.51 246.818 15.9382C245.196 15.3664 243.688 14.9653 242.294 14.735C240.9 14.5047 239.623 14.4521 238.462 14.5772C237.301 14.7023 236.25 15.0084 235.308 15.4957C233.923 16.213 232.766 17.099 231.839 18.1535C230.912 19.2081 230.194 20.3757 229.686 21.6564C229.153 22.999 228.861 24.4014 228.811 25.8637C228.761 27.326 228.955 28.6821 229.394 29.932ZM231.201 26.6328C231.134 25.9127 231.158 25.2109 231.273 24.5275C231.389 23.8441 231.577 23.1719 231.84 22.5109C232.217 21.5607 232.755 20.6868 233.456 19.889C234.157 19.0912 235.043 18.4149 236.115 17.8599C236.586 17.6163 237.189 17.4192 237.924 17.2685C238.659 17.1178 239.553 17.0899 240.606 17.1849C241.659 17.2799 242.882 17.5204 244.277 17.9063C245.671 18.2923 247.273 18.9036 249.08 19.7404C248.715 20.7668 248.275 21.9134 247.762 23.1801C247.249 24.4469 246.662 25.6783 246.001 26.8742C245.339 28.0701 244.604 29.1649 243.794 30.1585C242.984 31.1522 242.122 31.8859 241.207 32.3596C240.03 32.9686 238.978 33.2921 238.049 33.3299C237.119 33.3677 236.287 33.2406 235.551 32.9487C234.492 32.5285 233.655 31.9276 233.041 31.146C232.427 30.3643 232.028 29.7338 231.844 29.2545C233.624 28.9567 235.456 28.3568 237.341 27.455C239.226 26.5531 240.967 25.3193 242.565 23.7537C240.844 24.7923 239.051 25.5811 237.185 26.12C235.32 26.659 233.325 26.8299 231.201 26.6328Z" fill="black" fill-opacity="0.5"/>
</g>
<g clip-path="url(#clip9_305_2)">
<g clip-path="url(#clip10_305_2)">
<path d="M937.202 29.7996C937.034 31.0383 936.659 32.1447 936.077 33.1187C935.494 34.0928 934.745 34.8357 933.828 35.3475C932.911 35.8592 931.875 36.132 930.72 36.1659C929.565 36.1998 928.302 35.9121 926.932 35.3029C926.043 34.9081 925.138 34.3126 924.217 33.5163C923.295 32.7201 922.347 31.6969 921.372 30.4466C920.398 29.1964 919.398 27.7055 918.375 25.9738C917.351 24.2421 916.305 22.249 915.238 19.9945C916.694 18.9782 918.085 18.1377 919.413 17.4729C920.741 16.8082 921.998 16.3164 923.185 15.9976C924.372 15.6787 925.487 15.5397 926.531 15.5805C927.575 15.6213 928.554 15.8448 929.468 16.2509C930.813 16.8488 931.986 17.6255 932.987 18.5811C933.988 19.5366 934.824 20.6159 935.496 21.819C936.2 23.0802 936.702 24.416 937.002 25.8262C937.303 27.2364 937.369 28.5608 937.202 29.7996ZM935.033 26.7346C934.966 26.0338 934.822 25.357 934.601 24.7043C934.38 24.0515 934.096 23.4147 933.749 22.7937C933.251 21.9011 932.624 21.0934 931.867 20.3705C931.111 19.6476 930.212 19.0549 929.171 18.5923C928.714 18.3893 928.149 18.2402 927.476 18.1453C926.802 18.0503 926.011 18.0851 925.1 18.2496C924.19 18.4141 923.155 18.731 921.995 19.2003C920.835 19.6697 919.532 20.3712 918.088 21.3049C918.589 22.2719 919.177 23.3501 919.85 24.5394C920.523 25.7287 921.256 26.8786 922.048 27.9892C922.839 29.0997 923.679 30.1074 924.565 31.0121C925.452 31.9169 926.34 32.5667 927.228 32.9615C928.37 33.4692 929.354 33.7092 930.178 33.6817C931.003 33.6542 931.713 33.4739 932.31 33.1408C933.168 32.6616 933.8 32.0229 934.204 31.2248C934.608 30.4268 934.848 29.7897 934.926 29.3136C933.307 29.1485 931.589 28.695 929.772 27.9531C927.955 27.2113 926.206 26.1387 924.526 24.7353C926.223 25.6206 927.939 26.2595 929.676 26.6518C931.412 27.0441 933.198 27.0717 935.033 26.7346Z" fill="black" fill-opacity="0.5"/>
</g>
</g>
<defs>
<clipPath id="clip0_305_2">
<rect width="32" height="27.8064" fill="white" transform="matrix(0.284327 -0.958727 -0.958727 -0.284327 807.659 43.5854)"/>
</clipPath>
<clipPath id="clip1_305_2">
<rect width="32" height="24" fill="white" transform="translate(1076.6 45.6392) rotate(-119.169)"/>
</clipPath>
<clipPath id="clip2_305_2">
<rect width="32" height="24" fill="white" transform="translate(910 133.21) rotate(-22.43)"/>
</clipPath>
<clipPath id="clip3_305_2">
<rect width="32" height="24" fill="white" transform="translate(1075.6 154.639) rotate(-119.169)"/>
</clipPath>
<clipPath id="clip4_305_2">
<rect width="32" height="24" fill="white" transform="translate(1075.6 174.639) rotate(-119.169)"/>
</clipPath>
<clipPath id="clip5_305_2">
<rect width="32" height="27.8064" fill="white" transform="matrix(0.368782 -0.929516 -0.929516 -0.368782 429.847 42.999)"/>
</clipPath>
<clipPath id="clip6_305_2">
<rect width="32" height="27.8064" fill="white" transform="matrix(0.368782 -0.929516 -0.929516 -0.368782 427.847 152.999)"/>
</clipPath>
<clipPath id="clip7_305_2">
<rect width="32" height="27.8064" fill="white" transform="matrix(0.368782 -0.929516 -0.929516 -0.368782 251.847 157.999)"/>
</clipPath>
<clipPath id="clip8_305_2">
<rect width="32" height="27.8064" fill="white" transform="matrix(0.368782 -0.929516 -0.929516 -0.368782 247.847 44.999)"/>
</clipPath>
<clipPath id="clip9_305_2">
<rect width="32" height="24" fill="white" transform="translate(926.596 45.6392) rotate(-119.169)"/>
</clipPath>
<clipPath id="clip10_305_2">
<rect width="32" height="24" fill="white" transform="translate(923.596 45.6392) rotate(-119.169)"/>
</clipPath>
</defs>
</svg>
