<svg width="1438" height="154" viewBox="0 0 1438 154" fill="none" xmlns="http://www.w3.org/2000/svg">
<rect x="-2" y="1" width="1440" height="153" fill="#7ED957"/>
<g clip-path="url(#clip0_149_3)">
<path d="M959.935 41.2259C960.483 42.4317 961.223 43.4682 962.154 44.3354C963.086 45.2026 964.134 45.8092 965.301 46.155C966.467 46.5009 967.695 46.5871 968.985 46.4134C970.276 46.2397 971.591 45.7259 972.932 44.8719C973.801 44.3184 974.63 43.5617 975.418 42.6017C976.206 41.6417 976.957 40.4506 977.671 39.0282C978.385 37.6058 979.056 35.9388 979.683 34.0271C980.31 32.1155 980.885 29.9391 981.408 27.4981C979.496 26.7457 977.707 26.1571 976.04 25.7324C974.374 25.3076 972.836 25.0428 971.427 24.9379C970.018 24.8329 968.741 24.8946 967.596 25.1228C966.45 25.351 965.431 25.7498 964.537 26.3192C963.221 27.1573 962.148 28.143 961.318 29.2761C960.489 30.4093 959.878 31.6363 959.487 32.9572C959.076 34.342 958.911 35.7649 958.991 37.2258C959.071 38.6867 959.386 40.0201 959.935 41.2259ZM961.44 37.7784C961.309 37.0672 961.27 36.3661 961.324 35.6752C961.378 34.9842 961.506 34.2978 961.708 33.616C961.999 32.636 962.457 31.7174 963.084 30.8603C963.711 30.0031 964.534 29.2503 965.552 28.6019C965.999 28.3173 966.581 28.0671 967.3 27.8514C968.018 27.6357 968.906 27.5281 969.964 27.5287C971.021 27.5294 972.261 27.6596 973.685 27.9195C975.108 28.1794 976.757 28.6454 978.633 29.3174C978.36 30.3723 978.025 31.5536 977.627 32.8611C977.229 34.1686 976.754 35.4475 976.202 36.6976C975.65 37.9478 975.015 39.1039 974.298 40.1659C973.58 41.2279 972.786 42.0356 971.917 42.5891C970.8 43.3008 969.78 43.7169 968.858 43.8375C967.936 43.9581 967.096 43.9059 966.337 43.6808C965.244 43.3569 964.357 42.8331 963.676 42.1094C962.994 41.3857 962.54 40.7933 962.314 40.3323C964.061 39.8767 965.832 39.1157 967.629 38.0492C969.426 36.9827 971.05 35.5984 972.501 33.8964C970.88 35.0845 969.164 36.0302 967.355 36.7335C965.545 37.4369 963.573 37.7852 961.44 37.7784Z" fill="black" fill-opacity="0.5"/>
</g>
<g clip-path="url(#clip1_149_3)">
<path d="M1220.2 23.7996C1220.03 25.0383 1219.66 26.1447 1219.08 27.1187C1218.49 28.0928 1217.74 28.8357 1216.83 29.3475C1215.91 29.8592 1214.87 30.132 1213.72 30.1659C1212.57 30.1998 1211.3 29.9121 1209.93 29.3029C1209.04 28.9081 1208.14 28.3126 1207.22 27.5163C1206.29 26.7201 1205.35 25.6969 1204.37 24.4466C1203.4 23.1964 1202.4 21.7055 1201.37 19.9738C1200.35 18.2421 1199.3 16.249 1198.24 13.9945C1199.69 12.9782 1201.09 12.1377 1202.41 11.4729C1203.74 10.8082 1205 10.3164 1206.18 9.99756C1207.37 9.67872 1208.49 9.5397 1209.53 9.58052C1210.57 9.62134 1211.55 9.84481 1212.47 10.2509C1213.81 10.8488 1214.99 11.6255 1215.99 12.5811C1216.99 13.5366 1217.82 14.6159 1218.5 15.819C1219.2 17.0802 1219.7 18.416 1220 19.8262C1220.3 21.2364 1220.37 22.5608 1220.2 23.7996ZM1218.03 20.7346C1217.97 20.0338 1217.82 19.357 1217.6 18.7043C1217.38 18.0515 1217.1 17.4147 1216.75 16.7937C1216.25 15.9011 1215.62 15.0934 1214.87 14.3705C1214.11 13.6476 1213.21 13.0549 1212.17 12.5923C1211.71 12.3893 1211.15 12.2402 1210.48 12.1453C1209.8 12.0503 1209.01 12.0851 1208.1 12.2496C1207.19 12.4141 1206.15 12.731 1204.99 13.2003C1203.83 13.6697 1202.53 14.3712 1201.09 15.3049C1201.59 16.2719 1202.18 17.3501 1202.85 18.5394C1203.52 19.7287 1204.26 20.8786 1205.05 21.9892C1205.84 23.0997 1206.68 24.1074 1207.57 25.0121C1208.45 25.9169 1209.34 26.5667 1210.23 26.9615C1211.37 27.4692 1212.35 27.7092 1213.18 27.6817C1214 27.6542 1214.71 27.4739 1215.31 27.1408C1216.17 26.6616 1216.8 26.0229 1217.2 25.2248C1217.61 24.4268 1217.85 23.7897 1217.93 23.3136C1216.31 23.1485 1214.59 22.695 1212.77 21.9531C1210.96 21.2113 1209.21 20.1387 1207.53 18.7353C1209.22 19.6206 1210.94 20.2595 1212.68 20.6518C1214.41 21.0441 1216.2 21.0717 1218.03 20.7346Z" fill="black" fill-opacity="0.5"/>
</g>
<g clip-path="url(#clip2_149_3)">
<path d="M744.134 42.5798C742.923 42.2681 741.869 41.7658 740.97 41.0731C740.071 40.3804 739.421 39.5487 739.02 38.5782C738.619 37.6076 738.47 36.5468 738.572 35.3959C738.674 34.2449 739.108 33.0246 739.874 31.7348C740.37 30.8988 741.068 30.07 741.966 29.2481C742.865 28.4263 743.993 27.6048 745.349 26.7837C746.705 25.9625 748.303 25.1452 750.142 24.3316C751.982 23.5181 754.084 22.7135 756.449 21.9179C757.287 23.4831 757.958 24.9639 758.463 26.3605C758.967 27.757 759.308 29.0633 759.485 30.2793C759.663 31.4953 759.67 32.6192 759.507 33.6512C759.344 34.6831 759.007 35.629 758.496 36.4889C757.745 37.7548 756.836 38.8287 755.769 39.7106C754.703 40.5926 753.533 41.2964 752.259 41.8221C750.924 42.3732 749.539 42.7152 748.103 42.848C746.667 42.9809 745.344 42.8915 744.134 42.5798ZM747.432 40.7856C748.136 40.8016 748.825 40.738 749.499 40.595C750.173 40.4519 750.839 40.2447 751.496 39.9734C752.441 39.5833 753.317 39.055 754.124 38.3885C754.93 37.7219 755.624 36.899 756.206 35.9197C756.461 35.4898 756.676 34.9461 756.849 34.2885C757.022 33.631 757.081 32.8406 757.024 31.9173C756.967 30.994 756.774 29.9288 756.444 28.7218C756.114 27.5147 755.57 26.1389 754.813 24.5945C753.793 24.9792 752.654 25.4361 751.394 25.9653C750.134 26.4944 748.906 27.0869 747.71 27.7428C746.514 28.3987 745.415 29.1138 744.412 29.8883C743.41 30.6628 742.66 31.468 742.164 32.3039C741.526 33.3788 741.172 34.3272 741.103 35.1492C741.033 35.9712 741.129 36.698 741.39 37.3296C741.765 38.2385 742.325 38.9404 743.07 39.4352C743.815 39.93 744.42 40.2439 744.883 40.3771C745.237 38.7885 745.889 37.1355 746.839 35.4182C747.789 33.7008 749.06 32.09 750.651 30.5859C749.572 32.167 748.736 33.7967 748.143 35.4751C747.55 37.1534 747.313 38.9236 747.432 40.7856Z" fill="black" fill-opacity="0.5"/>
</g>
<g clip-path="url(#clip3_149_3)">
<path d="M1075.2 114.8C1075.03 116.038 1074.66 117.145 1074.08 118.119C1073.49 119.093 1072.74 119.836 1071.83 120.347C1070.91 120.859 1069.87 121.132 1068.72 121.166C1067.57 121.2 1066.3 120.912 1064.93 120.303C1064.04 119.908 1063.14 119.313 1062.22 118.516C1061.29 117.72 1060.35 116.697 1059.37 115.447C1058.4 114.196 1057.4 112.705 1056.37 110.974C1055.35 109.242 1054.3 107.249 1053.24 104.994C1054.69 103.978 1056.09 103.138 1057.41 102.473C1058.74 101.808 1060 101.316 1061.18 100.998C1062.37 100.679 1063.49 100.54 1064.53 100.581C1065.57 100.621 1066.55 100.845 1067.47 101.251C1068.81 101.849 1069.99 102.626 1070.99 103.581C1071.99 104.537 1072.82 105.616 1073.5 106.819C1074.2 108.08 1074.7 109.416 1075 110.826C1075.3 112.236 1075.37 113.561 1075.2 114.8ZM1073.03 111.735C1072.97 111.034 1072.82 110.357 1072.6 109.704C1072.38 109.052 1072.1 108.415 1071.75 107.794C1071.25 106.901 1070.62 106.093 1069.87 105.37C1069.11 104.648 1068.21 104.055 1067.17 103.592C1066.71 103.389 1066.15 103.24 1065.48 103.145C1064.8 103.05 1064.01 103.085 1063.1 103.25C1062.19 103.414 1061.15 103.731 1059.99 104.2C1058.83 104.67 1057.53 105.371 1056.09 106.305C1056.59 107.272 1057.18 108.35 1057.85 109.539C1058.52 110.729 1059.26 111.879 1060.05 112.989C1060.84 114.1 1061.68 115.107 1062.57 116.012C1063.45 116.917 1064.34 117.567 1065.23 117.962C1066.37 118.469 1067.35 118.709 1068.18 118.682C1069 118.654 1069.71 118.474 1070.31 118.141C1071.17 117.662 1071.8 117.023 1072.2 116.225C1072.61 115.427 1072.85 114.79 1072.93 114.314C1071.31 114.148 1069.59 113.695 1067.77 112.953C1065.96 112.211 1064.21 111.139 1062.53 109.735C1064.22 110.621 1065.94 111.259 1067.68 111.652C1069.41 112.044 1071.2 112.072 1073.03 111.735Z" fill="black" fill-opacity="0.5"/>
<g clip-path="url(#clip4_149_3)">
<path d="M1075.2 134.8C1075.03 136.038 1074.66 137.145 1074.08 138.119C1073.49 139.093 1072.74 139.836 1071.83 140.347C1070.91 140.859 1069.88 141.132 1068.72 141.166C1067.57 141.2 1066.3 140.912 1064.93 140.303C1064.04 139.908 1063.14 139.313 1062.22 138.516C1061.29 137.72 1060.35 136.697 1059.37 135.447C1058.4 134.196 1057.4 132.705 1056.37 130.974C1055.35 129.242 1054.31 127.249 1053.24 124.994C1054.69 123.978 1056.09 123.138 1057.41 122.473C1058.74 121.808 1060 121.316 1061.18 120.998C1062.37 120.679 1063.49 120.54 1064.53 120.581C1065.57 120.621 1066.55 120.845 1067.47 121.251C1068.81 121.849 1069.99 122.626 1070.99 123.581C1071.99 124.537 1072.82 125.616 1073.5 126.819C1074.2 128.08 1074.7 129.416 1075 130.826C1075.3 132.236 1075.37 133.561 1075.2 134.8ZM1073.03 131.735C1072.97 131.034 1072.82 130.357 1072.6 129.704C1072.38 129.052 1072.1 128.415 1071.75 127.794C1071.25 126.901 1070.62 126.093 1069.87 125.37C1069.11 124.648 1068.21 124.055 1067.17 123.592C1066.71 123.389 1066.15 123.24 1065.48 123.145C1064.8 123.05 1064.01 123.085 1063.1 123.25C1062.19 123.414 1061.15 123.731 1059.99 124.2C1058.83 124.67 1057.53 125.371 1056.09 126.305C1056.59 127.272 1057.18 128.35 1057.85 129.539C1058.52 130.729 1059.26 131.879 1060.05 132.989C1060.84 134.1 1061.68 135.107 1062.57 136.012C1063.45 136.917 1064.34 137.567 1065.23 137.962C1066.37 138.469 1067.35 138.709 1068.18 138.682C1069 138.654 1069.71 138.474 1070.31 138.141C1071.17 137.662 1071.8 137.023 1072.2 136.225C1072.61 135.427 1072.85 134.79 1072.93 134.314C1071.31 134.148 1069.59 133.695 1067.77 132.953C1065.96 132.211 1064.21 131.139 1062.53 129.735C1064.22 130.621 1065.94 131.259 1067.68 131.652C1069.41 132.044 1071.2 132.072 1073.03 131.735Z" fill="black" fill-opacity="0.5"/>
</g>
</g>
<g clip-path="url(#clip5_149_3)">
<path d="M179.394 118.932C179.833 120.182 180.477 121.28 181.327 122.227C182.177 123.174 183.168 123.872 184.298 124.321C185.429 124.769 186.645 124.965 187.945 124.907C189.246 124.849 190.602 124.455 192.014 123.724C192.929 123.25 193.822 122.57 194.693 121.685C195.563 120.799 196.418 119.679 197.256 118.326C198.094 116.973 198.911 115.373 199.706 113.525C200.502 111.677 201.269 109.561 202.007 107.176C200.17 106.256 198.44 105.51 196.818 104.938C195.196 104.366 193.688 103.965 192.294 103.735C190.9 103.505 189.623 103.452 188.462 103.577C187.301 103.702 186.25 104.008 185.308 104.496C183.923 105.213 182.766 106.099 181.839 107.153C180.912 108.208 180.194 109.376 179.686 110.656C179.153 111.999 178.861 113.401 178.811 114.864C178.761 116.326 178.955 117.682 179.394 118.932ZM181.201 115.633C181.134 114.913 181.158 114.211 181.273 113.527C181.389 112.844 181.577 112.172 181.84 111.511C182.217 110.561 182.755 109.687 183.456 108.889C184.157 108.091 185.043 107.415 186.115 106.86C186.586 106.616 187.189 106.419 187.924 106.268C188.659 106.118 189.553 106.09 190.606 106.185C191.659 106.28 192.882 106.52 194.277 106.906C195.671 107.292 197.273 107.904 199.08 108.74C198.715 109.767 198.275 110.913 197.762 112.18C197.249 113.447 196.662 114.678 196.001 115.874C195.339 117.07 194.604 118.165 193.794 119.158C192.984 120.152 192.122 120.886 191.207 121.36C190.03 121.969 188.978 122.292 188.049 122.33C187.119 122.368 186.287 122.241 185.551 121.949C184.492 121.528 183.655 120.928 183.041 120.146C182.427 119.364 182.028 118.734 181.844 118.254C183.624 117.957 185.456 117.357 187.341 116.455C189.226 115.553 190.967 114.319 192.565 112.754C190.844 113.792 189.051 114.581 187.185 115.12C185.32 115.659 183.325 115.83 181.201 115.633Z" fill="black" fill-opacity="0.5"/>
</g>
<g clip-path="url(#clip6_149_3)">
<g clip-path="url(#clip7_149_3)">
<path d="M797.201 127.8C797.034 129.038 796.659 130.145 796.077 131.119C795.494 132.093 794.744 132.836 793.828 133.347C792.911 133.859 791.875 134.132 790.72 134.166C789.565 134.2 788.302 133.912 786.931 133.303C786.043 132.908 785.138 132.313 784.216 131.516C783.295 130.72 782.347 129.697 781.372 128.447C780.397 127.196 779.398 125.705 778.374 123.974C777.351 122.242 776.305 120.249 775.237 117.994C776.693 116.978 778.085 116.138 779.413 115.473C780.741 114.808 781.998 114.316 783.185 113.998C784.371 113.679 785.487 113.54 786.531 113.581C787.575 113.621 788.554 113.845 789.467 114.251C790.813 114.849 791.986 115.626 792.987 116.581C793.988 117.537 794.824 118.616 795.496 119.819C796.2 121.08 796.702 122.416 797.002 123.826C797.303 125.236 797.369 126.561 797.201 127.8ZM795.033 124.735C794.966 124.034 794.822 123.357 794.601 122.704C794.38 122.052 794.096 121.415 793.749 120.794C793.251 119.901 792.624 119.093 791.867 118.37C791.11 117.648 790.212 117.055 789.171 116.592C788.714 116.389 788.149 116.24 787.476 116.145C786.802 116.05 786.01 116.085 785.1 116.25C784.19 116.414 783.155 116.731 781.995 117.2C780.835 117.67 779.532 118.371 778.087 119.305C778.589 120.272 779.177 121.35 779.85 122.539C780.523 123.729 781.256 124.879 782.047 125.989C782.839 127.1 783.678 128.107 784.565 129.012C785.452 129.917 786.339 130.567 787.228 130.962C788.37 131.469 789.353 131.709 790.178 131.682C791.002 131.654 791.713 131.474 792.31 131.141C793.168 130.662 793.8 130.023 794.203 129.225C794.607 128.427 794.848 127.79 794.926 127.314C793.307 127.148 791.589 126.695 789.772 125.953C787.955 125.211 786.206 124.139 784.526 122.735C786.222 123.621 787.939 124.259 789.675 124.652C791.412 125.044 793.198 125.072 795.033 124.735Z" fill="black" fill-opacity="0.5"/>
</g>
</g>
<path d="M457.178 113.107C458.139 113.965 458.877 114.937 459.393 116.022C459.909 117.107 460.14 118.212 460.086 119.338C460.033 120.463 459.714 121.56 459.129 122.63C458.544 123.699 457.63 124.684 456.385 125.583C455.579 126.166 454.594 126.649 453.429 127.033C452.265 127.417 450.895 127.696 449.318 127.869C447.741 128.043 445.947 128.101 443.936 128.045C441.925 127.989 439.681 127.803 437.203 127.488C437.116 125.585 437.143 123.84 437.285 122.254C437.427 120.668 437.678 119.244 438.039 117.983C438.399 116.722 438.874 115.629 439.463 114.703C440.052 113.777 440.761 113.014 441.591 112.415C442.812 111.533 444.093 110.909 445.435 110.543C446.776 110.178 448.135 110.033 449.511 110.108C450.953 110.187 452.352 110.492 453.706 111.023C455.06 111.553 456.218 112.248 457.178 113.107ZM453.429 113.331C452.8 112.993 452.15 112.738 451.48 112.567C450.809 112.396 450.119 112.291 449.409 112.252C448.388 112.196 447.37 112.306 446.356 112.582C445.341 112.857 444.362 113.337 443.417 114.019C443.002 114.319 442.576 114.748 442.138 115.306C441.7 115.864 441.308 116.604 440.964 117.525C440.62 118.447 440.339 119.569 440.12 120.891C439.902 122.214 439.804 123.798 439.828 125.644C440.913 125.739 442.139 125.82 443.504 125.885C444.87 125.951 446.233 125.941 447.594 125.854C448.956 125.767 450.255 125.579 451.493 125.288C452.731 124.998 453.753 124.561 454.559 123.978C455.596 123.229 456.322 122.472 456.736 121.706C457.151 120.941 457.376 120.192 457.411 119.46C457.461 118.406 457.255 117.468 456.793 116.645C456.332 115.823 455.92 115.241 455.558 114.899C454.558 116.277 453.261 117.58 451.667 118.81C450.074 120.039 448.236 121.017 446.154 121.745C447.806 120.707 449.259 119.511 450.513 118.155C451.768 116.8 452.74 115.192 453.429 113.331Z" fill="black" fill-opacity="0.5"/>
<path d="M593.179 54.0783C594.139 54.9369 594.877 55.9086 595.393 56.9936C595.909 58.0785 596.14 59.1837 596.087 60.3092C596.033 61.4346 595.714 62.5321 595.129 63.6016C594.544 64.6711 593.63 65.6554 592.386 66.5545C591.579 67.1372 590.594 67.6206 589.43 68.0047C588.265 68.3887 586.895 68.6674 585.318 68.8409C583.741 69.0143 581.947 69.0728 579.936 69.0165C577.925 68.9602 575.681 68.7747 573.204 68.46C573.116 66.5567 573.143 64.8119 573.285 63.2257C573.428 61.6394 573.679 60.2158 574.039 58.9549C574.399 57.694 574.874 56.6006 575.463 55.6746C576.052 54.7486 576.762 53.986 577.591 53.3866C578.812 52.5041 580.094 51.8802 581.435 51.5148C582.776 51.1494 584.135 51.0043 585.511 51.0796C586.953 51.1586 588.352 51.4634 589.706 51.9943C591.061 52.5251 592.218 53.2198 593.179 54.0783ZM589.43 54.303C588.801 53.9641 588.151 53.7092 587.48 53.5381C586.81 53.3671 586.119 53.2622 585.409 53.2233C584.388 53.1675 583.37 53.2774 582.356 53.5533C581.342 53.8291 580.362 54.3083 579.417 54.991C579.003 55.2907 578.576 55.7196 578.138 56.2777C577.7 56.8358 577.309 57.5756 576.965 58.4971C576.62 59.4186 576.339 60.5405 576.12 61.8629C575.902 63.1853 575.804 64.7695 575.828 66.6156C576.914 66.7108 578.139 66.7913 579.505 66.8571C580.87 66.9228 582.233 66.9123 583.595 66.8256C584.956 66.739 586.256 66.5504 587.493 66.2599C588.731 65.9694 589.753 65.5328 590.559 64.95C591.596 64.2008 592.322 63.4435 592.737 62.6781C593.151 61.9127 593.376 61.1638 593.411 60.4314C593.461 59.3774 593.255 58.4393 592.793 57.617C592.332 56.7947 591.92 56.2125 591.558 55.8703C590.558 57.2484 589.261 58.5521 587.667 59.7813C586.074 61.0105 584.236 61.9891 582.154 62.7169C583.806 61.6789 585.259 60.4823 586.514 59.1271C587.769 57.7719 588.741 56.1639 589.43 54.303Z" fill="black" fill-opacity="0.5"/>
<path d="M354.178 42.2727C355.139 43.1312 355.877 44.103 356.393 45.1879C356.909 46.2729 357.14 47.3781 357.086 48.5035C357.033 49.6289 356.714 50.7264 356.129 51.7959C355.544 52.8654 354.63 53.8497 353.385 54.7488C352.579 55.3315 351.594 55.8149 350.429 56.199C349.265 56.5831 347.895 56.8618 346.318 57.0352C344.741 57.2086 342.947 57.2672 340.936 57.2108C338.925 57.1545 336.681 56.969 334.203 56.6544C334.116 54.7511 334.143 53.0063 334.285 51.42C334.427 49.8337 334.678 48.4101 335.039 47.1493C335.399 45.8884 335.874 44.7949 336.463 43.8689C337.052 42.943 337.761 42.1803 338.591 41.5809C339.812 40.6985 341.093 40.0745 342.435 39.7091C343.776 39.3437 345.135 39.1987 346.511 39.274C347.953 39.3529 349.352 39.6578 350.706 40.1886C352.06 40.7194 353.218 41.4141 354.178 42.2727ZM350.429 42.4974C349.8 42.1585 349.15 41.9035 348.48 41.7325C347.809 41.5615 347.119 41.4565 346.409 41.4177C345.388 41.3618 344.37 41.4718 343.356 41.7476C342.341 42.0234 341.362 42.5027 340.417 43.1853C340.002 43.485 339.576 43.9139 339.138 44.472C338.7 45.0302 338.308 45.77 337.964 46.6914C337.62 47.6129 337.339 48.7348 337.12 50.0572C336.902 51.3796 336.804 52.9638 336.828 54.8099C337.913 54.9051 339.139 54.9856 340.504 55.0514C341.87 55.1171 343.233 55.1067 344.594 55.02C345.956 54.9333 347.255 54.7447 348.493 54.4542C349.731 54.1637 350.753 53.7271 351.559 53.1444C352.596 52.3951 353.322 51.6378 353.736 50.8724C354.151 50.1071 354.376 49.3582 354.411 48.6257C354.461 47.5717 354.255 46.6336 353.793 45.8113C353.332 44.9891 352.92 44.4068 352.558 44.0646C351.558 45.4427 350.261 46.7464 348.667 47.9756C347.074 49.2048 345.236 50.1834 343.154 50.9113C344.806 49.8733 346.259 48.6767 347.513 47.3214C348.768 45.9662 349.74 44.3582 350.429 42.4974Z" fill="black" fill-opacity="0.5"/>
<g clip-path="url(#clip8_149_3)">
<path d="M86.3963 45.3767C85.249 46.0391 84.2887 46.8755 83.5152 47.8859C82.7418 48.8963 82.2392 49.9986 82.0073 51.1929C81.7754 52.3871 81.8081 53.6179 82.1052 54.8854C82.4024 56.1528 83.0407 57.4127 84.0199 58.6651C84.6546 59.4768 85.4877 60.2287 86.5191 60.9207C87.5506 61.6127 88.8086 62.2455 90.2932 62.819C91.7777 63.3925 93.5016 63.8993 95.4648 64.3395C97.428 64.7797 99.6496 65.1422 102.13 65.4271C102.694 63.4516 103.108 61.614 103.37 59.9142C103.632 58.2144 103.747 56.6583 103.716 55.2457C103.685 53.8332 103.5 52.568 103.163 51.4501C102.825 50.3321 102.33 49.3557 101.677 48.5208C100.716 47.2917 99.6316 46.3189 98.4238 45.6024C97.216 44.886 95.9359 44.3964 94.5834 44.1338C93.1654 43.8585 91.7332 43.8312 90.2868 44.052C88.8405 44.2727 87.5436 44.7143 86.3963 45.3767ZM89.9729 46.5433C90.6681 46.3439 91.3622 46.2377 92.0551 46.2247C92.7481 46.2117 93.4436 46.273 94.1417 46.4085C95.1452 46.6034 96.1037 46.9714 97.0173 47.5127C97.9308 48.054 98.7594 48.8001 99.5029 49.751C99.8293 50.1684 100.134 50.7244 100.418 51.4188C100.702 52.1132 100.895 52.9866 100.996 54.039C101.098 55.0914 101.087 56.3385 100.966 57.7804C100.844 59.2222 100.54 60.9088 100.051 62.8401C98.9751 62.6704 97.7671 62.4506 96.4273 62.1807C95.0875 61.9107 93.7688 61.5612 92.4713 61.1322C91.1737 60.7032 89.9618 60.1827 88.8356 59.5706C87.7094 58.9585 86.8289 58.2466 86.1942 57.4349C85.3782 56.3913 84.8657 55.4165 84.6568 54.5104C84.4479 53.6043 84.4189 52.7627 84.5698 51.9855C84.787 50.8671 85.2229 49.9338 85.8775 49.1855C86.5321 48.4373 87.078 47.9286 87.5151 47.6594C88.1369 49.3538 89.0651 51.0437 90.2998 52.7292C91.5345 54.4148 93.0688 55.8978 94.9028 57.1785C93.564 55.6793 92.4574 54.0629 91.5829 52.3292C90.7084 50.5956 90.1717 48.667 89.9729 46.5433Z" fill="black" fill-opacity="0.5"/>
<path d="M69.7645 47.9118C68.9258 46.9849 68.322 45.9848 67.9531 44.9115C67.5843 43.8382 67.4999 42.7862 67.7001 41.7554C67.9002 40.7247 68.3597 39.757 69.0787 38.8525C69.7976 37.9479 70.8318 37.1683 72.1814 36.5135C73.0561 36.0891 74.0949 35.7815 75.2978 35.5906C76.5006 35.3997 77.8941 35.3349 79.4781 35.3963C81.0621 35.4577 82.846 35.6555 84.8298 35.9898C86.8135 36.324 89.0112 36.8101 91.4227 37.4482C91.2604 39.2163 91.0052 40.8221 90.6571 42.2656C90.3089 43.709 89.874 44.987 89.3523 46.0997C88.8307 47.2123 88.2176 48.1544 87.5132 48.9259C86.8088 49.6975 86.0067 50.3015 85.107 50.738C83.7825 51.3807 82.4323 51.7764 81.0565 51.9252C79.6807 52.074 78.3165 52.0171 76.964 51.7545C75.546 51.4792 74.2013 51.0016 72.9298 50.3218C71.6583 49.642 70.6032 48.8386 69.7645 47.9118ZM73.5056 48.2307C74.0842 48.6317 74.6943 48.9581 75.3358 49.21C75.9773 49.4619 76.6471 49.6556 77.3452 49.7912C78.3487 49.986 79.3707 50.0274 80.4111 49.9153C81.4515 49.8033 82.4841 49.4987 83.5087 49.0015C83.9586 48.7833 84.4369 48.4474 84.9437 47.9941C85.4506 47.5407 85.9346 46.9131 86.3959 46.1113C86.8572 45.3096 87.2825 44.3141 87.6719 43.1248C88.0612 41.9356 88.365 40.4877 88.5831 38.7814C87.5206 38.5411 86.3177 38.2948 84.9745 38.0425C83.6313 37.7902 82.28 37.6084 80.9207 37.4973C79.5615 37.3862 78.2501 37.3777 76.9868 37.472C75.7234 37.5663 74.6544 37.8256 73.7797 38.25C72.6551 38.7956 71.8374 39.3924 71.3268 40.0403C70.8162 40.6881 70.4957 41.3475 70.3655 42.0183C70.1781 42.9836 70.2591 43.8779 70.6085 44.7013C70.958 45.5247 71.2896 46.1196 71.6032 46.4861C72.7736 45.3551 74.2282 44.3345 75.9669 43.4242C77.7056 42.514 79.6531 41.8692 81.8094 41.4899C80.0385 42.2157 78.4433 43.1156 77.0237 44.1897C75.604 45.2638 74.4313 46.6108 73.5056 48.2307Z" fill="black" fill-opacity="0.5"/>
</g>
<defs>
<clipPath id="clip0_149_3">
<rect width="32" height="27.8064" fill="white" transform="matrix(0.284327 -0.958727 -0.958727 -0.284327 979.659 54.5854)"/>
</clipPath>
<clipPath id="clip1_149_3">
<rect width="32" height="24" fill="white" transform="translate(1206.6 39.6392) rotate(-119.169)"/>
</clipPath>
<clipPath id="clip2_149_3">
<rect width="32" height="24" fill="white" transform="translate(730 27.2097) rotate(-22.43)"/>
</clipPath>
<clipPath id="clip3_149_3">
<rect width="32" height="24" fill="white" transform="translate(1061.6 130.639) rotate(-119.169)"/>
</clipPath>
<clipPath id="clip4_149_3">
<rect width="32" height="24" fill="white" transform="translate(1061.6 150.639) rotate(-119.169)"/>
</clipPath>
<clipPath id="clip5_149_3">
<rect width="32" height="27.8064" fill="white" transform="matrix(0.368782 -0.929516 -0.929516 -0.368782 197.846 133.999)"/>
</clipPath>
<clipPath id="clip6_149_3">
<rect width="32" height="24" fill="white" transform="translate(786.596 143.639) rotate(-119.169)"/>
</clipPath>
<clipPath id="clip7_149_3">
<rect width="32" height="24" fill="white" transform="translate(783.596 143.639) rotate(-119.169)"/>
</clipPath>
<clipPath id="clip8_149_3">
<rect width="32" height="27.8064" fill="white" transform="matrix(0.981666 0.190608 0.190608 -0.981666 75 66.2966)"/>
</clipPath>
</defs>
</svg>
