<svg width="1440" height="153" viewBox="0 0 1440 153" fill="none" xmlns="http://www.w3.org/2000/svg">
<rect y="6.10352e-05" width="1440" height="153" fill="#7ED957"/>
<path d="M999.576 29.448C1000.12 30.6538 1000.86 31.6903 1001.8 32.5575C1002.73 33.4247 1003.78 34.0313 1004.94 34.3772C1006.11 34.7231 1007.34 34.8092 1008.63 34.6355C1009.92 34.4619 1011.23 33.948 1012.57 33.094C1013.44 32.5405 1014.27 31.7838 1015.06 30.8238C1015.85 29.8639 1016.6 28.6727 1017.31 27.2503C1018.03 25.8279 1018.7 24.1609 1019.32 22.2493C1019.95 20.3376 1020.53 18.1613 1021.05 15.7202C1019.14 14.9678 1017.35 14.3792 1015.68 13.9545C1014.01 13.5298 1012.48 13.2649 1011.07 13.16C1009.66 13.055 1008.38 13.1167 1007.24 13.3449C1006.09 13.5732 1005.07 13.972 1004.18 14.5413C1002.86 15.3795 1001.79 16.3651 1000.96 17.4983C1000.13 18.6314 999.519 19.8584 999.128 21.1793C998.717 22.5642 998.552 23.987 998.632 25.448C998.712 26.9089 999.027 28.2422 999.576 29.448ZM1001.08 26.0005C1000.95 25.2894 1000.91 24.5883 1000.97 23.8973C1001.02 23.2063 1001.15 22.5199 1001.35 21.8382C1001.64 20.8582 1002.1 19.9396 1002.73 19.0824C1003.35 18.2252 1004.17 17.4725 1005.19 16.8241C1005.64 16.5394 1006.22 16.2892 1006.94 16.0735C1007.66 15.8578 1008.55 15.7503 1009.6 15.7509C1010.66 15.7515 1011.9 15.8818 1013.33 16.1417C1014.75 16.4016 1016.4 16.8675 1018.27 17.5396C1018 18.5945 1017.67 19.7757 1017.27 21.0832C1016.87 22.3907 1016.4 23.6696 1015.84 24.9198C1015.29 26.17 1014.66 27.3261 1013.94 28.388C1013.22 29.45 1012.43 30.2578 1011.56 30.8113C1010.44 31.5229 1009.42 31.9391 1008.5 32.0597C1007.58 32.1803 1006.74 32.128 1005.98 31.9029C1004.89 31.579 1004 31.0552 1003.32 30.3315C1002.64 29.6078 1002.18 29.0155 1001.96 28.5545C1003.7 28.0989 1005.47 27.3378 1007.27 26.2713C1009.07 25.2048 1010.69 23.8206 1012.14 22.1185C1010.52 23.3066 1008.81 24.2523 1007 24.9557C1005.19 25.659 1003.21 26.0073 1001.08 26.0005Z" fill="black" fill-opacity="0.5"/>
<path d="M788.526 38.9136C787.315 38.6019 786.26 38.0997 785.361 37.407C784.462 36.7142 783.813 35.8826 783.412 34.912C783.011 33.9415 782.862 32.8807 782.964 31.7298C783.066 30.5788 783.5 29.3584 784.265 28.0687C784.762 27.2327 785.459 26.4038 786.358 25.582C787.257 24.7602 788.385 23.9387 789.741 23.1176C791.096 22.2964 792.694 21.4791 794.534 20.6655C796.374 19.8519 798.476 19.0473 800.84 18.2518C801.679 19.8169 802.35 21.2978 802.854 22.6944C803.359 24.0909 803.7 25.3972 803.877 26.6132C804.054 27.8291 804.062 28.9531 803.899 29.985C803.736 31.017 803.399 31.9629 802.888 32.8227C802.137 34.0886 801.228 35.1625 800.161 36.0445C799.095 36.9264 797.925 37.6302 796.651 38.1559C795.316 38.7071 793.931 39.0491 792.495 39.1819C791.059 39.3148 789.736 39.2253 788.526 38.9136ZM791.824 37.1194C792.528 37.1354 793.217 37.0719 793.891 36.9288C794.565 36.7858 795.231 36.5786 795.888 36.3072C796.833 35.9172 797.709 35.3889 798.516 34.7223C799.322 34.0558 800.016 33.2329 800.598 32.2536C800.853 31.8237 801.067 31.2799 801.241 30.6224C801.414 29.9648 801.472 29.1744 801.416 28.2512C801.359 27.3279 801.166 26.2627 800.836 25.0556C800.506 23.8485 799.962 22.4728 799.205 20.9284C798.185 21.3131 797.046 21.77 795.786 22.2991C794.525 22.8283 793.298 23.4208 792.102 24.0767C790.906 24.7325 789.807 25.4477 788.804 26.2222C787.802 26.9966 787.052 27.8018 786.556 28.6378C785.918 29.7126 785.564 30.661 785.495 31.483C785.425 32.305 785.521 33.0318 785.782 33.6635C786.157 34.5724 786.717 35.2743 787.462 35.7691C788.207 36.2638 788.812 36.5778 789.275 36.711C789.629 35.1224 790.281 33.4694 791.231 31.752C792.181 30.0347 793.451 28.4239 795.042 26.9198C793.964 28.5008 793.128 30.1305 792.535 31.8089C791.941 33.4873 791.704 35.2575 791.824 37.1194Z" fill="black" fill-opacity="0.5"/>
<path d="M828.526 130.914C827.315 130.602 826.26 130.1 825.361 129.407C824.462 128.714 823.813 127.883 823.412 126.912C823.011 125.941 822.862 124.881 822.964 123.73C823.066 122.579 823.5 121.358 824.265 120.069C824.762 119.233 825.459 118.404 826.358 117.582C827.257 116.76 828.385 115.939 829.741 115.118C831.096 114.296 832.694 113.479 834.534 112.665C836.374 111.852 838.476 111.047 840.84 110.252C841.679 111.817 842.35 113.298 842.854 114.694C843.359 116.091 843.7 117.397 843.877 118.613C844.054 119.829 844.062 120.953 843.899 121.985C843.736 123.017 843.399 123.963 842.888 124.823C842.137 126.089 841.228 127.163 840.161 128.044C839.095 128.926 837.925 129.63 836.651 130.156C835.316 130.707 833.931 131.049 832.495 131.182C831.059 131.315 829.736 131.225 828.526 130.914ZM831.824 129.119C832.528 129.135 833.217 129.072 833.891 128.929C834.565 128.786 835.231 128.579 835.888 128.307C836.833 127.917 837.709 127.389 838.516 126.722C839.322 126.056 840.016 125.233 840.598 124.254C840.853 123.824 841.067 123.28 841.241 122.622C841.414 121.965 841.472 121.174 841.416 120.251C841.359 119.328 841.166 118.263 840.836 117.056C840.506 115.849 839.962 114.473 839.205 112.928C838.185 113.313 837.046 113.77 835.786 114.299C834.525 114.828 833.298 115.421 832.102 116.077C830.906 116.733 829.807 117.448 828.804 118.222C827.802 118.997 827.052 119.802 826.556 120.638C825.918 121.713 825.564 122.661 825.495 123.483C825.425 124.305 825.521 125.032 825.782 125.663C826.157 126.572 826.717 127.274 827.462 127.769C828.207 128.264 828.812 128.578 829.275 128.711C829.629 127.122 830.281 125.469 831.231 123.752C832.181 122.035 833.451 120.424 835.042 118.92C833.964 120.501 833.128 122.131 832.535 123.809C831.941 125.487 831.704 127.257 831.824 129.119Z" fill="black" fill-opacity="0.5"/>
<path d="M1077.2 125.8C1077.03 127.038 1076.66 128.145 1076.08 129.119C1075.49 130.093 1074.74 130.836 1073.83 131.347C1072.91 131.859 1071.87 132.132 1070.72 132.166C1069.56 132.2 1068.3 131.912 1066.93 131.303C1066.04 130.908 1065.14 130.313 1064.22 129.516C1063.29 128.72 1062.35 127.697 1061.37 126.447C1060.4 125.196 1059.4 123.705 1058.37 121.974C1057.35 120.242 1056.3 118.249 1055.24 115.994C1056.69 114.978 1058.09 114.138 1059.41 113.473C1060.74 112.808 1062 112.316 1063.18 111.998C1064.37 111.679 1065.49 111.54 1066.53 111.581C1067.57 111.621 1068.55 111.845 1069.47 112.251C1070.81 112.849 1071.99 113.626 1072.99 114.581C1073.99 115.537 1074.82 116.616 1075.5 117.819C1076.2 119.08 1076.7 120.416 1077 121.826C1077.3 123.236 1077.37 124.561 1077.2 125.8ZM1075.03 122.735C1074.97 122.034 1074.82 121.357 1074.6 120.704C1074.38 120.052 1074.1 119.415 1073.75 118.794C1073.25 117.901 1072.62 117.093 1071.87 116.37C1071.11 115.648 1070.21 115.055 1069.17 114.592C1068.71 114.389 1068.15 114.24 1067.48 114.145C1066.8 114.05 1066.01 114.085 1065.1 114.25C1064.19 114.414 1063.15 114.731 1061.99 115.2C1060.83 115.67 1059.53 116.371 1058.09 117.305C1058.59 118.272 1059.18 119.35 1059.85 120.539C1060.52 121.729 1061.26 122.879 1062.05 123.989C1062.84 125.1 1063.68 126.107 1064.57 127.012C1065.45 127.917 1066.34 128.567 1067.23 128.962C1068.37 129.469 1069.35 129.709 1070.18 129.682C1071 129.654 1071.71 129.474 1072.31 129.141C1073.17 128.662 1073.8 128.023 1074.2 127.225C1074.61 126.427 1074.85 125.79 1074.93 125.314C1073.31 125.148 1071.59 124.695 1069.77 123.953C1067.95 123.211 1066.21 122.139 1064.53 120.735C1066.22 121.621 1067.94 122.259 1069.68 122.652C1071.41 123.044 1073.2 123.072 1075.03 122.735Z" fill="black" fill-opacity="0.5"/>
<path d="M1232.23 132.162C1232.06 133.401 1231.68 134.508 1231.1 135.482C1230.52 136.456 1229.77 137.199 1228.85 137.71C1227.94 138.222 1226.9 138.495 1225.75 138.529C1224.59 138.563 1223.33 138.275 1221.96 137.666C1221.07 137.271 1220.16 136.675 1219.24 135.879C1218.32 135.083 1217.37 134.06 1216.4 132.81C1215.42 131.559 1214.42 130.068 1213.4 128.337C1212.38 126.605 1211.33 124.612 1210.26 122.357C1211.72 121.341 1213.11 120.501 1214.44 119.836C1215.77 119.171 1217.02 118.679 1218.21 118.36C1219.4 118.042 1220.51 117.903 1221.56 117.943C1222.6 117.984 1223.58 118.208 1224.49 118.614C1225.84 119.212 1227.01 119.988 1228.01 120.944C1229.01 121.9 1229.85 122.979 1230.52 124.182C1231.22 125.443 1231.73 126.779 1232.03 128.189C1232.33 129.599 1232.39 130.924 1232.23 132.162ZM1230.06 129.098C1229.99 128.397 1229.85 127.72 1229.63 127.067C1229.4 126.414 1229.12 125.778 1228.77 125.157C1228.28 124.264 1227.65 123.456 1226.89 122.733C1226.14 122.01 1225.24 121.418 1224.2 120.955C1223.74 120.752 1223.17 120.603 1222.5 120.508C1221.83 120.413 1221.04 120.448 1220.13 120.612C1219.22 120.777 1218.18 121.094 1217.02 121.563C1215.86 122.033 1214.56 122.734 1213.11 123.668C1213.61 124.635 1214.2 125.713 1214.88 126.902C1215.55 128.092 1216.28 129.242 1217.07 130.352C1217.86 131.463 1218.7 132.47 1219.59 133.375C1220.48 134.28 1221.36 134.93 1222.25 135.324C1223.4 135.832 1224.38 136.072 1225.2 136.045C1226.03 136.017 1226.74 135.837 1227.33 135.504C1228.19 135.024 1228.82 134.386 1229.23 133.588C1229.63 132.79 1229.87 132.153 1229.95 131.677C1228.33 131.511 1226.61 131.058 1224.8 130.316C1222.98 129.574 1221.23 128.502 1219.55 127.098C1221.25 127.984 1222.96 128.622 1224.7 129.015C1226.44 129.407 1228.22 129.435 1230.06 129.098Z" fill="black" fill-opacity="0.5"/>
<path d="M1232.23 23.1625C1232.06 24.4012 1231.68 25.5076 1231.1 26.4817C1230.52 27.4557 1229.77 28.1986 1228.85 28.7104C1227.94 29.2221 1226.9 29.495 1225.75 29.5288C1224.59 29.5627 1223.33 29.275 1221.96 28.6659C1221.07 28.271 1220.16 27.6755 1219.24 26.8792C1218.32 26.083 1217.37 25.0598 1216.4 23.8096C1215.42 22.5594 1214.42 21.0684 1213.4 19.3367C1212.38 17.605 1211.33 15.6119 1210.26 13.3574C1211.72 12.3411 1213.11 11.5006 1214.44 10.8358C1215.77 10.1711 1217.02 9.67932 1218.21 9.36047C1219.4 9.04163 1220.51 8.90262 1221.56 8.94344C1222.6 8.98426 1223.58 9.20773 1224.49 9.61385C1225.84 10.2117 1227.01 10.9885 1228.01 11.944C1229.01 12.8995 1229.85 13.9788 1230.52 15.1819C1231.22 16.4432 1231.73 17.7789 1232.03 19.1891C1232.33 20.5993 1232.39 21.9237 1232.23 23.1625ZM1230.06 20.0975C1229.99 19.3967 1229.85 18.7199 1229.63 18.0672C1229.4 17.4144 1229.12 16.7776 1228.77 16.1567C1228.28 15.2641 1227.65 14.4563 1226.89 13.7334C1226.14 13.0105 1225.24 12.4178 1224.2 11.9552C1223.74 11.7522 1223.17 11.6032 1222.5 11.5082C1221.83 11.4132 1221.04 11.448 1220.13 11.6125C1219.22 11.777 1218.18 12.0939 1217.02 12.5632C1215.86 13.0326 1214.56 13.7341 1213.11 14.6678C1213.61 15.6348 1214.2 16.713 1214.88 17.9023C1215.55 19.0916 1216.28 20.2415 1217.07 21.3521C1217.86 22.4626 1218.7 23.4703 1219.59 24.375C1220.48 25.2798 1221.36 25.9296 1222.25 26.3245C1223.4 26.8321 1224.38 27.0722 1225.2 27.0446C1226.03 27.0171 1226.74 26.8368 1227.33 26.5037C1228.19 26.0245 1228.82 25.3858 1229.23 24.5877C1229.63 23.7897 1229.87 23.1526 1229.95 22.6765C1228.33 22.5114 1226.61 22.0579 1224.8 21.316C1222.98 20.5742 1221.23 19.5016 1219.55 18.0982C1221.25 18.9835 1222.96 19.6224 1224.7 20.0147C1226.44 20.4071 1228.22 20.4347 1230.06 20.0975Z" fill="black" fill-opacity="0.5"/>
<path d="M601.765 132.114C602.204 133.364 602.848 134.463 603.698 135.41C604.548 136.357 605.539 137.054 606.669 137.503C607.8 137.952 609.016 138.147 610.316 138.089C611.617 138.031 612.973 137.637 614.385 136.906C615.3 136.432 616.193 135.753 617.064 134.867C617.934 133.981 618.789 132.862 619.627 131.509C620.465 130.156 621.281 128.555 622.077 126.707C622.873 124.859 623.639 122.743 624.378 120.358C622.541 119.438 620.811 118.692 619.189 118.121C617.567 117.549 616.059 117.148 614.665 116.917C613.271 116.687 611.994 116.634 610.833 116.76C609.672 116.885 608.62 117.191 607.679 117.678C606.294 118.395 605.137 119.281 604.21 120.336C603.282 121.39 602.565 122.558 602.057 123.839C601.524 125.181 601.232 126.584 601.182 128.046C601.132 129.508 601.326 130.864 601.765 132.114ZM603.572 128.815C603.505 128.095 603.529 127.393 603.644 126.71C603.759 126.026 603.948 125.354 604.21 124.693C604.587 123.743 605.126 122.869 605.827 122.071C606.528 121.274 607.414 120.597 608.486 120.042C608.957 119.799 609.56 119.602 610.295 119.451C611.03 119.3 611.924 119.272 612.976 119.367C614.029 119.462 615.253 119.703 616.648 120.089C618.042 120.475 619.643 121.086 621.451 121.923C621.086 122.949 620.646 124.096 620.133 125.363C619.62 126.629 619.033 127.861 618.372 129.057C617.71 130.252 616.975 131.347 616.165 132.341C615.355 133.335 614.493 134.068 613.578 134.542C612.401 135.151 611.349 135.474 610.419 135.512C609.49 135.55 608.658 135.423 607.922 135.131C606.863 134.711 606.026 134.11 605.412 133.328C604.798 132.547 604.399 131.916 604.215 131.437C605.995 131.139 607.827 130.539 609.712 129.637C611.597 128.735 613.338 127.502 614.935 125.936C613.215 126.975 611.422 127.763 609.556 128.302C607.691 128.841 605.696 129.012 603.572 128.815Z" fill="black" fill-opacity="0.5"/>
<path d="M497.178 115.388C498.139 116.188 498.877 117.093 499.393 118.104C499.909 119.115 500.14 120.145 500.087 121.193C500.033 122.242 499.714 123.265 499.129 124.261C498.544 125.258 497.63 126.175 496.385 127.013C495.579 127.555 494.594 128.006 493.429 128.364C492.265 128.722 490.895 128.981 489.318 129.143C487.741 129.304 485.947 129.359 483.936 129.307C481.925 129.254 479.681 129.081 477.203 128.788C477.116 127.015 477.143 125.389 477.285 123.911C477.427 122.433 477.679 121.106 478.039 119.932C478.399 118.757 478.874 117.738 479.463 116.875C480.052 116.012 480.762 115.302 481.591 114.743C482.812 113.921 484.094 113.34 485.435 112.999C486.776 112.659 488.135 112.524 489.511 112.594C490.953 112.667 492.352 112.951 493.706 113.446C495.06 113.941 496.218 114.588 497.178 115.388ZM493.43 115.597C492.8 115.281 492.151 115.044 491.48 114.884C490.809 114.725 490.119 114.627 489.409 114.591C488.388 114.539 487.37 114.642 486.356 114.899C485.342 115.156 484.362 115.602 483.417 116.238C483.003 116.517 482.576 116.917 482.138 117.437C481.7 117.957 481.309 118.646 480.964 119.505C480.62 120.364 480.339 121.409 480.12 122.641C479.902 123.873 479.804 125.349 479.828 127.069C480.914 127.158 482.139 127.233 483.504 127.294C484.87 127.356 486.233 127.346 487.595 127.265C488.956 127.184 490.255 127.009 491.493 126.738C492.731 126.467 493.753 126.061 494.559 125.518C495.596 124.819 496.322 124.114 496.737 123.401C497.151 122.688 497.376 121.99 497.411 121.307C497.461 120.325 497.255 119.451 496.793 118.685C496.332 117.919 495.92 117.376 495.558 117.057C494.558 118.342 493.261 119.556 491.667 120.702C490.074 121.847 488.236 122.759 486.154 123.437C487.806 122.47 489.259 121.355 490.514 120.092C491.768 118.829 492.74 117.331 493.43 115.597Z" fill="black" fill-opacity="0.5"/>
<path d="M614.178 13.3879C615.139 14.1878 615.877 15.0932 616.393 16.1041C616.909 17.1151 617.14 18.1448 617.087 19.1935C617.033 20.2421 616.714 21.2647 616.129 22.2612C615.544 23.2577 614.63 24.1748 613.385 25.0126C612.579 25.5555 611.594 26.0059 610.429 26.3638C609.265 26.7216 607.895 26.9813 606.318 27.1429C604.741 27.3045 602.947 27.3591 600.936 27.3066C598.925 27.2541 596.681 27.0813 594.203 26.7881C594.116 25.0147 594.143 23.3889 594.285 21.9109C594.427 20.4329 594.679 19.1065 595.039 17.9316C595.399 16.7568 595.874 15.738 596.463 14.8752C597.052 14.0124 597.762 13.3018 598.591 12.7433C599.812 11.9211 601.094 11.3397 602.435 10.9993C603.776 10.6588 605.135 10.5236 606.511 10.5938C607.953 10.6673 609.352 10.9514 610.706 11.446C612.06 11.9406 613.218 12.5879 614.178 13.3879ZM610.43 13.5972C609.8 13.2814 609.151 13.0439 608.48 12.8845C607.809 12.7252 607.119 12.6274 606.409 12.5912C605.388 12.5391 604.37 12.6416 603.356 12.8986C602.342 13.1556 601.362 13.6022 600.417 14.2382C600.003 14.5175 599.576 14.9171 599.138 15.4371C598.7 15.9572 598.309 16.6465 597.964 17.5051C597.62 18.3636 597.339 19.409 597.12 20.6411C596.902 21.8733 596.804 23.3494 596.828 25.0695C597.914 25.1582 599.139 25.2332 600.504 25.2945C601.87 25.3558 603.233 25.346 604.595 25.2652C605.956 25.1845 607.255 25.0087 608.493 24.7381C609.731 24.4674 610.753 24.0606 611.559 23.5176C612.596 22.8195 613.322 22.1139 613.737 21.4007C614.151 20.6876 614.376 19.9898 614.411 19.3074C614.461 18.3253 614.255 17.4512 613.793 16.685C613.332 15.9189 612.92 15.3764 612.558 15.0575C611.558 16.3416 610.261 17.5563 608.667 18.7016C607.074 19.8469 605.236 20.7587 603.154 21.4369C604.806 20.4698 606.259 19.3548 607.514 18.0921C608.768 16.8293 609.74 15.331 610.43 13.5972Z" fill="black" fill-opacity="0.5"/>
<path d="M458.178 22.3879C459.139 23.1878 459.877 24.0932 460.393 25.1041C460.909 26.1151 461.14 27.1448 461.087 28.1935C461.033 29.2421 460.714 30.2647 460.129 31.2612C459.544 32.2577 458.63 33.1748 457.385 34.0126C456.579 34.5555 455.594 35.0059 454.429 35.3638C453.265 35.7216 451.895 35.9813 450.318 36.1429C448.741 36.3045 446.947 36.3591 444.936 36.3066C442.925 36.2541 440.681 36.0813 438.203 35.7881C438.116 34.0147 438.143 32.3889 438.285 30.9109C438.427 29.4329 438.679 28.1065 439.039 26.9316C439.399 25.7568 439.874 24.738 440.463 23.8752C441.052 23.0124 441.762 22.3018 442.591 21.7433C443.812 20.9211 445.094 20.3397 446.435 19.9993C447.776 19.6588 449.135 19.5236 450.511 19.5938C451.953 19.6673 453.352 19.9514 454.706 20.446C456.06 20.9406 457.218 21.5879 458.178 22.3879ZM454.43 22.5972C453.8 22.2814 453.151 22.0439 452.48 21.8845C451.809 21.7252 451.119 21.6274 450.409 21.5912C449.388 21.5391 448.37 21.6416 447.356 21.8986C446.342 22.1556 445.362 22.6022 444.417 23.2382C444.003 23.5175 443.576 23.9171 443.138 24.4371C442.7 24.9572 442.309 25.6465 441.964 26.5051C441.62 27.3636 441.339 28.409 441.12 29.6411C440.902 30.8733 440.804 32.3494 440.828 34.0695C441.914 34.1582 443.139 34.2332 444.504 34.2945C445.87 34.3558 447.233 34.346 448.595 34.2652C449.956 34.1845 451.255 34.0087 452.493 33.7381C453.731 33.4674 454.753 33.0606 455.559 32.5176C456.596 31.8195 457.322 31.1139 457.737 30.4007C458.151 29.6876 458.376 28.9898 458.411 28.3074C458.461 27.3253 458.255 26.4512 457.793 25.685C457.332 24.9189 456.92 24.3764 456.558 24.0575C455.558 25.3416 454.261 26.5563 452.667 27.7016C451.074 28.8469 449.236 29.7587 447.154 30.4369C448.806 29.4698 450.259 28.3548 451.514 27.0921C452.768 25.8293 453.74 24.331 454.43 22.5972Z" fill="black" fill-opacity="0.5"/>
<path d="M139.792 120.663L139.506 120.325V82.1627V44L140.471 44.1617L141.436 44.3235L141.546 82.2504L141.656 120.177L141.117 120.581L140.578 120.985L140.328 120.992L140.078 121L139.792 120.663ZM66.4928 113.535L65.8372 112.649L65.5326 110.648L65.228 108.647L64.4491 106.846L63.6701 105.044L62.5363 103.706L61.4026 102.369L59.8124 101.476L58.2222 100.584L54.0237 100.289L49.8252 99.9938L49.4192 99.2359L49.0131 98.478L49.0067 97.8453L49.0002 97.2127L49.9167 96.1313L50.8332 95.0499L55.239 95.3152L59.6448 95.5806L61.9328 97.0293L64.2207 98.478L65.9635 100.517L67.7062 102.556L68.8622 105.963L70.0181 109.37V110.771V112.171L69.3504 113.296L68.6826 114.421H67.9156H67.1485L66.4928 113.535ZM76.0912 113.975L75.5159 113.545L74.9035 109.301L74.2911 105.058L72.9772 101.874L71.6633 98.6913L69.4466 96.018L67.2298 93.3447L64.4417 91.7499L61.6536 90.155L58.8656 89.6387L56.0775 89.1225L53.2128 89.1185L50.3481 89.1148L49.674 88.3195L49 87.5242V86.6265V85.7289L49.7844 84.8913L50.5688 84.0536L54.181 84.0624L57.7932 84.0712L60.7958 84.8184L63.7983 85.5655L66.4297 87.0901L69.061 88.6146L72.1261 91.963L75.1912 95.3114L76.866 99.4253L78.5407 103.539L79.0672 107.678L79.5935 111.817L78.8708 113.119L78.1479 114.421L77.4072 114.413L76.6665 114.405L76.0912 113.975ZM85.529 113.976L84.9549 113.547L84.529 109.302L84.1032 105.058L83.0179 101.262L81.9326 97.4659L80.6649 94.8147L79.3973 92.1634L75.9742 88.0753L72.5511 83.9871L68.6037 81.7501L64.6562 79.5129L61.5184 78.7466L58.3805 77.9802H54.3643H50.3481L49.674 77.1849L49 76.3896V75.4919V74.5943L49.7844 73.7567L50.5688 72.9191H54.9498H59.3306L62.5081 73.6935L65.6856 74.4679L67.3156 75.2343L68.9456 76.0006L71.2002 77.352L73.4548 78.7034L75.0336 76.7855L76.6124 74.8676L78.2725 73.8682L79.9327 72.8689L79.8009 71.0351L79.6691 69.2014L77.2248 68.2431L74.7805 67.2848L73.118 65.3232L71.4556 63.3616L70.9513 61.3756L70.447 59.3895V55.6271V51.8646L70.9617 51.2573L71.4764 50.6499H73.0524H74.6285L76.4521 51.4091L78.2757 52.1683H79.0797H79.8836V50.7284V49.2885L80.668 48.4508L81.4524 47.6132H82.1028H82.7532L83.4631 48.5388L84.173 49.4643V50.8163V52.1683L84.9236 52.1606L85.6743 52.153L87.39 51.4236L89.1058 50.6943L90.843 50.6721L92.5801 50.6499L93.0949 51.2572L93.6096 51.8646L93.5999 55.9388L93.5901 60.013L92.7652 62.0375L91.9403 64.062L91.3806 64.8397L90.8209 65.6175L89.5341 66.6655L88.2472 67.7135L86.317 68.4605L84.3868 69.2075V71.1748V73.1422L85.4592 73.7724L86.5315 74.4026L88.5886 76.4925L90.6457 78.5824L92.945 77.2551L95.2443 75.9277L98.3943 74.6452L101.544 73.3627L107.242 73.0643L112.94 72.766L113.998 73.4341L115.056 74.1023V75.2036V76.305L114.305 77.0826L113.555 77.8602L108.193 78.0996L102.831 78.3391L99.0399 79.9092L95.2488 81.4794L93.2493 82.8515L91.2498 84.2236L88.14 87.8773L85.0302 91.5311L85.0497 92.727L85.0691 93.9229L86.0713 96.1842L87.0734 98.4455L88.0893 96.953L89.1053 95.4604L92.0828 91.9588L95.0604 88.4572L97.7695 87.0078L100.479 85.5584L103.156 84.8135L105.834 84.0686L109.492 84.0611L113.149 84.0536L114.103 84.8415L115.056 85.6294V86.8482V88.067L114.226 88.5909L113.397 89.1148H110.173H106.948L104.675 89.6741L102.402 90.2334L99.799 91.6808L97.1957 93.1281L95.1891 95.2122L93.1826 97.2962L91.7122 100.418L90.2419 103.539L89.5663 106.649L88.8908 109.759V111.294V112.83L88.2168 113.625L87.5427 114.421L86.8227 114.413L86.1027 114.405L85.529 113.976ZM84.4946 84.8462L86.3175 82.6185V81.9133V81.208L85.4185 80.0693L84.5194 78.9306L83.3978 78.4274L82.2761 77.9243L81.2132 78.239L80.1503 78.5538L78.9445 79.5669L77.7388 80.5799V81.6721V82.7644L79.5618 84.8515L81.3848 86.9387L82.0282 87.0062L82.6716 87.0738L84.4946 84.8462ZM79.7313 62.5347L79.9812 61.7665L79.4642 60.2938L78.9472 58.8211L78.2076 58.0314L77.468 57.2416L76.0421 56.9051L74.6161 56.5686L74.9094 58.544L75.2026 60.5194L76.4775 61.9112L77.7523 63.303H78.6169H79.4815L79.7313 62.5347ZM87.5947 61.9112L88.8854 60.5194L88.9955 58.7483L89.1056 56.9772L88.1997 56.8243L87.2937 56.6714L85.9793 57.9764L84.6648 59.2814L84.387 60.7737L84.1093 62.2661L84.3808 62.7845L84.6524 63.303H85.4782H86.304L87.5947 61.9112ZM94.6436 113.158L93.9422 111.895L94.2258 109.995L94.5094 108.094L95.1601 105.712L95.8107 103.33L97.8199 100.807L99.8291 98.2832L102.403 96.8863L104.976 95.4895L108.941 95.2787L112.906 95.0679L113.981 95.899L115.056 96.7301V97.9659V99.2017L114.227 99.7256L113.397 100.25H110.444H107.491L105.317 101.011L103.142 101.773L101.482 103.732L99.8225 105.691L99.073 108.158L98.3235 110.625L98.3252 111.728L98.3268 112.83L97.6527 113.626L96.9787 114.421H96.1613H95.344L94.6436 113.158ZM211.278 91.6404L209.488 91.2054L208.232 90.4391L206.976 89.6728L205.649 87.8894L204.322 86.1059L203.872 84.1942L203.422 82.2824V80.511V78.7396L203.891 76.7151L204.36 74.6906L205.451 72.9846L206.543 71.2786L208.866 70.0237L211.189 68.7689L214.702 68.9532L218.216 69.1376L219.923 70.1427L221.631 71.1478L222.913 73.3198L224.194 75.4919L223.735 76.3565L223.275 77.2212L221.389 77.3618L219.503 77.5024L217.816 75.7169L216.13 73.9314L214.17 73.9427L212.211 73.954L211.296 74.8285L210.381 75.7029L209.866 76.8872L209.351 78.0715L209.354 80.177L209.358 82.2824L209.788 83.6078L210.218 84.9332L211.38 86.0119L212.542 87.0906H214.174H215.806L217.813 85.0408L219.82 82.9911L221.807 83.1429L223.793 83.2947L223.928 84.6773L224.063 86.06L222.87 87.9055L221.677 89.7511L219.926 90.6369L218.175 91.5227L215.622 91.799L213.07 92.0753L211.278 91.6404ZM159.931 90.9924L159.218 90.3779L159.335 80.0037L159.451 69.6293H166.314H173.177L175.179 70.7929L177.181 71.9565L177.917 73.2816L178.653 74.6066L178.697 76.6103L178.742 78.614L177.074 80.3157L175.405 82.0174L177.191 85.0207L178.976 88.0241L179.245 89.6076L179.513 91.1911L176.781 91.0387L174.049 90.8862L173.184 89.2252L172.319 87.5641L171.447 85.9354L170.574 84.3067L167.972 84.158L165.37 84.0092L165.102 87.3933L164.834 90.7772L164.716 90.887L164.599 90.9967L162.621 91.3017L160.643 91.6068L159.931 90.9924ZM171.247 78.5425L172.319 78.1935L172.448 76.6612L172.577 75.1289L171.463 74.5301L170.349 73.9313H169.136H167.923L166.624 74.2377L165.326 74.5441L165.126 76.1357L164.926 77.7272L165.13 78.3598L165.334 78.9925L167.754 78.942L170.175 78.8916L171.247 78.5425ZM228.263 91.0291L227.438 90.6658V80.8216V70.9774L227.698 70.1768L227.959 69.3763H233.411H238.864L241.066 70.1479L243.268 70.9196L244.636 72.278L246.004 73.6364L246.792 75.6818L247.579 77.7272L247.589 80.4006L247.599 83.0739L247.021 84.7026L246.443 86.3312L244.885 88.1681L243.327 90.0051L242.138 90.372L240.95 90.7388L235.02 91.0656L229.09 91.3924L228.263 91.0291ZM239.155 85.9987L240.092 85.4131L240.842 84.4029L241.593 83.3926V80.2686V77.1445L240.486 75.9175L239.38 74.6905H236.304H233.229L233.106 79.9705L232.982 85.2505L233.199 85.9174L233.416 86.5842H235.817H238.218L239.155 85.9987ZM251.33 91.2371L249.271 91.0818L249.549 89.9718L249.827 88.8618L250.819 86.3312L251.81 83.8006L253.548 79.141L255.286 74.4813L256.391 71.9079L257.496 69.3344L260.804 69.4818L264.112 69.6293L265.268 72.413L266.425 75.1966L269.297 82.9268L272.17 90.657L271.89 90.9875L271.61 91.3179L269.207 91.2433L266.804 91.1687L266.208 90.5859L265.613 90.0031V89.3421V88.681L264.939 87.8857L264.265 87.0904H260.899H257.534L256.853 87.3985L256.173 87.7066L255.503 89.3728L254.832 91.039L254.111 91.2156L253.389 91.3924L251.33 91.2371ZM262.778 82.1194L262.996 81.7036L262.441 80.4408L261.885 79.1781L261.589 77.7864L261.293 76.3946L260.621 76.5548L259.948 76.715L259.151 79.198L258.353 81.681L258.577 82.1081L258.801 82.5353H260.681H262.56L262.778 82.1194ZM296.81 91.2377L294.764 91.083L294.88 80.3562L294.996 69.6293L303.304 69.4917L311.613 69.354L312.227 69.9544L312.84 70.5549L312.711 72.3696L312.582 74.1844L306.727 74.3249L300.872 74.4653L300.449 75.084L300.027 75.7027L300.394 76.8456L300.761 77.9884L304.341 77.6638L307.921 77.3391L308.881 77.9458L309.842 78.5526L309.711 80.4174L309.579 82.2823L305.076 82.5353L300.572 82.7884L300.437 84.4333L300.303 86.0781L300.866 86.0812L301.43 86.0842L306.764 86.3623L312.098 86.6404L312.447 86.895L312.796 87.1497V88.9071V90.6645L312.26 90.8812L311.724 91.0979L305.29 91.2449L298.856 91.3919L296.81 91.2377ZM332.393 91.2331L330.757 91.0741L329.605 88.7537L328.453 86.4333L327.595 85.2494L326.737 84.0656L324.855 83.8023L322.973 83.539L322.388 84.1112L321.804 84.6834V87.1107V89.5379L321.544 90.3385L321.283 91.139H318.747H316.211L316.327 80.384L316.442 69.629L322.402 69.4878L328.362 69.3465L330.605 70.1161L332.849 70.8858L334.004 72.6716L335.158 74.4574L335.402 76.232L335.646 78.0066L333.852 80.0202L332.058 82.0338L333.093 83.6762L334.127 85.3187L335.258 87.6407L336.388 89.9627V90.4934V91.0241L335.208 91.2081L334.029 91.3921L332.393 91.2331ZM328.883 77.9779L329.661 76.9636L329.189 75.7405L328.716 74.5173L326.44 74.2159L324.163 73.9145L323.305 74.1371L322.448 74.3597L322.126 74.3984L321.804 74.4374V76.3775V78.3176L322.09 78.655L322.376 78.9925H325.241H328.105L328.883 77.9779ZM341.75 91.1914L340.034 90.886L339.912 81.2697L339.79 71.6535L340.028 70.5147L340.265 69.376H346.4H352.535L354.434 70.1558L356.334 70.9357L357.236 71.8217L358.138 72.7077L358.63 73.7922L359.122 74.8767V76.7397V78.6026L357.591 80.2568L356.061 81.911L358.02 85.6262L359.979 89.3414V90.2402V91.139H357.199H354.418L353.383 88.7301L352.349 86.3213L351.553 85.1615L350.757 84.0017L348.58 83.9432L346.403 83.8847L345.899 84.252L345.396 84.6192V87.8791V91.139H345.002H344.608L344.037 91.3179L343.465 91.4968L341.75 91.1914ZM352.428 78.3346L353.19 77.677L353.046 76.1836L352.902 74.6905H349.256H345.61L345.471 76.125L345.332 77.5596L345.565 78.276L345.798 78.9924H348.732H351.666L352.428 78.3346ZM182.927 80.3843L183.043 69.6293L191.718 69.4923L200.394 69.3553L200.665 70.6311L200.937 71.9068L200.668 73.1721L200.399 74.4374H194.631H188.864L188.38 75.504L187.896 76.5705L188.387 77.1488L188.877 77.7271H192.909H196.94L197.422 78.2954L197.904 78.8637L197.765 80.573L197.627 82.2822L193.123 82.5353L188.619 82.7883L188.478 84.2518L188.336 85.7152L188.907 86.139L189.477 86.5629L194.218 86.2491L198.958 85.9353L199.901 86.5306L200.844 87.1259V88.332V89.5381L200.584 90.3387L200.323 91.1392H191.567H182.812L182.927 80.3843ZM280.197 83.3564V75.5736L279.645 75.0324L279.092 74.4913L276.32 74.3378L273.549 74.1843L273.42 72.3696L273.291 70.5549L273.904 69.9549L274.516 69.3549L283.255 69.4921L291.993 69.6293V71.9068V74.1844L288.99 74.4374L285.988 74.6905L285.884 81.7761L285.779 88.8618L285.554 90.0005L285.328 91.1393H282.763H280.197L280.197 83.3564ZM361.266 90.7473V90.3554L364.631 81.5107L367.995 72.666L368.726 71.0002L369.456 69.3345L372.697 69.4819L375.937 69.6293L376.884 71.6537L377.83 73.6782L378.422 75.4496L379.014 77.221L380.384 80.7638L381.754 84.3067L382.877 87.4546L384 90.6026V90.8941V91.1855L381.109 91.0358L378.217 90.8862L377.655 89.4985L377.093 88.1107L376.365 87.6508L375.636 87.1909L373.92 87.1513L372.204 87.1116L370.139 87.4061L368.073 87.7005L367.379 89.4199L366.684 91.1392H363.975H361.266V90.7473ZM374.563 81.4953V80.4553L373.695 78.2055L372.826 75.9557H372.63H372.433L371.324 78.5376L370.216 81.1194L370.446 81.8273L370.676 82.5353H372.62H374.563V81.4953Z" fill="#F2F2F2"/>
<g filter="url(#filter0_d_354_66)">
<path d="M568.92 85V71.872L568.44 69.448L568.92 68.008H576.6C577.768 68.008 578.816 68.192 579.744 68.56C580.688 68.912 581.432 69.52 581.976 70.384C582.536 71.232 582.816 72.408 582.816 73.912C582.816 75.416 582.52 76.608 581.928 77.488C581.336 78.352 580.512 78.968 579.456 79.336C578.416 79.704 577.224 79.888 575.88 79.888H573.24V81.136L573.48 83.536L573.24 85H568.92ZM573.24 76.12H575.592C576.424 76.12 577.088 75.968 577.584 75.664C578.08 75.344 578.328 74.76 578.328 73.912C578.328 73.32 578.208 72.88 577.968 72.592C577.728 72.288 577.392 72.088 576.96 71.992C576.544 71.896 576.056 71.848 575.496 71.848H573L573.24 76.12ZM585.48 85V77.488L584.976 75.088L585.48 73.648H588.744L589.224 74.2C589.224 74.2 589.336 74.136 589.56 74.008C589.784 73.864 590.096 73.728 590.496 73.6C590.912 73.472 591.392 73.408 591.936 73.408C592.256 73.408 592.576 73.432 592.896 73.48C593.216 73.528 593.464 73.592 593.64 73.672L595.2 74.992L593.64 78.064L590.472 76.744L589.752 76.984V85H585.48ZM601.213 85.24C599.261 85.24 597.749 84.776 596.677 83.848C595.605 82.92 595.069 81.416 595.069 79.336C595.069 77.24 595.605 75.736 596.677 74.824C597.749 73.896 599.261 73.432 601.213 73.432C603.213 73.432 604.725 73.896 605.749 74.824C606.789 75.736 607.309 77.24 607.309 79.336C607.309 81.416 606.789 82.92 605.749 83.848C604.725 84.776 603.213 85.24 601.213 85.24ZM601.213 82.12C601.869 82.12 602.325 81.88 602.581 81.4C602.837 80.904 602.965 80.216 602.965 79.336C602.965 78.44 602.837 77.752 602.581 77.272C602.325 76.792 601.869 76.552 601.213 76.552C600.541 76.552 600.069 76.792 599.797 77.272C599.541 77.752 599.413 78.44 599.413 79.336C599.413 80.216 599.541 80.904 599.797 81.4C600.069 81.88 600.541 82.12 601.213 82.12ZM613.058 85.24C612.306 85.24 611.578 85.048 610.874 84.664C610.186 84.28 609.618 83.672 609.17 82.84C608.722 82.008 608.498 80.92 608.498 79.576C608.498 78.088 608.714 76.896 609.146 76C609.594 75.104 610.17 74.456 610.874 74.056C611.578 73.64 612.306 73.432 613.058 73.432C614.194 73.432 614.994 73.528 615.458 73.72C615.938 73.912 616.178 74.008 616.178 74.008L615.938 69.472L616.178 68.032H620.522V81.16L621.002 83.56L620.522 85.024H616.418V83.848L616.178 83.728C616.178 83.728 616.058 83.856 615.818 84.112C615.578 84.352 615.226 84.6 614.762 84.856C614.298 85.112 613.73 85.24 613.058 85.24ZM614.858 81.856L616.178 81.52V78.016C616.178 77.648 616.058 77.36 615.818 77.152C615.578 76.928 615.258 76.816 614.858 76.816C614.266 76.816 613.818 77.016 613.514 77.416C613.21 77.8 613.058 78.44 613.058 79.336C613.058 80.216 613.234 80.856 613.586 81.256C613.938 81.656 614.362 81.856 614.858 81.856ZM626.521 85.24C625.561 85.24 624.817 85.056 624.289 84.688C623.777 84.32 623.417 83.792 623.209 83.104C623.017 82.4 622.921 81.56 622.921 80.584V73.648H627.241V79.96C627.241 80.552 627.353 81.016 627.577 81.352C627.817 81.688 628.169 81.856 628.633 81.856C629.065 81.856 629.457 81.672 629.809 81.304C630.177 80.936 630.361 80.4 630.361 79.696V73.648H634.681V81.136L635.185 83.536L634.681 85H630.625V83.824L630.385 83.704C630.177 83.912 629.873 84.136 629.473 84.376C629.089 84.616 628.641 84.824 628.129 85C627.633 85.16 627.097 85.24 626.521 85.24ZM641.639 85.24C640.551 85.24 639.679 84.92 639.023 84.28C638.367 83.64 638.039 82.832 638.039 81.856V76.624H636.287V74.344L637.799 73.168L639.503 70.192H642.335V73.672H645.695V76.792H642.335V81.928L645.695 81.904V84.52C645.695 84.52 645.503 84.584 645.119 84.712C644.751 84.824 644.263 84.936 643.655 85.048C643.047 85.176 642.375 85.24 641.639 85.24ZM653.15 85.24C651.198 85.24 649.686 84.776 648.614 83.848C647.542 82.92 647.006 81.416 647.006 79.336C647.006 77.24 647.542 75.736 648.614 74.824C649.686 73.896 651.198 73.432 653.15 73.432C655.15 73.432 656.662 73.896 657.686 74.824C658.726 75.736 659.246 77.24 659.246 79.336C659.246 81.416 658.726 82.92 657.686 83.848C656.662 84.776 655.15 85.24 653.15 85.24ZM653.15 82.12C653.806 82.12 654.262 81.88 654.518 81.4C654.774 80.904 654.902 80.216 654.902 79.336C654.902 78.44 654.774 77.752 654.518 77.272C654.262 76.792 653.806 76.552 653.15 76.552C652.478 76.552 652.006 76.792 651.734 77.272C651.478 77.752 651.35 78.44 651.35 79.336C651.35 80.216 651.478 80.904 651.734 81.4C652.006 81.88 652.478 82.12 653.15 82.12ZM665.956 85.24C664.788 85.24 663.756 85.12 662.86 84.88C661.964 84.64 661.268 84.392 660.772 84.136V80.8C661.428 81.088 662.1 81.312 662.788 81.472C663.492 81.632 664.124 81.744 664.684 81.808C665.244 81.856 665.644 81.88 665.884 81.88C666.156 81.88 666.348 81.84 666.46 81.76C666.572 81.664 666.628 81.552 666.628 81.424C666.628 81.248 666.484 81.104 666.196 80.992C665.908 80.864 665.364 80.704 664.564 80.512C663.908 80.352 663.268 80.152 662.644 79.912C662.036 79.656 661.532 79.304 661.132 78.856C660.748 78.408 660.556 77.808 660.556 77.056C660.556 76.128 660.772 75.4 661.204 74.872C661.636 74.344 662.252 73.976 663.052 73.768C663.852 73.544 664.788 73.432 665.86 73.432C666.468 73.432 667.036 73.464 667.564 73.528C668.092 73.592 668.468 73.64 668.692 73.672L670.924 75.112L669.844 77.68L665.644 76.768C665.132 76.768 664.876 76.936 664.876 77.272C664.876 77.624 665.244 77.888 665.98 78.064C666.556 78.192 667.148 78.336 667.756 78.496C668.364 78.64 668.916 78.832 669.412 79.072C669.924 79.312 670.332 79.632 670.636 80.032C670.956 80.432 671.116 80.96 671.116 81.616C671.116 82.832 670.676 83.744 669.796 84.352C668.932 84.944 667.652 85.24 665.956 85.24Z" fill="#F2F2F2"/>
</g>
<g filter="url(#filter1_d_354_66)">
<path d="M759.44 85.24C758.56 85.24 757.728 85.16 756.944 85C756.16 84.824 755.48 84.616 754.904 84.376C754.328 84.136 753.904 83.912 753.632 83.704V79.408C754.4 79.84 755.368 80.248 756.536 80.632C757.704 81 759 81.184 760.424 81.184C761 81.184 761.424 81.112 761.696 80.968C761.984 80.808 762.128 80.536 762.128 80.152C762.128 79.736 761.808 79.392 761.168 79.12C760.544 78.832 759.552 78.48 758.192 78.064C757.136 77.728 756.232 77.36 755.48 76.96C754.744 76.544 754.176 76.032 753.776 75.424C753.392 74.8 753.2 74.008 753.2 73.048C753.2 72.056 753.456 71.16 753.968 70.36C754.48 69.56 755.28 68.928 756.368 68.464C757.456 68 758.848 67.768 760.544 67.768C761.056 67.768 761.6 67.792 762.176 67.84C762.768 67.872 763.24 67.92 763.592 67.984L766.304 69.976L765.368 72.904L759.68 71.344C759.024 71.344 758.536 71.48 758.216 71.752C757.912 72.024 757.76 72.352 757.76 72.736C757.76 73.2 758.024 73.568 758.552 73.84C759.08 74.112 759.84 74.384 760.832 74.656C762.4 75.088 763.616 75.568 764.48 76.096C765.344 76.624 765.952 77.224 766.304 77.896C766.656 78.552 766.832 79.296 766.832 80.128C766.832 81.664 766.216 82.904 764.984 83.848C763.752 84.776 761.904 85.24 759.44 85.24ZM774.541 85.24C772.589 85.24 771.077 84.776 770.005 83.848C768.933 82.92 768.397 81.416 768.397 79.336C768.397 77.24 768.933 75.736 770.005 74.824C771.077 73.896 772.589 73.432 774.541 73.432C776.541 73.432 778.053 73.896 779.077 74.824C780.117 75.736 780.637 77.24 780.637 79.336C780.637 81.416 780.117 82.92 779.077 83.848C778.053 84.776 776.541 85.24 774.541 85.24ZM774.541 82.12C775.197 82.12 775.653 81.88 775.909 81.4C776.165 80.904 776.293 80.216 776.293 79.336C776.293 78.44 776.165 77.752 775.909 77.272C775.653 76.792 775.197 76.552 774.541 76.552C773.869 76.552 773.397 76.792 773.125 77.272C772.869 77.752 772.741 78.44 772.741 79.336C772.741 80.216 772.869 80.904 773.125 81.4C773.397 81.88 773.869 82.12 774.541 82.12ZM790.155 85.24C789.387 85.24 788.771 85.168 788.307 85.024C787.859 84.896 787.531 84.768 787.323 84.64C787.115 84.496 787.011 84.424 787.011 84.424V85.024H782.691V71.872L782.187 69.472L782.691 68.032H787.011V71.896L786.771 74.608L787.011 74.728C787.331 74.424 787.723 74.136 788.187 73.864C788.667 73.576 789.323 73.432 790.155 73.432C791.579 73.432 792.691 73.888 793.491 74.8C794.307 75.712 794.715 77.152 794.715 79.12C794.715 80.592 794.507 81.784 794.091 82.696C793.691 83.592 793.147 84.24 792.459 84.64C791.771 85.04 791.003 85.24 790.155 85.24ZM788.115 81.952C788.739 81.952 789.235 81.736 789.603 81.304C789.971 80.856 790.155 80.192 790.155 79.312C790.155 78.448 790.003 77.824 789.699 77.44C789.395 77.04 788.947 76.84 788.355 76.84L787.011 77.344V81.64C787.011 81.64 787.091 81.696 787.251 81.808C787.427 81.904 787.715 81.952 788.115 81.952ZM796.777 85V77.488L796.273 75.088L796.777 73.648H800.041L800.521 74.2C800.521 74.2 800.633 74.136 800.857 74.008C801.081 73.864 801.393 73.728 801.793 73.6C802.209 73.472 802.689 73.408 803.233 73.408C803.553 73.408 803.873 73.432 804.193 73.48C804.513 73.528 804.761 73.592 804.937 73.672L806.497 74.992L804.937 78.064L801.769 76.744L801.049 76.984V85H796.777ZM812.726 85.24C811.494 85.24 810.398 85.056 809.438 84.688C808.478 84.32 807.726 83.704 807.182 82.84C806.638 81.976 806.366 80.808 806.366 79.336C806.366 78.28 806.542 77.376 806.894 76.624C807.262 75.872 807.75 75.264 808.358 74.8C808.966 74.32 809.646 73.976 810.398 73.768C811.15 73.544 811.926 73.432 812.726 73.432C814.102 73.432 815.158 73.568 815.894 73.84C816.646 74.112 817.142 74.328 817.382 74.488L818.582 78.304L818.102 79.792H810.662C810.774 80.384 811.07 80.88 811.55 81.28C812.03 81.68 812.822 81.88 813.926 81.88C814.79 81.88 815.534 81.784 816.158 81.592C816.782 81.4 817.27 81.232 817.622 81.088V84.304C817.142 84.56 816.446 84.784 815.534 84.976C814.638 85.152 813.702 85.24 812.726 85.24ZM810.686 78.256L813.998 77.776L813.782 76.744C813.67 76.68 813.502 76.632 813.278 76.6C813.07 76.568 812.886 76.552 812.726 76.552C812.278 76.552 811.902 76.648 811.598 76.84C811.31 77.032 811.086 77.264 810.926 77.536C810.782 77.792 810.702 78.032 810.686 78.256Z" fill="#F2F2F2"/>
</g>
<g filter="url(#filter2_d_354_66)">
<path d="M885.576 85.24C884.488 85.24 883.432 85.12 882.408 84.88C881.384 84.624 880.456 84.176 879.624 83.536C878.808 82.896 878.16 82.008 877.68 80.872C877.2 79.736 876.96 78.28 876.96 76.504C876.96 74.856 877.2 73.472 877.68 72.352C878.16 71.232 878.8 70.336 879.6 69.664C880.4 68.992 881.272 68.512 882.216 68.224C883.176 67.92 884.136 67.768 885.096 67.768C885.912 67.768 886.704 67.832 887.472 67.96C888.256 68.088 888.824 68.232 889.176 68.392L891.84 70.576L889.68 74.056L885.576 71.944C884.44 71.944 883.48 72.32 882.696 73.072C881.912 73.808 881.52 74.952 881.52 76.504C881.52 77.608 881.712 78.504 882.096 79.192C882.496 79.88 883.04 80.384 883.728 80.704C884.416 81.024 885.2 81.184 886.08 81.184C887.008 81.184 887.8 81.112 888.456 80.968C889.112 80.808 889.688 80.624 890.184 80.416C890.68 80.192 891.152 79.976 891.6 79.768V83.8C891.04 84.152 890.296 84.48 889.368 84.784C888.44 85.088 887.176 85.24 885.576 85.24ZM899.408 85.24C897.456 85.24 895.944 84.776 894.872 83.848C893.8 82.92 893.264 81.416 893.264 79.336C893.264 77.24 893.8 75.736 894.872 74.824C895.944 73.896 897.456 73.432 899.408 73.432C901.408 73.432 902.92 73.896 903.944 74.824C904.984 75.736 905.504 77.24 905.504 79.336C905.504 81.416 904.984 82.92 903.944 83.848C902.92 84.776 901.408 85.24 899.408 85.24ZM899.408 82.12C900.064 82.12 900.52 81.88 900.776 81.4C901.032 80.904 901.16 80.216 901.16 79.336C901.16 78.44 901.032 77.752 900.776 77.272C900.52 76.792 900.064 76.552 899.408 76.552C898.736 76.552 898.264 76.792 897.992 77.272C897.736 77.752 897.608 78.44 897.608 79.336C897.608 80.216 897.736 80.904 897.992 81.4C898.264 81.88 898.736 82.12 899.408 82.12ZM907.534 85V77.776L907.054 75.136L907.798 73.672H911.374V74.704L911.59 74.848C911.766 74.688 912.006 74.504 912.31 74.296C912.63 74.072 913.014 73.872 913.462 73.696C913.91 73.52 914.414 73.432 914.974 73.432C916.414 73.432 917.494 73.84 918.214 74.656C918.934 75.472 919.294 76.616 919.294 78.088V81.136L919.798 83.536L919.294 85H914.974V78.712C914.974 78.104 914.838 77.64 914.566 77.32C914.31 76.984 913.902 76.816 913.342 76.816L911.854 77.272V85H907.534ZM926.792 85.24C925.624 85.24 924.592 85.12 923.696 84.88C922.8 84.64 922.104 84.392 921.608 84.136V80.8C922.264 81.088 922.936 81.312 923.624 81.472C924.328 81.632 924.96 81.744 925.52 81.808C926.08 81.856 926.48 81.88 926.72 81.88C926.992 81.88 927.184 81.84 927.296 81.76C927.408 81.664 927.464 81.552 927.464 81.424C927.464 81.248 927.32 81.104 927.032 80.992C926.744 80.864 926.2 80.704 925.4 80.512C924.744 80.352 924.104 80.152 923.48 79.912C922.872 79.656 922.368 79.304 921.968 78.856C921.584 78.408 921.392 77.808 921.392 77.056C921.392 76.128 921.608 75.4 922.04 74.872C922.472 74.344 923.088 73.976 923.888 73.768C924.688 73.544 925.624 73.432 926.696 73.432C927.304 73.432 927.872 73.464 928.4 73.528C928.928 73.592 929.304 73.64 929.528 73.672L931.76 75.112L930.68 77.68L926.48 76.768C925.968 76.768 925.712 76.936 925.712 77.272C925.712 77.624 926.08 77.888 926.816 78.064C927.392 78.192 927.984 78.336 928.592 78.496C929.2 78.64 929.752 78.832 930.248 79.072C930.76 79.312 931.168 79.632 931.472 80.032C931.792 80.432 931.952 80.96 931.952 81.616C931.952 82.832 931.512 83.744 930.632 84.352C929.768 84.944 928.488 85.24 926.792 85.24ZM939.152 85.24C938.048 85.24 937.048 85.056 936.152 84.688C935.272 84.32 934.568 83.704 934.04 82.84C933.528 81.976 933.272 80.808 933.272 79.336C933.272 77.848 933.552 76.68 934.112 75.832C934.672 74.968 935.4 74.352 936.296 73.984C937.192 73.616 938.144 73.432 939.152 73.432C940.032 73.432 940.784 73.464 941.408 73.528C942.048 73.592 942.472 73.648 942.68 73.696L944.552 75.808L942.632 78.424L939.872 76.792C938.496 76.792 937.808 77.64 937.808 79.336C937.808 80.216 938.016 80.864 938.432 81.28C938.848 81.68 939.488 81.88 940.352 81.88C941.216 81.88 941.992 81.76 942.68 81.52C943.368 81.28 943.904 81.056 944.288 80.848V84.304C943.792 84.56 943.136 84.784 942.32 84.976C941.52 85.152 940.464 85.24 939.152 85.24ZM949.116 72.976L946.068 69.904L949.116 66.856L952.164 69.904L949.116 72.976ZM946.956 85V77.056L946.452 75.136L946.932 73.672H951.276V85H946.956ZM959.483 85.24C958.251 85.24 957.155 85.056 956.195 84.688C955.235 84.32 954.483 83.704 953.939 82.84C953.395 81.976 953.123 80.808 953.123 79.336C953.123 78.28 953.299 77.376 953.651 76.624C954.019 75.872 954.507 75.264 955.115 74.8C955.723 74.32 956.403 73.976 957.155 73.768C957.907 73.544 958.683 73.432 959.483 73.432C960.859 73.432 961.915 73.568 962.651 73.84C963.403 74.112 963.899 74.328 964.139 74.488L965.339 78.304L964.859 79.792H957.419C957.531 80.384 957.827 80.88 958.307 81.28C958.787 81.68 959.579 81.88 960.683 81.88C961.547 81.88 962.291 81.784 962.915 81.592C963.539 81.4 964.027 81.232 964.379 81.088V84.304C963.899 84.56 963.203 84.784 962.291 84.976C961.395 85.152 960.459 85.24 959.483 85.24ZM957.443 78.256L960.755 77.776L960.539 76.744C960.427 76.68 960.259 76.632 960.035 76.6C959.827 76.568 959.643 76.552 959.483 76.552C959.035 76.552 958.659 76.648 958.355 76.84C958.067 77.032 957.843 77.264 957.683 77.536C957.539 77.792 957.459 78.032 957.443 78.256ZM967.346 85V77.776L966.866 75.136L967.61 73.672H971.186V74.704L971.402 74.848C971.578 74.688 971.818 74.504 972.122 74.296C972.442 74.072 972.826 73.872 973.274 73.696C973.722 73.52 974.226 73.432 974.786 73.432C976.226 73.432 977.306 73.84 978.026 74.656C978.746 75.472 979.106 76.616 979.106 78.088V81.136L979.61 83.536L979.106 85H974.786V78.712C974.786 78.104 974.65 77.64 974.378 77.32C974.122 76.984 973.714 76.816 973.154 76.816L971.666 77.272V85H967.346ZM986.076 85.24C984.988 85.24 984.116 84.92 983.46 84.28C982.804 83.64 982.476 82.832 982.476 81.856V76.624H980.724V74.344L982.236 73.168L983.94 70.192H986.772V73.672H990.132V76.792H986.772V81.928L990.132 81.904V84.52C990.132 84.52 989.94 84.584 989.556 84.712C989.188 84.824 988.7 84.936 988.092 85.048C987.484 85.176 986.812 85.24 986.076 85.24ZM994.444 72.976L991.396 69.904L994.444 66.856L997.492 69.904L994.444 72.976ZM992.284 85V77.056L991.78 75.136L992.26 73.672H996.604V85H992.284ZM998.332 85V82.84L1004.04 76.768H998.356V73.648H1009.61V75.904L1005.82 80.512L1004.38 81.88H1005.1L1010.04 81.4V85H998.332ZM1010.77 85L1011.92 80.944V77.896L1013.7 77.176L1016.82 68.032H1023.04L1026.9 78.784L1028.75 82.192V85H1024.5L1023.3 81.16H1016.32L1015.28 85H1010.77ZM1017.9 77.464H1021.98L1020.16 71.968H1019.65L1017.9 77.464ZM1032.83 85V71.848L1028.03 72.088V68.008H1042.07V72.088L1037.15 71.848V81.16L1037.41 83.56L1037.15 85H1032.83ZM1047.59 85.24C1046.35 85.24 1045.26 85.056 1044.3 84.688C1043.34 84.32 1042.59 83.704 1042.04 82.84C1041.5 81.976 1041.23 80.808 1041.23 79.336C1041.23 78.28 1041.4 77.376 1041.75 76.624C1042.12 75.872 1042.61 75.264 1043.22 74.8C1043.83 74.32 1044.51 73.976 1045.26 73.768C1046.01 73.544 1046.79 73.432 1047.59 73.432C1048.96 73.432 1050.02 73.568 1050.75 73.84C1051.51 74.112 1052 74.328 1052.24 74.488L1053.44 78.304L1052.96 79.792H1045.52C1045.63 80.384 1045.93 80.88 1046.41 81.28C1046.89 81.68 1047.68 81.88 1048.79 81.88C1049.65 81.88 1050.39 81.784 1051.02 81.592C1051.64 81.4 1052.13 81.232 1052.48 81.088V84.304C1052 84.56 1051.31 84.784 1050.39 84.976C1049.5 85.152 1048.56 85.24 1047.59 85.24ZM1045.55 78.256L1048.86 77.776L1048.64 76.744C1048.53 76.68 1048.36 76.632 1048.14 76.6C1047.93 76.568 1047.75 76.552 1047.59 76.552C1047.14 76.552 1046.76 76.648 1046.46 76.84C1046.17 77.032 1045.95 77.264 1045.79 77.536C1045.64 77.792 1045.56 78.032 1045.55 78.256ZM1055.47 85V77.488L1054.97 75.088L1055.47 73.648H1058.74L1059.22 74.2C1059.22 74.2 1059.33 74.136 1059.55 74.008C1059.78 73.864 1060.09 73.728 1060.49 73.6C1060.9 73.472 1061.38 73.408 1061.93 73.408C1062.25 73.408 1062.57 73.432 1062.89 73.48C1063.21 73.528 1063.46 73.592 1063.63 73.672L1065.19 74.992L1063.63 78.064L1060.46 76.744L1059.74 76.984V85H1055.47ZM1066.65 85V77.488L1066.15 75.088L1066.65 73.648H1069.92L1070.4 74.2C1070.4 74.2 1070.51 74.136 1070.73 74.008C1070.96 73.864 1071.27 73.728 1071.67 73.6C1072.08 73.472 1072.56 73.408 1073.11 73.408C1073.43 73.408 1073.75 73.432 1074.07 73.48C1074.39 73.528 1074.64 73.592 1074.81 73.672L1076.37 74.992L1074.81 78.064L1071.64 76.744L1070.92 76.984V85H1066.65ZM1080.2 85.24C1079.51 85.24 1078.87 85.144 1078.28 84.952C1077.7 84.744 1077.24 84.392 1076.89 83.896C1076.54 83.4 1076.36 82.712 1076.36 81.832C1076.36 81.032 1076.56 80.368 1076.96 79.84C1077.36 79.312 1077.9 78.92 1078.59 78.664C1079.28 78.408 1080.06 78.28 1080.92 78.28C1081.75 78.28 1082.38 78.376 1082.79 78.568C1083.21 78.744 1083.57 78.928 1083.87 79.12L1084.04 78.976C1084.04 78.496 1084 78.096 1083.92 77.776C1083.84 77.456 1083.66 77.216 1083.37 77.056C1083.08 76.88 1082.63 76.792 1082.02 76.792C1081.43 76.792 1080.8 76.848 1080.13 76.96C1079.47 77.056 1078.86 77.184 1078.3 77.344C1077.76 77.488 1077.35 77.632 1077.08 77.776V74.176C1077.58 74 1078.28 73.84 1079.19 73.696C1080.12 73.536 1081.26 73.456 1082.6 73.456C1084.04 73.456 1085.18 73.64 1086.01 74.008C1086.86 74.36 1087.46 74.88 1087.83 75.568C1088.2 76.24 1088.38 77.048 1088.38 77.992V81.184L1088.86 83.608L1088.38 85.024H1084.28V83.848L1084.04 83.728C1083.91 83.856 1083.69 84.04 1083.37 84.28C1083.05 84.52 1082.62 84.744 1082.1 84.952C1081.57 85.144 1080.94 85.24 1080.2 85.24ZM1082.24 82.096C1082.67 82.096 1083.04 82.056 1083.34 81.976C1083.66 81.896 1083.9 81.824 1084.04 81.76V81.304C1084.04 81.096 1083.89 80.896 1083.58 80.704C1083.3 80.512 1082.84 80.416 1082.22 80.416C1081.35 80.416 1080.92 80.72 1080.92 81.328C1080.92 81.584 1081.02 81.776 1081.21 81.904C1081.4 82.032 1081.74 82.096 1082.24 82.096Z" fill="#F2F2F2"/>
</g>
<path d="M1251.7 88.2C1253.4 86.9 1255.3 85.875 1257.4 85.125C1259.5 84.375 1261.7 84 1264 84C1266.3 84 1268.5 84.375 1270.6 85.125C1272.7 85.875 1274.6 86.9 1276.3 88.2C1277.47 86.8333 1278.38 85.2833 1279.03 83.55C1279.68 81.8167 1280 79.9667 1280 78C1280 73.5667 1278.44 69.7917 1275.33 66.675C1272.21 63.5583 1268.43 62 1264 62C1259.57 62 1255.79 63.5583 1252.68 66.675C1249.56 69.7917 1248 73.5667 1248 78C1248 79.9667 1248.33 81.8167 1248.98 83.55C1249.63 85.2833 1250.53 86.8333 1251.7 88.2ZM1264 80C1262.03 80 1260.38 79.325 1259.03 77.975C1257.68 76.625 1257 74.9667 1257 73C1257 71.0333 1257.68 69.375 1259.03 68.025C1260.38 66.675 1262.03 66 1264 66C1265.97 66 1267.63 66.675 1268.98 68.025C1270.33 69.375 1271 71.0333 1271 73C1271 74.9667 1270.33 76.625 1268.98 77.975C1267.63 79.325 1265.97 80 1264 80ZM1264 98C1261.23 98 1258.63 97.475 1256.2 96.425C1253.77 95.375 1251.65 93.95 1249.85 92.15C1248.05 90.35 1246.63 88.2333 1245.58 85.8C1244.53 83.3667 1244 80.7667 1244 78C1244 75.2333 1244.53 72.6333 1245.58 70.2C1246.63 67.7667 1248.05 65.65 1249.85 63.85C1251.65 62.05 1253.77 60.625 1256.2 59.575C1258.63 58.525 1261.23 58 1264 58C1266.77 58 1269.37 58.525 1271.8 59.575C1274.23 60.625 1276.35 62.05 1278.15 63.85C1279.95 65.65 1281.38 67.7667 1282.43 70.2C1283.48 72.6333 1284 75.2333 1284 78C1284 80.7667 1283.48 83.3667 1282.43 85.8C1281.38 88.2333 1279.95 90.35 1278.15 92.15C1276.35 93.95 1274.23 95.375 1271.8 96.425C1269.37 97.475 1266.77 98 1264 98ZM1264 94C1265.77 94 1267.43 93.7417 1269 93.225C1270.57 92.7083 1272 91.9667 1273.3 91C1272 90.0333 1270.57 89.2917 1269 88.775C1267.43 88.2583 1265.77 88 1264 88C1262.23 88 1260.57 88.2583 1259 88.775C1257.43 89.2917 1256 90.0333 1254.7 91C1256 91.9667 1257.43 92.7083 1259 93.225C1260.57 93.7417 1262.23 94 1264 94ZM1264 76C1264.87 76 1265.58 75.7167 1266.15 75.15C1266.72 74.5833 1267 73.8667 1267 73C1267 72.1333 1266.72 71.4167 1266.15 70.85C1265.58 70.2833 1264.87 70 1264 70C1263.13 70 1262.42 70.2833 1261.85 70.85C1261.28 71.4167 1261 72.1333 1261 73C1261 73.8667 1261.28 74.5833 1261.85 75.15C1262.42 75.7167 1263.13 76 1264 76Z" fill="white"/>
<path d="M1166 92V88H1170V74C1170 71.2333 1170.83 68.775 1172.5 66.625C1174.17 64.475 1176.33 63.0667 1179 62.4V61C1179 60.1667 1179.29 59.4583 1179.88 58.875C1180.46 58.2917 1181.17 58 1182 58C1182.83 58 1183.54 58.2917 1184.13 58.875C1184.71 59.4583 1185 60.1667 1185 61V62.4C1187.67 63.0667 1189.83 64.475 1191.5 66.625C1193.17 68.775 1194 71.2333 1194 74V88H1198V92H1166ZM1182 98C1180.9 98 1179.96 97.6083 1179.18 96.825C1178.39 96.0417 1178 95.1 1178 94H1186C1186 95.1 1185.61 96.0417 1184.83 96.825C1184.04 97.6083 1183.1 98 1182 98ZM1174 88H1190V74C1190 71.8 1189.22 69.9167 1187.65 68.35C1186.08 66.7833 1184.2 66 1182 66C1179.8 66 1177.92 66.7833 1176.35 68.35C1174.78 69.9167 1174 71.8 1174 74V88Z" fill="white"/>
<g filter="url(#filter3_d_354_66)">
<path d="M1333.56 92C1332.58 92 1331.74 91.6519 1331.04 90.9556C1330.35 90.2593 1330 89.4222 1330 88.4444V63.5556C1330 62.5778 1330.35 61.7407 1331.04 61.0444C1331.74 60.3481 1332.58 60 1333.56 60H1346V63.5556H1333.56V88.4444H1346V92H1333.56ZM1353.11 84.8889L1350.67 82.3111L1355.2 77.7778H1340.67V74.2222H1355.2L1350.67 69.6889L1353.11 67.1111L1362 76L1353.11 84.8889Z" fill="white"/>
</g>
<defs>
<filter id="filter0_d_354_66" x="564.44" y="68.008" width="110.676" height="25.232" filterUnits="userSpaceOnUse" color-interpolation-filters="sRGB">
<feFlood flood-opacity="0" result="BackgroundImageFix"/>
<feColorMatrix in="SourceAlpha" type="matrix" values="0 0 0 0 0 0 0 0 0 0 0 0 0 0 0 0 0 0 127 0" result="hardAlpha"/>
<feOffset dy="4"/>
<feGaussianBlur stdDeviation="2"/>
<feComposite in2="hardAlpha" operator="out"/>
<feColorMatrix type="matrix" values="0 0 0 0 0 0 0 0 0 0 0 0 0 0 0 0 0 0 0.25 0"/>
<feBlend mode="normal" in2="BackgroundImageFix" result="effect1_dropShadow_354_66"/>
<feBlend mode="normal" in="SourceGraphic" in2="effect1_dropShadow_354_66" result="shape"/>
</filter>
<filter id="filter1_d_354_66" x="749.2" y="67.768" width="73.3816" height="25.472" filterUnits="userSpaceOnUse" color-interpolation-filters="sRGB">
<feFlood flood-opacity="0" result="BackgroundImageFix"/>
<feColorMatrix in="SourceAlpha" type="matrix" values="0 0 0 0 0 0 0 0 0 0 0 0 0 0 0 0 0 0 127 0" result="hardAlpha"/>
<feOffset dy="4"/>
<feGaussianBlur stdDeviation="2"/>
<feComposite in2="hardAlpha" operator="out"/>
<feColorMatrix type="matrix" values="0 0 0 0 0 0 0 0 0 0 0 0 0 0 0 0 0 0 0.25 0"/>
<feBlend mode="normal" in2="BackgroundImageFix" result="effect1_dropShadow_354_66"/>
<feBlend mode="normal" in="SourceGraphic" in2="effect1_dropShadow_354_66" result="shape"/>
</filter>
<filter id="filter2_d_354_66" x="872.96" y="66.856" width="219.905" height="26.384" filterUnits="userSpaceOnUse" color-interpolation-filters="sRGB">
<feFlood flood-opacity="0" result="BackgroundImageFix"/>
<feColorMatrix in="SourceAlpha" type="matrix" values="0 0 0 0 0 0 0 0 0 0 0 0 0 0 0 0 0 0 127 0" result="hardAlpha"/>
<feOffset dy="4"/>
<feGaussianBlur stdDeviation="2"/>
<feComposite in2="hardAlpha" operator="out"/>
<feColorMatrix type="matrix" values="0 0 0 0 0 0 0 0 0 0 0 0 0 0 0 0 0 0 0.25 0"/>
<feBlend mode="normal" in2="BackgroundImageFix" result="effect1_dropShadow_354_66"/>
<feBlend mode="normal" in="SourceGraphic" in2="effect1_dropShadow_354_66" result="shape"/>
</filter>
<filter id="filter3_d_354_66" x="1326" y="60" width="40" height="40" filterUnits="userSpaceOnUse" color-interpolation-filters="sRGB">
<feFlood flood-opacity="0" result="BackgroundImageFix"/>
<feColorMatrix in="SourceAlpha" type="matrix" values="0 0 0 0 0 0 0 0 0 0 0 0 0 0 0 0 0 0 127 0" result="hardAlpha"/>
<feOffset dy="4"/>
<feGaussianBlur stdDeviation="2"/>
<feComposite in2="hardAlpha" operator="out"/>
<feColorMatrix type="matrix" values="0 0 0 0 0 0 0 0 0 0 0 0 0 0 0 0 0 0 0.25 0"/>
<feBlend mode="normal" in2="BackgroundImageFix" result="effect1_dropShadow_354_66"/>
<feBlend mode="normal" in="SourceGraphic" in2="effect1_dropShadow_354_66" result="shape"/>
</filter>
</defs>
</svg>
