<svg width="42" height="42" viewBox="0 0 42 42" fill="none" xmlns="http://www.w3.org/2000/svg">
<path d="M21 12.6666L12.6667 20.9999L21 29.3333L23.9167 26.4166L20.5833 23.0833H29.3333V18.9166H20.5833L23.9167 15.5833L21 12.6666ZM21 0.166584C23.8819 0.166584 26.5903 0.713459 29.125 1.80721C31.6597 2.90096 33.8646 4.38533 35.7396 6.26033C37.6146 8.13533 39.099 10.3402 40.1927 12.8749C41.2865 15.4096 41.8333 18.118 41.8333 20.9999C41.8333 23.8819 41.2865 26.5902 40.1927 29.1249C39.099 31.6596 37.6146 33.8645 35.7396 35.7395C33.8646 37.6145 31.6597 39.0989 29.125 40.1926C26.5903 41.2864 23.8819 41.8333 21 41.8333C18.118 41.8333 15.4097 41.2864 12.875 40.1926C10.3403 39.0989 8.13541 37.6145 6.26041 35.7395C4.38541 33.8645 2.90104 31.6596 1.80729 29.1249C0.713535 26.5902 0.16666 23.8819 0.16666 20.9999C0.16666 18.118 0.713535 15.4096 1.80729 12.8749C2.90104 10.3402 4.38541 8.13533 6.26041 6.26033C8.13541 4.38533 10.3403 2.90096 12.875 1.80721C15.4097 0.713459 18.118 0.166584 21 0.166584ZM21 4.33325C16.3472 4.33325 12.4062 5.94783 9.17708 9.177C5.94791 12.4062 4.33333 16.3471 4.33333 20.9999C4.33333 25.6527 5.94791 29.5937 9.17708 32.8228C12.4062 36.052 16.3472 37.6666 21 37.6666C25.6528 37.6666 29.5937 36.052 32.8229 32.8228C36.0521 29.5937 37.6667 25.6527 37.6667 20.9999C37.6667 16.3471 36.0521 12.4062 32.8229 9.177C29.5937 5.94783 25.6528 4.33325 21 4.33325Z" fill="#98FF68"/>
</svg>
