<svg width="597" height="373" viewBox="0 0 597 373" fill="none" xmlns="http://www.w3.org/2000/svg">
<g clip-path="url(#clip0_48_165)">
<path d="M307.155 54.2656C301.785 47.2993 295.421 39.8614 285.454 37.5867C273.912 34.9525 262.056 40.1855 251.999 45.3493C221.923 60.7929 192.959 77.5293 165.24 95.4818L165.27 95.7523C186.851 94.5851 208.431 93.418 230.011 92.2508C245.603 91.4076 261.73 90.448 275.509 84.6633C280.738 82.4683 285.834 79.5361 291.759 79.3318C299.12 79.078 305.539 83.1099 310.583 87.3223C340.419 112.24 349.053 150.345 382.527 172.237C361.42 131.412 336.217 91.9647 307.155 54.2656Z" fill="#F2F2F2"/>
<path d="M490.557 265.613C487.257 262.345 485.909 261.58 482.655 258.282C456.154 231.402 431.246 203.614 407.93 174.918C392.093 155.429 377.041 135.565 362.775 115.328C355.983 105.706 349.377 96.0096 342.957 86.2373C337.976 78.6601 333.106 71.0376 328.347 63.3698C326.985 61.1797 325.663 58.9796 324.347 56.7744C321.246 51.5887 318.203 46.3778 314.936 41.2626C311.213 35.4324 306.68 29.3203 299.843 25.4034C296.732 23.5476 293.011 22.4248 289.116 22.1661C283.55 21.8841 278.415 23.6866 273.587 25.6551C238.266 40.0996 205.199 58.2093 175.29 78.8162C145.305 99.4694 118.503 122.803 95.4302 148.34C94.7244 149.13 93.0552 148.375 93.7677 147.58C96.5731 144.468 99.4341 141.39 102.351 138.346C138.617 100.519 183.085 67.9891 233.721 42.2443C242.24 37.9145 250.92 33.7878 259.759 29.8641C264.214 27.8854 268.689 25.932 273.24 24.0994C277.702 22.302 282.44 20.6859 287.537 20.6254C304.883 20.414 313.864 35.8201 320.033 46.1865C321.972 49.4489 323.934 52.7013 325.92 55.9437C333.424 68.2534 341.218 80.4508 349.3 92.5357C354.288 99.9971 359.385 107.415 364.592 114.789C380.795 137.752 398.016 160.25 416.257 182.284C440.42 211.47 464.391 237.252 491.918 264.545C492.676 265.3 491.321 266.378 490.557 265.613Z" fill="#E4E4E4"/>
<path d="M173.576 71.2088C172.568 70.3277 171.567 69.4467 170.553 68.5656C162.554 61.6278 153.971 54.7706 142.987 50.7932C137.749 48.8368 132.032 47.7975 126.232 47.7472C120.236 47.7623 114.375 48.9958 108.835 50.7227C106.215 51.5434 103.654 52.4748 101.131 53.4666C98.2486 54.6044 95.4174 55.8178 92.5994 57.0412C87.3095 59.337 82.0883 61.7335 76.9356 64.2307C66.6834 69.1999 56.7523 74.5484 47.1422 80.2762C42.1604 83.2467 37.2814 86.3145 32.5053 89.4796C28.063 92.4198 23.7105 95.439 19.4479 98.537C18.5364 99.1965 17.1753 98.1292 18.0869 97.4696C19.2103 96.649 20.3466 95.8334 21.4829 95.0278C24.6927 92.7521 27.9539 90.5201 31.2665 88.3317C37.3071 84.3342 43.5042 80.491 49.8576 76.8023C59.7375 71.0628 69.9575 65.7126 80.5175 60.7518C85.7946 58.2747 91.1443 55.9017 96.5666 53.6327C98.2037 52.948 99.86 52.2784 101.535 51.644C105.337 50.1401 109.287 48.879 113.347 47.8731C119.099 46.4139 125.184 45.9451 131.188 46.4986C136.984 47.1599 142.569 48.6751 147.648 50.9644C158.432 55.6919 166.797 63.0022 174.937 70.1364C175.759 70.8614 174.404 71.9338 173.576 71.2088Z" fill="#E4E4E4"/>
<path d="M394.554 143.103L420.397 135.69L433.228 132.009C437.407 130.81 441.576 129.446 445.896 128.587C449.65 127.746 453.636 127.786 457.362 128.702C460.685 129.666 463.726 131.145 466.305 133.05C468.94 134.953 471.392 137.006 473.641 139.193C476.434 141.826 479.187 144.487 481.951 147.138C493.362 158.083 504.697 169.074 515.958 180.113C527.219 191.152 538.405 202.238 549.515 213.37C560.653 224.53 571.714 235.737 582.698 246.99C584.044 248.368 585.388 249.748 586.731 251.128C587.473 251.89 589.147 251.138 588.394 250.365C577.329 238.999 566.186 227.679 554.967 216.406C543.72 205.106 532.395 193.853 520.992 182.649C509.59 171.445 498.11 160.289 486.554 149.182C483.675 146.415 480.791 143.651 477.902 140.89C475.466 138.561 473.057 136.207 470.384 134.039C465.479 130.06 459.349 126.544 452.013 126.448C447.7 126.392 443.525 127.466 439.517 128.603C435.197 129.829 430.887 131.077 426.572 132.315L400.548 139.78L394.042 141.646C392.887 141.977 393.386 143.438 394.554 143.103Z" fill="#E4E4E4"/>
<path d="M139.586 59.523C126.453 54.2295 109.634 55.2663 97.566 61.8798C120.585 64.9944 143.353 69.1618 165.752 74.3607C156.45 70.0858 149.174 63.388 139.586 59.523Z" fill="#F2F2F2"/>
<path d="M97.4367 61.8616L94.9084 63.4733C95.7636 62.9092 96.6527 62.3803 97.566 61.8798C97.5228 61.874 97.4798 61.8674 97.4367 61.8616Z" fill="#F2F2F2"/>
<path d="M465.332 143.177C462.788 140.748 460.038 138.205 456.233 137.219L452.68 137.329C479.723 174.805 516.247 207.552 560.009 233.56C528.45 203.432 496.891 173.304 465.332 143.177Z" fill="#F2F2F2"/>
<path d="M131.346 267.51C129.795 269.151 128.145 270.739 126.396 272.255C111.179 274.271 97.0636 276.45 84.1316 278.666C80.3919 279.305 76.7548 279.948 73.2205 280.593L73.3024 280.395C72.1203 273.214 73.4316 265.915 77.0977 259.269C77.3245 258.861 77.5583 258.453 77.7991 258.051C80.207 253.992 83.4783 250.284 87.4727 247.086C93.549 242.251 101.144 238.632 108.923 235.231C123.484 228.869 138.663 223.25 145.635 211.787C148.532 221.333 148.755 231.258 146.288 240.878C143.821 250.498 138.723 259.584 131.346 267.51Z" fill="#E6E6E6"/>
<path d="M52.3634 236.952C59.1867 231.576 64.9824 225.455 69.5701 218.777C74.1441 212.134 77.4991 205.018 79.5355 197.639C81.6001 190.15 82.2286 182.462 81.4002 174.828C79.6854 159.28 72.1974 144.468 59.8622 132.222C59.109 131.478 58.338 130.744 57.5494 130.022C56.6701 129.215 55.2031 130.395 56.0763 131.197C68.6547 142.827 76.6092 157.095 78.9555 172.234C80.6592 183.803 79.0187 195.524 74.1558 206.528C69.2929 217.532 61.3326 227.535 50.8656 235.796C49.9093 236.548 51.4073 237.703 52.3634 236.952Z" fill="#CCCCCC"/>
<path d="M60.7238 133.616C59.8707 133.372 59.0348 133.092 58.2198 132.778C58.1793 132.828 58.1398 132.879 58.0992 132.929L60.7238 133.616Z" fill="#E6E6E6"/>
<path d="M61.4245 112.418C58.4572 109.552 52.8294 108.294 48.7878 110.188C46.0778 111.458 44.4732 113.903 44.191 116.368C44.0159 118.856 44.7239 121.332 46.2363 123.523C48.8456 127.545 53.0514 130.794 58.2197 132.778C60.7091 129.712 63.0402 126.488 64.0093 122.936C64.994 119.325 64.3918 115.285 61.4245 112.418Z" fill="#CCCCCC"/>
<path d="M97.8944 132.775C99.3544 128.038 99.4875 123.108 98.2846 118.327C97.0816 113.545 94.5711 109.025 90.9261 105.077C90.2866 114.744 77.4426 120.981 72.8108 129.954C71.3935 132.761 70.7998 135.782 71.0737 138.793C71.3476 141.805 72.4821 144.729 74.3931 147.35L75.181 154.678C80.7604 152.531 85.6802 149.462 89.6014 145.68C93.5225 141.899 96.3519 137.496 97.8944 132.775Z" fill="#CCCCCC"/>
<path d="M121.052 160.044C114.684 168.336 99.6084 169.095 90.135 175.3C87.1992 177.253 84.8614 179.699 83.2949 182.456C81.7283 185.214 80.9732 188.213 81.0854 191.231L77.381 197.986C83.5973 198.187 89.7936 197.311 95.5296 195.421C101.266 193.532 106.4 190.674 110.569 187.052C114.738 183.43 117.839 179.133 119.65 174.465C121.462 169.797 121.941 164.874 121.052 160.044Z" fill="#CCCCCC"/>
<path d="M61.788 178.475C56.9647 181.557 53.0662 185.434 50.3695 189.831C47.6728 194.228 46.2442 199.037 46.185 203.916C46.1259 208.796 47.4377 213.625 50.0273 218.062C52.6169 222.498 56.4207 226.433 61.1684 229.586L64.2744 222.648C66.9624 220.487 68.9959 217.879 70.2241 215.018C71.4522 212.156 71.8437 209.115 71.3693 206.119C69.7548 196.522 59.3158 187.958 61.788 178.475Z" fill="#CCCCCC"/>
<path d="M62.4863 272.14C59.9443 278.082 53.8031 282.73 46.7904 285.775C46.421 285.937 46.0515 286.093 45.682 286.243C45.3752 286.372 45.0614 286.495 44.7475 286.612C42.2171 287.057 39.6651 287.436 37.1275 287.859C37.1205 287.859 37.1136 287.865 37.1066 287.865C33.3199 288.702 29.7477 289.518 26.39 290.313C24.5039 290.754 22.6807 291.188 20.9346 291.617C20.704 291.668 20.4805 291.725 20.25 291.781C19.9497 291.854 19.6563 291.928 19.3629 291.995C19.3558 291.985 19.3488 291.979 19.3486 291.968C19.3416 291.963 19.3416 291.963 19.3485 291.957C17.9999 289.593 16.6931 287.224 15.442 284.815C10.5068 275.552 6.5886 265.976 3.73017 256.19C0.346828 244.239 -1.00111 232.055 0.802537 219.895C2.0525 211.531 4.97429 203.373 9.4605 195.722C10.1072 194.63 10.7844 193.551 11.492 192.485C11.7055 192.148 11.9261 191.817 12.1607 191.486L12.1606 191.481C12.1813 191.448 12.2089 191.415 12.2366 191.376L12.34 191.227L12.3399 191.222C12.9537 190.328 13.5933 189.447 14.2587 188.578C17.5598 184.205 21.4642 180.129 25.9015 176.425C33.4056 170.059 42.6698 165.127 52.9829 162.007L52.9899 162.007C53.4855 161.855 53.9883 161.715 54.491 161.574C54.2994 161.998 54.1077 162.417 53.9232 162.841C51.4066 168.542 49.4735 174.391 48.1425 180.333C48.0423 180.789 47.9421 181.251 47.849 181.713C44.8618 196.049 45.2952 210.695 49.1272 224.906C49.1346 224.945 49.149 224.983 49.1564 225.021C50.0092 228.168 51.0343 231.281 52.2318 234.36C52.2608 234.448 52.2897 234.53 52.3256 234.618C52.556 235.215 52.8005 235.812 53.0449 236.403C53.7565 238.129 54.524 239.841 55.3474 241.54C60.1447 251.455 66.7914 262.088 62.4863 272.14Z" fill="#F0F0F0"/>
<path d="M54.7971 162.044C54.4988 162.31 54.2075 162.575 53.9231 162.841C47.8158 168.421 42.514 174.514 38.1144 181.008C37.8937 181.333 37.6732 181.664 37.4596 181.995C31.4508 191.061 27.269 200.802 25.063 210.872C25.07 210.877 25.07 210.877 25.0631 210.883C25.0431 210.976 25.0231 211.07 25.0031 211.169C25.0102 211.174 25.0102 211.18 25.0032 211.18C24.496 213.534 24.108 215.909 23.8391 218.283C23.3333 222.746 23.3118 227.31 24.605 231.701C25.6795 235.316 27.816 238.683 30.844 241.535C31.1342 241.824 31.4383 242.108 31.7565 242.392C32.0039 242.615 32.2584 242.839 32.5199 243.057C34.9578 245.122 37.6466 247.071 39.9249 249.269C40.9665 250.261 41.8941 251.322 42.6968 252.442C45.3846 256.269 45.536 260.634 43.7587 264.727C41.5919 269.733 37.2657 273.837 32.8461 277.727C28.1075 281.904 23.1108 286.188 20.9346 291.617C20.704 291.668 20.4805 291.725 20.25 291.781C19.9497 291.854 19.6564 291.928 19.3629 291.995C19.4344 292.132 19.5129 292.269 19.5914 292.406C19.5113 292.359 19.4468 292.298 19.4033 292.227C19.3599 292.157 19.3389 292.079 19.342 292.001C19.3408 291.99 19.3431 291.979 19.3487 291.968C19.3416 291.963 19.3416 291.963 19.3485 291.957C19.3482 291.918 19.3549 291.879 19.3683 291.842C19.9144 290.336 20.6593 288.878 21.5911 287.494C21.5909 287.483 21.5909 287.483 21.5979 287.477C26.5753 280.063 36.0086 274.823 40.8584 267.267C43.5452 263.091 44.6354 258.257 42.0328 253.88C41.2632 252.615 40.3106 251.423 39.1939 250.329C37.0136 248.135 34.3461 246.208 31.9367 244.197C31.3362 243.702 30.7636 243.194 30.2118 242.676C27.2035 239.961 24.9727 236.771 23.6698 233.322C22.0973 229.004 21.8876 224.431 22.2464 219.974C22.4751 217.111 22.8999 214.247 23.4929 211.404C23.5661 211.035 23.6463 210.672 23.7334 210.304L23.7333 210.298C27.8129 192.442 37.9122 175.768 52.9829 162.007L52.9899 162.007C53.2672 161.741 53.5585 161.476 53.8499 161.216C54.4535 160.679 55.4007 161.513 54.7971 162.044Z" fill="white"/>
<path d="M24.1491 211.536C19.7503 210.729 15.8606 208.722 13.1745 205.873C10.4885 203.024 9.18116 199.519 9.48591 195.984C9.50004 195.84 9.58492 195.706 9.72266 195.61C9.86041 195.514 10.0403 195.464 10.2243 195.47C10.4084 195.476 10.5823 195.538 10.7095 195.642C10.8366 195.747 10.9069 195.886 10.9058 196.031C10.6142 199.322 11.8325 202.587 14.3406 205.235C16.8487 207.884 20.4815 209.742 24.5833 210.475C25.4744 210.635 25.0351 211.695 24.1491 211.536Z" fill="white"/>
<path d="M30.4673 241.716C38.3567 237.952 44.1469 231.993 46.6834 225.029C46.934 224.339 48.2864 224.68 48.0361 225.37C45.3793 232.613 39.3377 238.804 31.1169 242.707C30.333 243.079 29.6877 242.086 30.4673 241.716Z" fill="white"/>
<path d="M37.7107 180.875C39.3297 181.465 41.1104 181.731 42.8928 181.649C44.6752 181.566 46.4035 181.138 47.9226 180.402C48.7 180.022 49.3445 181.016 48.5721 181.393C46.889 182.2 44.9795 182.671 43.0105 182.766C41.0414 182.86 39.0728 182.576 37.2765 181.936C37.1008 181.887 36.9555 181.787 36.8702 181.657C36.7849 181.527 36.7659 181.376 36.8172 181.235C36.8756 181.095 37.0022 180.978 37.1695 180.911C37.3368 180.844 37.5313 180.831 37.7107 180.875Z" fill="white"/>
<path d="M147.96 205.774C147.479 206.019 147.012 206.269 146.532 206.519L146.531 206.521L146.53 206.523L146.528 206.524L146.525 206.525C140.139 209.879 134.11 213.634 128.5 217.753L128.493 217.759C128.048 218.075 127.61 218.396 127.179 218.717C113.829 228.737 102.956 240.606 95.1065 253.725L95.0445 253.825C91.9288 259.065 89.3247 264.484 87.2543 270.034C86.2057 272.847 85.2284 275.775 84.1317 278.666C80.3919 279.305 76.7549 279.948 73.2206 280.593C68.7333 281.408 64.4118 282.225 60.2561 283.045C58.453 283.392 56.6827 283.742 54.945 284.096C51.6651 285.207 48.2478 286.05 44.7474 286.612C42.2171 287.057 39.665 287.436 37.1275 287.859C37.1205 287.859 37.1135 287.865 37.1065 287.865C33.3198 288.702 29.7477 289.518 26.39 290.313C24.5039 290.754 22.6807 291.188 20.9345 291.617C20.704 291.668 20.4805 291.725 20.25 291.781C20.6831 290.356 21.123 288.919 21.591 287.494C21.5909 287.483 21.5909 287.483 21.5979 287.477C25.7682 274.631 31.3409 261.947 39.1938 250.329C39.4282 249.976 39.6625 249.617 39.9249 249.269C43.1076 244.624 46.716 240.166 50.7218 235.93C51.2065 235.405 51.7121 234.885 52.2248 234.366L52.2318 234.36C54.3797 232.193 56.6473 230.093 59.0347 228.06C59.4511 227.7 59.8815 227.341 60.3119 226.986C60.5202 226.815 60.7354 226.643 60.9507 226.471C61.7561 225.818 62.5826 225.17 63.4233 224.544C64.7433 223.547 66.1055 222.577 67.4961 221.634C73.0855 217.862 79.1788 214.576 85.6697 211.832C85.7115 211.816 85.7603 211.793 85.8021 211.777C104.535 203.888 126.274 200.781 146.415 205.405C146.935 205.528 147.44 205.646 147.96 205.774Z" fill="#F0F0F0"/>
<path d="M26.39 290.313C29.8547 289.231 33.4431 288.411 37.1066 287.865C33.3199 288.702 29.7477 289.518 26.39 290.313Z" fill="white"/>
<path d="M147.846 206.296C147.406 206.365 146.965 206.44 146.532 206.519C137.372 208.094 128.461 210.457 119.961 213.564C119.528 213.72 119.103 213.877 118.684 214.039C106.927 218.442 96.1104 224.247 86.6183 231.247L86.6178 231.249L86.6163 231.25L86.614 231.252L86.6113 231.252C86.5181 231.314 86.43 231.381 86.3473 231.451C86.3474 231.457 86.3474 231.457 86.3404 231.457C84.1308 233.092 82.0014 234.799 79.9521 236.579C76.1218 239.905 72.5959 243.542 70.2586 247.654C68.3475 251.049 67.4686 254.745 67.6912 258.452C67.7091 258.82 67.7341 259.193 67.773 259.566C67.7972 259.863 67.8283 260.159 67.8666 260.461C68.393 264.533 69.5293 268.656 68.7815 272.758C67.994 277.069 64.7822 280.61 60.2562 283.045C58.4531 283.392 56.6827 283.742 54.9451 284.096C55.28 283.984 55.6079 283.861 55.9357 283.732C61.2849 281.66 65.8713 278.318 67.1518 273.598C68.2703 269.466 67.0977 265.217 66.5217 261.096C66.4306 260.432 66.3607 259.779 66.3187 259.126C66.3126 259.097 66.31 259.067 66.3108 259.038C65.9955 255.458 66.6643 251.867 68.2718 248.507C70.3282 244.32 73.6778 240.569 77.3814 237.178C79.7672 234.998 82.3011 232.911 84.9552 230.928C85.2955 230.662 85.643 230.407 85.9905 230.158C95.6969 223.107 106.72 217.26 118.678 212.82C127.536 209.532 136.841 207.045 146.415 205.405C146.849 205.331 147.289 205.257 147.722 205.188C148.617 205.045 148.734 206.153 147.846 206.296Z" fill="white"/>
<path d="M85.3777 231.34C82.4852 228.618 80.9203 225.179 80.9626 221.636C81.0049 218.093 82.6517 214.678 85.6087 211.999C86.2094 211.459 87.3083 212.165 86.7068 212.707C83.9474 215.197 82.4138 218.379 82.383 221.678C82.3522 224.977 83.8261 228.176 86.5388 230.698C87.1275 231.246 85.963 231.885 85.3777 231.34Z" fill="white"/>
<path d="M67.2534 258.421C76.4427 259.14 85.6401 257.116 93.0116 252.754C93.7415 252.321 94.5592 253.232 93.8302 253.664C86.1485 258.193 76.5717 260.284 67.0113 259.519C66.1001 259.445 66.3472 258.348 67.2534 258.421Z" fill="white"/>
<path d="M119.744 213.262C120.583 214.498 121.801 215.551 123.287 216.327C124.774 217.103 126.483 217.577 128.261 217.706C129.173 217.771 128.925 218.868 128.019 218.804C126.055 218.654 124.169 218.129 122.524 217.274C120.879 216.42 119.526 215.263 118.583 213.904C118.48 213.782 118.441 213.634 118.472 213.49C118.504 213.346 118.605 213.216 118.754 213.128C118.908 213.044 119.099 213.01 119.284 213.036C119.469 213.061 119.635 213.142 119.744 213.262Z" fill="white"/>
<path d="M222.599 244.711C220.547 251.895 215.627 258.379 208.556 263.22C208.045 263.572 207.521 263.915 206.986 264.249C205.675 264.339 204.37 264.434 203.082 264.533C202.012 264.609 200.952 264.689 199.902 264.772C199.838 264.776 199.775 264.781 199.718 264.785L199.585 263.883L199.051 260.239C196.985 257.595 195.705 254.621 195.305 251.536C194.905 248.452 195.395 245.336 196.739 242.42C198.585 238.51 201.937 235.055 205.227 231.632C209.77 226.897 214.192 222.216 214.353 216.447C219.406 221.571 222.515 227.707 223.324 234.153C223.794 237.681 223.549 241.244 222.599 244.711Z" fill="#E6E6E6"/>
<path d="M245.849 230.315C235.596 236.16 235.946 248.324 228.695 256.478C226.486 258.938 223.608 260.984 220.27 262.467C219.359 262.874 218.418 263.239 217.452 263.559C213.899 263.775 210.41 264.005 206.986 264.249C205.675 264.339 204.37 264.434 203.082 264.533C202.012 264.609 200.952 264.689 199.902 264.772C199.896 264.47 199.896 264.163 199.907 263.861C200.126 255.816 203.899 248.08 210.58 241.974C210.897 241.685 211.219 241.406 211.547 241.126C214.932 238.288 218.917 235.93 223.324 234.153C230.262 231.324 238.039 229.999 245.849 230.315Z" fill="#F2F2F2"/>
<path d="M204.295 261.714L203.49 263.586L203.082 264.533C202.012 264.609 200.952 264.689 199.902 264.772C199.838 264.776 199.775 264.781 199.718 264.785C198.55 264.88 197.394 264.97 196.244 265.065C195.939 264.79 195.64 264.51 195.347 264.226C188.038 257.284 184.53 248.355 185.589 239.391C186.649 230.426 192.189 222.155 201 216.384C199.712 221.665 202.3 226.626 205.227 231.632C207.222 235.024 209.373 238.433 210.581 241.974C210.888 242.861 211.128 243.761 211.299 244.671C211.837 247.742 211.487 250.868 210.275 253.819C209.062 256.769 207.019 259.468 204.295 261.714Z" fill="#F2F2F2"/>
<path d="M407.402 265.294C407.197 265.55 406.983 265.798 406.764 266.043C406.242 265.999 405.725 265.959 405.208 265.915C404.304 265.842 403.402 265.769 402.502 265.696C402.39 265.688 402.278 265.678 402.166 265.67L401.607 264.819L400.564 263.234C398.031 261.697 395.972 259.732 394.54 257.486C393.108 255.24 392.339 252.769 392.292 250.258C392.259 246.875 393.535 243.504 394.774 240.168C396.484 235.562 398.119 231.021 396.13 226.619C401.831 229.366 406.432 233.316 409.405 238.017C411.049 240.581 412.167 243.333 412.717 246.17C413.927 252.838 412.04 259.626 407.402 265.294Z" fill="#E6E6E6"/>
<path d="M421.641 253.71C420.834 256.14 419.341 258.397 417.271 260.313C415.201 262.229 412.608 263.756 409.684 264.779L408.962 265.429L408.152 266.163C407.691 266.123 407.225 266.083 406.764 266.043C406.242 265.999 405.725 265.959 405.208 265.915C404.304 265.842 403.402 265.769 402.502 265.696C402.371 265.422 402.255 265.144 402.143 264.863C399.764 258.965 399.929 252.616 402.613 246.799C402.744 246.51 402.884 246.225 403.033 245.944C404.562 243.035 406.718 240.353 409.405 238.017C413.621 234.31 419.025 231.554 425.055 230.035C419.433 236.767 424.147 245.904 421.641 253.71Z" fill="#F2F2F2"/>
<path d="M405.171 265.108L405.208 265.915C404.304 265.842 403.402 265.769 402.502 265.696C402.39 265.688 402.278 265.678 402.166 265.67C399.954 265.495 397.752 265.33 395.561 265.177C395.072 264.888 394.588 264.589 394.117 264.271C387.793 260.152 383.514 254.422 382.029 248.081C380.543 241.74 381.945 235.191 385.989 229.578C386.944 233.867 390.722 237.041 394.774 240.168C397.522 242.291 400.401 244.391 402.613 246.799C403.171 247.403 403.683 248.032 404.146 248.684C405.676 250.889 406.553 253.337 406.715 255.844C406.876 258.352 406.316 260.856 405.078 263.172L405.171 265.108Z" fill="#F2F2F2"/>
<path d="M591.846 297.374C591.803 297.486 591.715 297.584 591.595 297.653C591.475 297.723 591.33 297.76 591.181 297.759C591.109 297.758 591.038 297.748 590.97 297.731C528.678 282.287 464.59 271.713 399.642 266.163C398.949 266.103 398.249 266.043 397.556 265.982C396.771 265.916 395.994 265.856 395.217 265.79C393.858 265.68 392.502 265.57 391.148 265.46C390.98 265.449 390.812 265.433 390.644 265.422C387.318 265.158 384.008 264.911 380.714 264.68C325.76 260.791 270.489 260.49 215.471 263.78C211.143 264.043 206.895 264.324 202.726 264.62C201.13 264.73 199.54 264.845 197.971 264.966C196.669 265.059 195.378 265.156 194.099 265.257C194.022 265.263 193.945 265.268 193.875 265.274C192.453 265.389 191.046 265.499 189.645 265.614C183.924 266.081 178.364 266.575 172.965 267.097C68.0571 277.186 2.53971 297.517 1.88846 297.72C1.71574 297.774 1.52279 297.772 1.35207 297.714C1.18135 297.657 1.04683 297.548 0.978117 297.413C0.909399 297.277 0.912107 297.126 0.98565 296.992C1.05919 296.858 1.19754 296.753 1.37027 296.699C2.02152 296.496 67.6719 276.12 172.741 266.015C178 265.51 183.27 265.036 188.553 264.593C190.275 264.45 191.991 264.313 193.714 264.175C193.847 264.164 193.98 264.159 194.106 264.148C195.562 264.032 197.012 263.923 198.469 263.813C200.527 263.659 202.579 263.511 204.638 263.368C209.386 263.033 214.141 262.727 218.902 262.451C265.895 259.72 313.075 259.628 360.084 262.176C366.24 262.511 372.393 262.892 378.543 263.318C382.297 263.571 386.05 263.851 389.804 264.142C390.07 264.164 390.336 264.186 390.609 264.208C392.129 264.323 393.641 264.45 395.161 264.576C396.281 264.664 397.395 264.757 398.515 264.856C399.299 264.922 400.084 264.988 400.861 265.059C465.535 270.697 529.35 281.29 591.391 296.688C591.479 296.709 591.56 296.743 591.631 296.789C591.702 296.835 591.76 296.892 591.803 296.956C591.845 297.02 591.871 297.09 591.878 297.162C591.886 297.233 591.875 297.306 591.846 297.374Z" fill="#CCCCCC"/>
<path d="M187.433 156.731C189.077 161.416 192.781 165.493 197.889 168.242C199.864 169.296 202.2 170.308 202.876 172.105C203.231 173.251 203.012 174.46 202.264 175.483C201.517 176.492 200.609 177.423 199.56 178.251L199.465 178.533C194.564 176.255 189.901 173.374 187.194 169.443C184.487 165.512 184.109 160.36 187.433 156.731Z" fill="#F2F2F2"/>
<path d="M434.39 177.132C431.683 173.201 431.305 168.048 434.629 164.42C436.273 169.104 439.976 173.182 445.085 175.931C447.059 176.985 449.396 177.997 450.072 179.794C450.427 180.94 450.208 182.149 449.46 183.172C448.713 184.181 447.804 185.112 446.756 185.94L446.66 186.221C441.759 183.944 437.097 181.063 434.39 177.132Z" fill="#F2F2F2"/>
<path d="M328.649 275.438C325.942 271.507 325.564 266.355 328.888 262.727C330.532 267.411 334.236 271.488 339.344 274.237C341.319 275.292 343.655 276.303 344.331 278.1C344.686 279.246 344.467 280.455 343.719 281.478C342.972 282.488 342.063 283.418 341.015 284.247L340.919 284.528C336.019 282.25 331.356 279.369 328.649 275.438Z" fill="#F2F2F2"/>
<path d="M476.756 56.0182C496.481 56.0182 512.47 43.4781 512.47 28.0091C512.47 12.5401 496.481 0 476.756 0C457.032 0 441.043 12.5401 441.043 28.0091C441.043 43.4781 457.032 56.0182 476.756 56.0182Z" fill="#FFF065"/>
<path d="M541.206 6.51921C523.898 4.68433 504.137 12.0214 499.651 25.2598C498.521 22.906 496.465 20.895 493.782 19.5174C491.099 18.1397 487.926 17.4667 484.723 17.5956C481.521 17.7245 478.453 18.6487 475.963 20.2345C473.474 21.8203 471.692 23.9857 470.875 26.4179L472.856 27.5309C509.948 33.8216 548.343 33.6854 585.361 27.132C573.321 17.2086 558.515 8.35401 541.206 6.51921Z" fill="#F0F0F0"/>
<path d="M466.977 43.8647C449.669 42.0298 429.908 49.3669 425.422 62.6052C424.292 60.2514 422.236 58.2405 419.553 56.8628C416.87 55.4852 413.698 54.8122 410.495 54.9411C407.292 55.07 404.224 55.9941 401.735 57.5799C399.245 59.1657 397.463 61.3312 396.646 63.7633L398.627 64.8764C435.719 71.167 474.114 71.0309 511.132 64.4775C499.092 54.554 484.286 45.6995 466.977 43.8647Z" fill="#F0F0F0"/>
<path d="M537.991 257.375C537.141 257.126 536.308 256.841 535.496 256.522C535.455 256.571 535.415 256.622 535.374 256.671L537.991 257.375Z" fill="#E6E6E6"/>
<path d="M283.057 38.4654C283.056 41.0287 283.857 43.5531 285.39 45.817C286.924 48.0808 289.142 50.0149 291.851 51.4494C294.559 52.8839 297.676 53.775 300.926 54.0444C304.177 54.3139 307.462 53.9535 310.493 52.9948C313.524 52.0361 316.209 50.5085 318.312 48.546C320.415 46.5836 321.871 44.2463 322.553 41.7394C323.235 39.2325 323.122 36.6326 322.224 34.1679C321.326 31.7032 319.67 29.4491 317.402 27.6035L317.306 27.5284C317.146 27.3968 316.986 27.2653 316.819 27.14C316.818 27.14 316.817 27.1398 316.816 27.1395C316.815 27.1392 316.814 27.1387 316.813 27.1382C316.812 27.1376 316.812 27.1369 316.811 27.1361C316.811 27.1353 316.811 27.1345 316.811 27.1337C316.603 26.9834 316.395 26.833 316.18 26.689C313.294 24.7051 309.741 23.4154 305.945 22.9744C302.15 22.5333 298.272 22.9596 294.777 24.2021C291.283 25.4447 288.318 27.4509 286.24 29.9805C284.161 32.5101 283.056 35.456 283.057 38.4654Z" fill="#2F2E41"/>
<path d="M368.027 141.679C366.96 141.739 365.89 141.615 364.891 141.316C363.892 141.017 362.989 140.549 362.245 139.947C361.502 139.344 360.936 138.621 360.587 137.828C360.238 137.035 360.115 136.192 360.227 135.358L316.46 95.97L330.046 89.4832L368.796 130.24C370.57 130.48 372.17 131.222 373.293 132.326C374.416 133.429 374.984 134.817 374.889 136.227C374.795 137.637 374.044 138.971 372.779 139.976C371.514 140.98 369.823 141.586 368.027 141.679Z" fill="#FEFFB6"/>
<path d="M303.359 79.2134C303.359 79.2134 299.929 80.6091 305.064 85.6093C309.175 89.6123 326.983 108.764 334.363 112.939C333.872 113.862 333.787 114.887 334.121 115.853C334.456 116.818 335.19 117.669 336.208 118.271L348.917 107.286C348.502 103.942 345.641 103.974 344.01 104.299L339.337 95.8164L322.116 73.8407L305.815 78.17L303.359 79.2134Z" fill="#98FF68"/>
<path d="M291.524 106.782L290.489 110.653L289.608 124.931L329.931 121.173L332.648 104.641L328.893 99.8025L291.524 106.782Z" fill="#FEFFB6"/>
<path d="M307.945 55.2203C317.192 55.2203 324.688 49.341 324.688 42.0886C324.688 34.8363 317.192 28.957 307.945 28.957C298.697 28.957 291.201 34.8363 291.201 42.0886C291.201 49.341 298.697 55.2203 307.945 55.2203Z" fill="#FFB7B7"/>
<path d="M278.218 90.524L278.115 79.6085C278.112 75.6809 279.807 71.8686 282.923 68.7935C286.038 65.7184 290.39 63.562 295.269 62.676L295.332 62.6644L298.643 59.1658L312.094 60.2211L314.56 64.1729L324.307 68.7247L335.393 78.905C338.884 80.871 340.958 83.3919 341.558 86.3985C342.832 92.7812 337.134 99.1676 336.456 99.8998L334.709 107.614L289.385 112.152L289.076 112.183L278.218 90.524Z" fill="#98FF68"/>
<path d="M290.421 45.5312C290.573 45.5124 290.725 45.4873 290.877 45.4685C293.488 45.1052 296.1 44.7482 298.704 44.3786L298.944 39.7495L302.099 43.8962C309.295 45.7692 316.028 44.7106 322.362 42.3741C324.451 41.5963 326.478 40.7198 328.432 39.7495C327.9 37.1893 326.645 34.7548 324.759 32.624C322.872 30.4932 320.402 28.7201 317.53 27.4344C317.29 27.3279 317.058 27.234 316.819 27.14L316.816 27.1395L316.813 27.1382L316.811 27.1361L316.811 27.1337C316.403 26.9834 315.988 26.8393 315.573 26.7078C312.321 25.7112 308.776 25.4588 305.349 25.98C301.921 26.5011 298.753 27.7744 296.212 29.6519C291.1 33.4792 288.8 39.7996 290.421 45.5312Z" fill="#2F2E41"/>
<path d="M300.579 247.829L308.957 252.884L337.811 229.945L325.445 222.483L300.579 247.829Z" fill="#FEFFB6"/>
<path d="M301.682 243.333L315.534 250.706L311.168 255.156L317.068 269.575C317.36 270.288 317.353 271.054 317.05 271.763C316.747 272.472 316.162 273.087 315.382 273.517C314.602 273.947 313.667 274.17 312.713 274.154C311.76 274.138 310.838 273.883 310.082 273.427L294.314 263.912L295.915 257.87L290.535 261.631L284.59 258.043L301.682 243.333Z" fill="#2F2E41"/>
<path d="M279.14 285.452H289.711L294.741 253.473L279.138 253.473L279.14 285.452Z" fill="#FEFFB6"/>
<path d="M273.391 219.832L273.39 219.746L277.361 214.379L273.306 207.394L273.018 164.937C271.421 134.255 289.173 119.507 289.352 119.362L289.844 118.96L292.514 120.547L295.056 120.549L331.187 118.262L331.435 118.624C332.784 120.608 333.554 134.637 333.708 137.732C335.418 139.284 354.889 156.954 356.62 158.182C368.316 166.482 375.013 180.219 377.963 187.669C378.696 189.511 378.844 191.464 378.394 193.361C377.943 195.257 376.909 197.038 375.38 198.549L333.311 240.075L333.076 240.308L312.722 228.959L343.144 193.719L341.416 190.245C338.316 189.797 335.511 188.519 333.479 186.629L328.627 182.112C327.284 180.865 326.431 179.34 326.17 177.72L323.228 177.443L312.689 168.765L302.975 208.764L305.377 220.694L303.389 224.796L295.458 272.345L295.368 272.891H273.751L273.391 219.832Z" fill="#2F2E41"/>
<path d="M275.56 281.362L292.271 280.58V286.196L308.159 294.801C308.944 295.226 309.535 295.837 309.846 296.544C310.157 297.251 310.172 298.017 309.888 298.731C309.604 299.445 309.037 300.07 308.269 300.513C307.5 300.956 306.572 301.195 305.618 301.195H285.722L282.293 295.641L280.954 301.195H273.453L275.56 281.362Z" fill="#2F2E41"/>
<path d="M278.187 149.957C277.522 149.3 277.048 148.537 276.8 147.721C276.551 146.906 276.534 146.057 276.749 145.236C276.964 144.414 277.406 143.64 278.044 142.967C278.682 142.294 279.5 141.739 280.441 141.34L269.433 115.783L278.422 88.6984L292.916 93.8372L283.972 114.266L290.663 144.002C291.411 145.286 291.533 146.741 291.004 148.091C290.476 149.441 289.335 150.592 287.797 151.326C286.259 152.06 284.432 152.326 282.66 152.073C280.889 151.821 279.297 151.068 278.187 149.957Z" fill="#FEFFB6"/>
<path d="M291.453 66.3824C291.453 66.3824 288.049 64.9488 285.682 71.0948C283.786 76.0151 270.888 102.73 270.655 109.864C269.407 110.067 268.279 110.591 267.452 111.352C266.624 112.112 266.142 113.068 266.083 114.067L284.817 116.1C288.104 113.944 286.456 112.11 285.194 111.237L291.574 102.761L304.911 79.8778L293.938 67.3844L291.453 66.3824Z" fill="#98FF68"/>
<path d="M254.848 57.0217C260.546 54.7152 263.913 49.8588 265.385 44.9644C266.858 40.07 266.767 34.9811 267.442 29.9803C268.118 24.9795 269.707 19.8217 273.914 16.0271C276.603 13.6023 280.565 11.8122 284.644 12.116C286.024 12.2187 287.36 12.5536 288.56 13.0976C289.76 13.6417 290.797 14.3823 291.599 15.2689C292.402 16.1555 292.951 17.1674 293.21 18.2355C293.469 19.3036 293.431 20.403 293.099 21.4586C294.26 20.168 297.266 20.4477 298.01 21.9157C298.671 23.2207 297.21 24.8015 295.491 24.917C293.241 27.0961 290.664 29.4088 287.139 29.8484C286.578 29.9496 285.994 29.9493 285.433 29.8477C284.871 29.746 284.346 29.5457 283.898 29.2617C283.069 28.6371 283.004 27.3885 283.988 26.9217C279.558 28.3018 276.961 32.058 276.304 35.7606C275.647 39.4631 276.556 43.2092 277.155 46.9178C277.754 50.6263 278.013 54.5276 276.158 57.9714C273.968 62.0404 268.924 64.9567 263.42 65.8919C257.916 66.8271 252.054 65.9131 247.072 63.8537C242.09 61.7942 237.935 58.6503 234.542 55.1255C240.388 58.3813 248.476 59.601 254.848 57.0217Z" fill="#2F2E41"/>
<path d="M290.877 45.4685C290.877 45.4685 295.837 30.9486 317.098 27.5973C317.122 27.5911 317.202 27.566 317.306 27.5284C317.37 27.4971 317.45 27.4657 317.53 27.4345C317.29 27.3279 317.058 27.2341 316.819 27.14L316.816 27.1396L316.813 27.1382L316.811 27.1361L316.811 27.1337C316.603 26.9834 316.395 26.8331 316.18 26.689L315.573 26.7078C315.573 26.7078 294.239 24.0581 290.877 45.4685Z" fill="#FD6584"/>
<path d="M161.284 40.9304C158.577 36.9994 158.199 31.8472 161.523 28.219C163.167 32.9033 166.871 36.9806 171.979 39.7295C173.954 40.784 176.29 41.7956 176.966 43.5929C177.321 44.7386 177.102 45.9476 176.354 46.9704C175.607 47.9801 174.699 48.9105 173.65 49.7391L173.554 50.0203C168.654 47.7426 163.991 44.8615 161.284 40.9304Z" fill="#F2F2F2"/>
<path d="M591.181 372.999C591.109 372.999 591.038 372.99 590.97 372.973C405.813 327.05 242.624 333.055 138.329 346.18C124.135 347.965 109.904 350.027 96.0295 352.31C92.4875 352.891 88.8128 353.515 85.1076 354.165C80.6827 354.938 76.3166 355.733 72.1301 356.529C70.3219 356.865 68.5492 357.204 66.8117 357.545C64.1798 358.054 61.5094 358.585 58.6468 359.169C55.448 359.815 52.198 360.494 48.9848 361.185C48.9731 361.188 48.9611 361.191 48.9489 361.193L48.9493 361.194C45.3201 361.971 41.71 362.771 38.2189 363.569C36.3294 363.997 34.5048 364.419 32.7572 364.836C32.562 364.878 32.389 364.919 32.2136 364.961L31.8381 365.05C31.6207 365.102 31.4059 365.153 31.1912 365.202L31.1775 365.205L31.1779 365.205L30.6096 365.344C29.9319 365.505 29.2706 365.662 28.6202 365.819C11.4321 369.974 1.98326 372.93 1.88991 372.959C1.80455 372.986 1.71329 372.999 1.62134 372.999C1.52938 372.998 1.43853 372.983 1.35398 372.954C1.18322 372.897 1.04846 372.789 0.979354 372.654C0.910251 372.519 0.91246 372.367 0.985498 372.233C1.05854 372.099 1.19642 371.994 1.36881 371.94C1.46284 371.911 10.9579 368.939 28.2085 364.768C28.8613 364.611 29.5243 364.454 30.2041 364.293L30.732 364.164C30.7501 364.159 30.7682 364.154 30.7867 364.15C31.0004 364.102 31.2138 364.051 31.4305 364L31.8067 363.91C31.994 363.866 32.1787 363.822 32.3678 363.781C34.1034 363.367 35.9341 362.944 37.8284 362.514C41.3209 361.715 44.9344 360.915 48.5663 360.137C48.5776 360.134 48.5892 360.132 48.6005 360.129C51.8249 359.436 55.0869 358.754 58.2959 358.105C61.163 357.521 63.8386 356.989 66.4749 356.478C68.2197 356.138 69.996 355.799 71.8035 355.461C75.9949 354.664 80.3699 353.867 84.8026 353.093C88.5136 352.443 92.1945 351.817 95.7423 351.235C109.638 348.949 123.892 346.884 138.107 345.095C242.551 331.952 405.975 325.937 591.392 371.926C591.551 371.966 591.687 372.049 591.776 372.16C591.864 372.271 591.898 372.404 591.873 372.533C591.847 372.663 591.764 372.781 591.637 372.867C591.51 372.952 591.348 372.999 591.181 372.999Z" fill="#CCCCCC"/>
<path d="M136.557 306.86C145.143 304.112 185.831 300.477 195.073 301.015C196.424 301.093 196.538 299.448 195.19 299.369C185.558 298.809 144.522 302.539 135.583 305.4C134.333 305.8 135.312 307.259 136.557 306.86Z" fill="#CCCCCC"/>
<path d="M18.7894 327.91C27.4643 325.306 36.7894 324.311 46.0361 325.002C47.3848 325.102 47.541 323.458 46.1958 323.359C36.5721 322.655 26.8712 323.707 17.8529 326.435C16.5933 326.814 17.5343 328.288 18.7894 327.91Z" fill="#CCCCCC"/>
<path d="M358.737 299.496C367.888 298.245 377.283 298.67 386.189 300.739C387.489 301.04 388.044 299.45 386.748 299.15C377.475 297.012 367.696 296.587 358.179 297.907C356.85 298.091 357.413 299.679 358.737 299.496Z" fill="#CCCCCC"/>
<path d="M564.29 214.187L574.655 207.752C573.726 202.356 571.13 197.219 567.095 192.788C566.353 202.451 553.443 208.603 548.716 217.545C547.269 220.343 546.643 223.36 546.885 226.373C547.127 229.386 548.231 232.318 550.114 234.952L550.824 242.284C556.426 240.174 561.378 237.137 565.339 233.381C569.3 229.626 572.176 225.242 573.769 220.53C574.629 217.881 575.06 215.156 575.052 212.422C569.837 213.522 564.29 214.187 564.29 214.187Z" fill="#98FF68"/>
<path d="M539.822 278.914C535.689 279.658 532.078 280.091 532.078 280.091L538.473 276.12C537.026 272.797 536.239 269.45 537.178 265.992C532.323 269.043 528.383 272.895 525.64 277.274C522.896 281.653 521.417 286.453 521.306 291.331C521.195 296.21 522.455 301.048 524.998 305.501C527.54 309.955 531.302 313.914 536.016 317.098L539.195 310.181C541.906 308.037 543.967 305.443 545.226 302.589C546.485 299.736 546.908 296.697 546.466 293.698C545.661 288.585 542.353 283.748 539.822 278.914Z" fill="#98FF68"/>
<path d="M535.446 198.402C533.267 199.903 531.207 201.506 529.277 203.203L532.579 197.224C531.339 196.85 530.011 196.692 528.685 196.761C527.36 196.83 526.07 197.124 524.904 197.624C522.181 198.876 520.55 201.31 520.242 203.774C520.04 206.26 520.722 208.741 522.211 210.941C524.777 214.98 528.949 218.256 534.096 220.275C536.617 217.224 538.983 214.016 539.989 210.47C541.013 206.866 540.453 202.822 537.517 199.936C536.918 199.354 536.221 198.838 535.446 198.402Z" fill="#98FF68"/>
<path d="M586.699 264.164L596.307 258.199C597.1 254.817 597.211 251.359 596.636 247.95C590.18 256.2 575.097 256.86 565.558 263.003C562.602 264.936 560.238 267.367 558.642 270.115C557.046 272.862 556.259 275.856 556.34 278.875L552.564 285.605C558.772 285.813 564.965 284.962 570.714 283.112C576.464 281.262 581.633 278.456 585.867 274.889C589.871 271.436 592.902 267.361 594.765 262.928C590.499 263.708 586.699 264.164 586.699 264.164Z" fill="#98FF68"/>
<path d="M534.137 315.739C532.302 317.596 530.357 319.382 528.303 321.1C529.067 321.281 529.809 321.457 530.537 321.632C532.337 320.1 534.053 318.513 535.684 316.871C535.957 316.596 536.23 316.316 536.504 316.031C539.479 312.96 542.161 309.722 544.529 306.343C549.099 299.844 552.493 292.877 554.613 285.643C554.655 285.517 554.69 285.396 554.725 285.27C555.292 283.282 555.761 281.272 556.125 279.256C556.202 278.85 556.272 278.438 556.342 278.032C556.517 276.917 556.664 275.802 556.783 274.687C557.214 270.623 557.228 266.538 556.825 262.473C556.136 255.52 554.285 248.667 551.321 242.092C551.111 241.625 550.901 241.158 550.67 240.697C550.544 240.422 550.411 240.148 550.278 239.873C546.71 232.64 541.815 225.853 535.747 219.729C535.523 219.503 535.299 219.284 535.075 219.064C534.543 218.542 534.004 218.026 533.457 217.515C533.368 217.426 533.252 217.355 533.121 217.308C532.989 217.261 532.845 217.239 532.701 217.245C532.556 217.25 532.415 217.283 532.29 217.339C532.165 217.396 532.058 217.475 531.98 217.57C531.806 217.722 531.709 217.919 531.707 218.123C531.704 218.327 531.796 218.525 531.966 218.68C532.407 219.092 532.848 219.509 533.268 219.932C533.794 220.432 534.298 220.942 534.788 221.459C545.606 232.647 552.384 245.913 554.41 259.864C555.624 268.462 554.963 277.159 552.456 285.583H552.449C550.951 290.659 548.805 295.603 546.041 300.34C545.488 301.285 544.912 302.22 544.312 303.146C542.757 305.557 541.042 307.902 539.172 310.171C537.603 312.087 535.925 313.944 534.137 315.739Z" fill="#3F3D56"/>
<path d="M515.598 323.661C524.748 322.409 534.144 322.835 543.05 324.903C544.349 325.204 544.904 323.615 543.609 323.315C534.335 321.177 524.557 320.751 515.04 322.072C513.71 322.255 514.274 323.843 515.598 323.661Z" fill="#CCCCCC"/>
</g>
<defs>
<clipPath id="clip0_48_165">
<rect width="597" height="373" fill="white"/>
</clipPath>
</defs>
</svg>
